STARTFONT 2.1
COMMENT
COMMENT Converted from OpenType font "Roboto-Italic.ttf" by "otf2bdf 3.0".
COMMENT
FONT -FreeType-Roboto-Medium-I-Normal--50-360-100-100-P-258-ISO10646-1
SIZE 36 100 100
FONTBOUNDINGBOX 93 65 -36 -13
STARTPROPERTIES 19
FOUNDRY "FreeType"
FAMILY_NAME "Roboto"
WEIGHT_NAME "Medium"
SLANT "I"
SETWIDTH_NAME "Normal"
ADD_STYLE_NAME ""
PIXEL_SIZE 50
POINT_SIZE 360
RESOLUTION_X 100
RESOLUTION_Y 100
SPACING "P"
AVERAGE_WIDTH 258
CHARSET_REGISTRY "ISO10646"
CHARSET_ENCODING "1"
FONT_ASCENT 46
FONT_DESCENT 12
COPYRIGHT "Copyright 2011 The Roboto Project Authors (https://github.com/googlefonts/roboto-classic)"
_OTF_FONTFILE "Roboto-Italic.ttf"
_OTF_PSNAME "Roboto-Italic"
ENDPROPERTIES
CHARS 922
STARTCHAR 0000
ENCODING 0
SWIDTH 0 0
DWIDTH 0 0
BBX 0 0 0 0
BITMAP
ENDCHAR
STARTCHAR 0002
ENCODING 2
SWIDTH 0 0
DWIDTH 0 0
BBX 0 0 0 0
BITMAP
ENDCHAR
STARTCHAR 000D
ENCODING 13
SWIDTH 240 0
DWIDTH 12 0
BBX 0 0 0 0
BITMAP
ENDCHAR
STARTCHAR 0020
ENCODING 32
SWIDTH 240 0
DWIDTH 12 0
BBX 0 0 0 0
BITMAP
ENDCHAR
STARTCHAR 0021
ENCODING 33
SWIDTH 240 0
DWIDTH 12 0
BBX 10 36 2 0
BITMAP
03C0
07C0
07C0
07C0
0780
0780
0780
0F80
0F80
0F80
0F00
0F00
0F00
1F00
1F00
1E00
1E00
1E00
1E00
3E00
3C00
3C00
3C00
3C00
3C00
3C00
0000
0000
0000
0000
0000
7000
F800
F800
F800
F000
ENDCHAR
STARTCHAR 0022
ENCODING 34
SWIDTH 300 0
DWIDTH 15 0
BBX 12 13 5 25
BITMAP
38F0
38E0
78E0
78E0
78E0
71E0
71C0
71C0
71C0
E1C0
E180
E380
E380
ENDCHAR
STARTCHAR 0023
ENCODING 35
SWIDTH 580 0
DWIDTH 29 0
BBX 29 36 2 0
BITMAP
0001C070
0003C0F0
0003C0E0
000381E0
000781E0
000781C0
000703C0
000F03C0
000F0380
000E0780
001E0700
0FFFFFF8
0FFFFFF8
0FFFFFF8
00381E00
00781E00
00781C00
00703C00
00F03C00
00F03800
00E07800
01E07000
01C07000
FFFFFF80
FFFFFF80
FFFFFF80
0781E000
0781C000
0703C000
0F03C000
0F038000
0E078000
1E070000
1C070000
1C0F0000
3C0E0000
ENDCHAR
STARTCHAR 0024
ENCODING 36
SWIDTH 540 0
DWIDTH 27 0
BBX 24 46 2 -5
BITMAP
0003C0
0003C0
0003C0
0003C0
000380
001FC0
007FF0
01FFFC
03FFFC
03F07E
07C03E
0F801F
0F801F
0F001F
0F000F
0F000F
0F0000
0F8000
0F8000
07C000
07F000
03FC00
01FF00
00FFC0
003FE0
0007F0
0001F8
0000F8
00007C
00007C
00007C
F0007C
F0007C
F8007C
F800F8
7800F8
7C03F0
3F9FF0
3FFFE0
1FFF80
07FE00
00E000
01E000
01E000
01E000
01E000
ENDCHAR
STARTCHAR 0025
ENCODING 37
SWIDTH 700 0
DWIDTH 35 0
BBX 27 37 5 -1
BITMAP
07C00000
1FF00000
3FF80000
78380000
703C0300
F01C0380
E01C0780
E01C0F00
E01C1E00
E03C3C00
E03C3800
E0387800
F078F000
7DF1E000
7FE1C000
1FC3C000
02078000
000F0000
001E0000
001C0000
003C3F00
0078FF80
00F1FFC0
00E3E1E0
01E3C0E0
03C380E0
078780E0
0F0780E0
0E0700E0
1E0700E0
3C0701E0
780781E0
100783C0
0003E7C0
0001FF80
0000FE00
00001000
ENDCHAR
STARTCHAR 0026
ENCODING 38
SWIDTH 600 0
DWIDTH 30 0
BBX 26 36 2 -1
BITMAP
001FC000
007FF000
00FFF800
01FFF800
03F07C00
03E03C00
03C03C00
07C03C00
07C03C00
07807C00
07C0F800
07C1F800
03C3F000
03EFE000
01FFC000
01FF0000
00FE0000
03FC0000
07FC0000
0FFE0000
1FBE03C0
3F1F03C0
7C0F83C0
FC0F8780
F807C780
F003EF80
F003EF00
F001FE00
F000FE00
F000FC00
F800FC00
FC01FE00
7F0FFE00
3FFFFF00
1FFF8F80
07FE0F80
ENDCHAR
STARTCHAR 0027
ENCODING 39
SWIDTH 160 0
DWIDTH 8 0
BBX 6 12 4 26
BITMAP
3C
38
38
38
78
78
78
70
70
70
F0
E0
ENDCHAR
STARTCHAR 0028
ENCODING 40
SWIDTH 320 0
DWIDTH 16 0
BBX 16 51 3 -11
BITMAP
0003
0007
001F
003E
007C
0078
00F0
01F0
03E0
03C0
07C0
0780
0F00
0F00
1F00
1E00
3E00
3C00
3C00
7C00
7C00
7800
7800
F800
F800
F800
F000
F000
F000
F000
F000
F000
F000
F000
F000
F000
F000
F000
F000
7000
7800
7800
7800
3C00
3C00
1C00
1E00
0F00
0780
0380
0100
ENDCHAR
STARTCHAR 0029
ENCODING 41
SWIDTH 320 0
DWIDTH 16 0
BBX 17 51 -3 -12
BITMAP
008000
00E000
01E000
00F000
007800
003C00
003C00
001C00
001E00
001E00
000F00
000F00
000F00
000F00
000F00
000F80
000F80
000F80
000F80
000F80
000F80
000F80
000F80
000F80
000F80
000F00
000F00
000F00
001F00
001F00
001E00
001E00
003E00
003E00
003C00
007C00
007800
007800
00F800
00F000
01F000
01E000
03C000
07C000
078000
0F0000
1E0000
3C0000
780000
F00000
600000
ENDCHAR
STARTCHAR 002A
ENCODING 42
SWIDTH 400 0
DWIDTH 20 0
BBX 19 21 3 15
BITMAP
007800
007800
007800
007000
007000
007000
40F020
78F1E0
FEEFE0
FFFFE0
3FFFC0
07FC00
03F000
07F000
0F7800
1F7800
3E3C00
7C3C00
F81E00
301C00
100800
ENDCHAR
STARTCHAR 002B
ENCODING 43
SWIDTH 540 0
DWIDTH 27 0
BBX 24 25 2 4
BITMAP
000F00
000F00
000F00
001F00
001F00
001E00
001E00
001E00
003E00
003E00
FFFFFF
FFFFFF
FFFFFF
FFFFFF
007C00
007C00
007C00
007800
007800
007800
00F800
00F800
00F000
00F000
00F000
ENDCHAR
STARTCHAR 002C
ENCODING 44
SWIDTH 180 0
DWIDTH 9 0
BBX 8 12 -2 -7
BITMAP
1F
1E
1E
1E
3E
3E
3C
7C
78
F0
E0
40
ENDCHAR
STARTCHAR 002D
ENCODING 45
SWIDTH 260 0
DWIDTH 13 0
BBX 12 4 1 13
BITMAP
FFF0
FFF0
FFE0
FFE0
ENDCHAR
STARTCHAR 002E
ENCODING 46
SWIDTH 240 0
DWIDTH 12 0
BBX 6 5 1 0
BITMAP
78
7C
FC
FC
78
ENDCHAR
STARTCHAR 002F
ENCODING 47
SWIDTH 400 0
DWIDTH 20 0
BBX 24 39 -2 -3
BITMAP
00000F
00000F
00001E
00001E
00003C
00003C
000078
0000F8
0000F0
0001E0
0001E0
0003C0
0003C0
000780
000780
000F00
000F00
001E00
003C00
003C00
007800
007800
00F000
00F000
01E000
01E000
03C000
03C000
078000
0F0000
0F0000
1E0000
1E0000
3C0000
3C0000
780000
780000
F00000
F00000
ENDCHAR
STARTCHAR 0030
ENCODING 48
SWIDTH 540 0
DWIDTH 27 0
BBX 23 37 3 -1
BITMAP
003F80
00FFE0
03FFF0
07FFF8
0FC0FC
0F807C
1F003C
1E003C
3E003E
3C003E
3C003E
7C003E
7C003E
78003E
78003E
78003C
78003C
F8003C
F8003C
F8007C
F0007C
F0007C
F00078
F00078
F00078
F000F8
F000F0
F000F0
F001F0
F001E0
F803E0
7C07C0
7E1F80
3FFF80
1FFE00
0FFC00
008000
ENDCHAR
STARTCHAR 0031
ENCODING 49
SWIDTH 540 0
DWIDTH 27 0
BBX 15 36 6 0
BITMAP
0006
001E
00FC
07FC
3FFC
7FFC
7F7C
F87C
C078
0078
0078
0078
00F8
00F8
00F0
00F0
00F0
00F0
01F0
01F0
01E0
01E0
01E0
03E0
03E0
03E0
03C0
03C0
03C0
07C0
07C0
07C0
0780
0780
0780
0F80
ENDCHAR
STARTCHAR 0032
ENCODING 50
SWIDTH 540 0
DWIDTH 27 0
BBX 25 36 1 0
BITMAP
001FE000
007FF800
01FFFC00
03FFFE00
07E03F00
07C01F00
0F800F80
0F000F80
1F000F80
1F000F80
1E000F80
00000F00
00001F00
00001E00
00003E00
00007C00
0000FC00
0001F800
0001F000
0003E000
000FC000
001F8000
003F0000
007E0000
00FC0000
01F80000
03F00000
07E00000
0FC00000
1F800000
3F000000
7C000000
FFFFFE00
FFFFFE00
FFFFFC00
FFFFFC00
ENDCHAR
STARTCHAR 0033
ENCODING 51
SWIDTH 540 0
DWIDTH 27 0
BBX 24 37 1 -1
BITMAP
001FE0
007FF8
01FFFC
03FFFE
07E03E
07C01F
0F800F
0F000F
0F000F
1F000F
00000F
00000F
00001F
00003E
00007E
0001FC
007FF0
007FE0
007FE0
007FF0
0001F8
00007C
00007C
00003C
00003C
00003C
00003C
F8003C
F8007C
78007C
7C00F8
7E01F0
3F87F0
1FFFE0
0FFF80
03FF00
002000
ENDCHAR
STARTCHAR 0034
ENCODING 52
SWIDTH 540 0
DWIDTH 27 0
BBX 26 36 0 0
BITMAP
00000F80
00001F80
00001F80
00003F00
00007F00
0000FF00
0001FF00
0001FF00
0003DF00
0007DE00
000F9E00
001F1E00
001E1E00
003C3E00
007C3E00
00F83C00
01F03C00
01E03C00
03C07C00
07C07C00
0F807C00
1F007800
1E007800
3C007800
7FFFFFC0
7FFFFF80
FFFFFF80
FFFFFF80
0000F000
0000F000
0001F000
0001F000
0001E000
0001E000
0001E000
0001E000
ENDCHAR
STARTCHAR 0035
ENCODING 53
SWIDTH 540 0
DWIDTH 27 0
BBX 25 37 3 -1
BITMAP
01FFFF80
01FFFF00
03FFFF00
03FFFF00
03FFFF00
03C00000
07800000
07800000
07800000
07800000
0F000000
0F000000
0F000000
0F7F8000
1FFFC000
1FFFE000
1FFFF000
1F83F800
0E00F800
0000F800
00007C00
00007C00
00007C00
00007C00
00007C00
00007C00
00007C00
F0007800
F000F800
F800F800
7801F000
7C03E000
3F0FE000
3FFFC000
1FFF8000
07FE0000
00E00000
ENDCHAR
STARTCHAR 0036
ENCODING 54
SWIDTH 540 0
DWIDTH 27 0
BBX 22 37 3 -1
BITMAP
000070
0007F0
001FF0
007FF0
00FF00
01F800
03F000
07C000
0F8000
0F0000
1F0000
1E0000
3E0000
3CFF80
3DFFC0
7FFFE0
7FE7F0
7F01F0
7E00F8
FC00F8
F80078
F80078
F0007C
F0007C
F00078
F00078
F00078
F800F8
F800F0
7801F0
7C01F0
7C07E0
3F0FC0
1FFF80
0FFF00
07FC00
004000
ENDCHAR
STARTCHAR 0037
ENCODING 55
SWIDTH 540 0
DWIDTH 27 0
BBX 24 36 4 0
BITMAP
7FFFFF
7FFFFF
7FFFFF
7FFFFF
00001E
00003E
00003C
00007C
0000F8
0000F0
0001F0
0001E0
0003E0
0007C0
000780
000F80
000F00
001F00
003E00
003C00
007C00
007800
00F800
01F000
01E000
03E000
03C000
07C000
0F8000
0F8000
1F0000
1E0000
3E0000
7C0000
7C0000
F80000
ENDCHAR
STARTCHAR 0038
ENCODING 56
SWIDTH 540 0
DWIDTH 27 0
BBX 24 37 2 -1
BITMAP
001FC0
007FF0
01FFF8
03FFFC
07E07E
07C03E
0F801F
0F801F
0F001F
0F001F
1F001F
0F001E
0F003E
0F003E
0F807C
07E1F8
03FFF0
01FFC0
07FFC0
1FFFE0
3F01F0
3E00F8
7C0078
F8007C
F8007C
F0007C
F0007C
F0007C
F00078
F800F8
F801F8
7C03F0
7F0FE0
3FFFC0
1FFF80
07FE00
004000
ENDCHAR
STARTCHAR 0039
ENCODING 57
SWIDTH 540 0
DWIDTH 27 0
BBX 21 36 4 0
BITMAP
00FE00
03FF80
07FFC0
0FFFE0
1F83F0
3E01F0
7C00F0
7C00F8
780078
F80078
F00078
F00078
F00078
F00078
F00078
F00078
F800F8
F801F8
7803F0
7C07F0
3FFFF0
3FFEF0
1FFDE0
07F1E0
0001E0
0003C0
0007C0
000780
000F80
001F00
007E00
01FC00
7FF800
7FF000
7FC000
7E0000
ENDCHAR
STARTCHAR 003A
ENCODING 58
SWIDTH 220 0
DWIDTH 11 0
BBX 9 27 1 0
BITMAP
0700
0F80
0F80
0F80
0F80
0700
0000
0000
0000
0000
0000
0000
0000
0000
0000
0000
0000
0000
0000
0000
0000
0000
7800
F800
F800
F800
7800
ENDCHAR
STARTCHAR 003B
ENCODING 59
SWIDTH 200 0
DWIDTH 10 0
BBX 12 34 -2 -7
BITMAP
00C0
01E0
03F0
03F0
01E0
00C0
0000
0000
0000
0000
0000
0000
0000
0000
0000
0000
0000
0000
0000
0000
0000
0000
0F00
1F00
1F00
1E00
1E00
3E00
3E00
7C00
7800
F800
F000
6000
ENDCHAR
STARTCHAR 003C
ENCODING 60
SWIDTH 480 0
DWIDTH 24 0
BBX 21 22 2 5
BITMAP
000008
000038
0000F8
0007F8
001FF0
007FE0
01FF80
0FFC00
3FF000
FF8000
FE0000
F80000
FE0000
7F8000
1FE000
07FC00
01FF00
007FC0
003FC0
000FC0
0003C0
0000C0
ENDCHAR
STARTCHAR 003D
ENCODING 61
SWIDTH 520 0
DWIDTH 26 0
BBX 22 14 3 10
BITMAP
3FFFFC
3FFFFC
3FFFFC
3FFFF8
000000
000000
000000
000000
000000
000000
FFFFF0
FFFFF0
FFFFF0
FFFFF0
ENDCHAR
STARTCHAR 003E
ENCODING 62
SWIDTH 500 0
DWIDTH 25 0
BBX 22 22 2 5
BITMAP
100000
1C0000
1F0000
1FC000
1FF000
0FFC00
01FF00
007FC0
001FF0
0003FC
0000FC
0000FC
0007F8
001FF0
00FFC0
07FF00
1FF800
FFE000
FF0000
FC0000
F00000
800000
ENDCHAR
STARTCHAR 003F
ENCODING 63
SWIDTH 440 0
DWIDTH 22 0
BBX 19 36 4 0
BITMAP
01FC00
07FF00
1FFF80
3FFFC0
7F07C0
7C03E0
7803E0
F801E0
F801E0
0003E0
0003E0
0003E0
0007C0
000FC0
001F80
003F00
007E00
00FC00
01F800
03F000
03E000
07C000
078000
0F8000
0F8000
0F0000
000000
000000
000000
000000
000000
1C0000
3E0000
3E0000
3E0000
1E0000
ENDCHAR
STARTCHAR 0040
ENCODING 64
SWIDTH 860 0
DWIDTH 43 0
BBX 39 46 2 -11
BITMAP
00000FF000
0000FFFE00
0003FFFF80
000FF83FC0
001F8003E0
003E0000F0
007C000078
00F0000038
01E000003C
03C000001C
07C000001C
07801FC00E
0F007FF00E
0E00FFF80E
1E01F0780E
1C03E0780E
3C03C0780E
380780700E
780F00F00E
780F00F00E
700E00F00E
701E00E00E
F01E01E00E
F01E01E00E
F03C01E01C
E03C01C01C
E03C03C01C
E03C03C038
E03C07C038
E03C07C070
E03C0FC0F0
E03E1FC1E0
E01FF9E3C0
F01FF1FF80
F00FE0FF00
7001001800
7800000000
7800000000
3C00000000
3C00000000
1E00000000
0F80020000
07E01F0000
03FFFF0000
00FFFE0000
001FF00000
ENDCHAR
STARTCHAR 0041
ENCODING 65
SWIDTH 620 0
DWIDTH 31 0
BBX 30 36 -2 0
BITMAP
00001E00
00001F00
00003F00
00003F00
00007F00
00007F00
0000F780
0000F780
0001E780
0003E780
0003C780
0007C7C0
000783C0
000F83C0
000F03C0
001F03C0
001E03E0
003E01E0
003C01E0
007C01E0
00F801E0
00F801F0
01F001F0
01FFFFF0
03FFFFF0
03FFFFF0
07FFFFF8
078000F8
0F800078
0F000078
1F000078
3E00007C
3E00007C
7C00007C
7C00003C
F800003C
ENDCHAR
STARTCHAR 0042
ENCODING 66
SWIDTH 600 0
DWIDTH 30 0
BBX 27 36 2 0
BITMAP
03FF8000
07FFFC00
07FFFF00
07FFFF80
07C03FC0
078007C0
078007C0
0F8003E0
0F8003E0
0F8003E0
0F0003C0
0F0007C0
0F0007C0
1F000F80
1F001F80
1F01FF00
1FFFFC00
1FFFF000
3FFFFC00
3E00FE00
3E003F00
3E001F00
3C000F00
3C000F80
7C000F80
7C000F80
7C000F80
7C000F00
78001F00
78003F00
F8007E00
F800FC00
FFFFFC00
FFFFF000
FFFFE000
FFFF0000
ENDCHAR
STARTCHAR 0043
ENCODING 67
SWIDTH 620 0
DWIDTH 31 0
BBX 28 37 3 -1
BITMAP
0007F800
003FFE00
00FFFF00
01FFFF80
03F80FC0
07E007E0
0FC003E0
0F8001E0
1F0001F0
1F0001F0
3E0001F0
3E0000F0
3C000000
7C000000
7C000000
78000000
78000000
F8000000
F8000000
F8000000
F8000000
F8000000
F0000000
F0000000
F0000000
F8000780
F8000F80
F8000F80
78001F00
7C001F00
3C003E00
3F00FE00
1FC3FC00
0FFFF800
07FFE000
03FF8000
00100000
ENDCHAR
STARTCHAR 0044
ENCODING 68
SWIDTH 620 0
DWIDTH 31 0
BBX 28 36 2 0
BITMAP
03FF0000
07FFF000
07FFFC00
07FFFE00
07C0FF00
07801F80
078007C0
0F8003C0
0F8003E0
0F8001E0
0F0001E0
0F0001F0
0F0001F0
1F0001F0
1F0001F0
1F0001F0
1E0001F0
1E0001F0
3E0001E0
3E0001E0
3E0001E0
3E0003E0
3C0003E0
3C0003C0
7C0007C0
7C0007C0
7C000F80
7C001F80
78003F00
78007E00
F800FC00
F803F800
FFFFF000
FFFFE000
FFFF8000
FFF80000
ENDCHAR
STARTCHAR 0045
ENCODING 69
SWIDTH 540 0
DWIDTH 27 0
BBX 27 36 2 0
BITMAP
03FFFFE0
07FFFFE0
07FFFFE0
07FFFFE0
07C00000
07800000
07800000
0F800000
0F800000
0F800000
0F000000
0F000000
0F000000
1F000000
1F000000
1F000000
1FFFFC00
1FFFFC00
3FFFFC00
3FFFFC00
3E000000
3E000000
3C000000
3C000000
7C000000
7C000000
7C000000
7C000000
78000000
78000000
F8000000
F8000000
FFFFFC00
FFFFFC00
FFFFFC00
FFFFF800
ENDCHAR
STARTCHAR 0046
ENCODING 70
SWIDTH 520 0
DWIDTH 26 0
BBX 27 36 2 0
BITMAP
03FFFFE0
07FFFFE0
07FFFFE0
07FFFFC0
07C00000
07800000
07800000
0F800000
0F800000
0F800000
0F000000
0F000000
0F000000
1F000000
1F000000
1F000000
1FFFFC00
1FFFFC00
3FFFFC00
3FFFF800
3E000000
3E000000
3C000000
3C000000
7C000000
7C000000
7C000000
7C000000
78000000
78000000
F8000000
F8000000
F8000000
F8000000
F0000000
F0000000
ENDCHAR
STARTCHAR 0047
ENCODING 71
SWIDTH 660 0
DWIDTH 33 0
BBX 28 37 3 -1
BITMAP
0007F800
003FFE00
00FFFF80
01FFFFC0
03F80FC0
07E003E0
0FC003E0
0F8001F0
1F0001F0
1F0000F0
3E0000F0
3E000000
3C000000
7C000000
7C000000
7C000000
78000000
78000000
F803FFE0
F803FFE0
F803FFE0
F803FFE0
F80003C0
F80003C0
F80007C0
F80007C0
F80007C0
780007C0
7C000780
7C000F80
3E000F80
3F003F80
1FE1FF00
0FFFFE00
07FFF800
01FFE000
00080000
ENDCHAR
STARTCHAR 0048
ENCODING 72
SWIDTH 680 0
DWIDTH 34 0
BBX 32 36 2 0
BITMAP
03C0000F
07C0001F
07C0001F
07C0001F
07C0001E
0780001E
0780001E
0F80003E
0F80003E
0F80003E
0F00003C
0F00003C
0F00007C
1F00007C
1F00007C
1F00007C
1FFFFFF8
1FFFFFF8
3FFFFFF8
3FFFFFF8
3E0000F8
3E0000F8
3C0000F0
3C0000F0
7C0001F0
7C0001F0
7C0001F0
7C0001E0
780001E0
780001E0
F80003E0
F80003E0
F80003E0
F80003C0
F00003C0
F00007C0
ENDCHAR
STARTCHAR 0049
ENCODING 73
SWIDTH 260 0
DWIDTH 13 0
BBX 11 36 2 0
BITMAP
03E0
03C0
03C0
07C0
07C0
07C0
07C0
0780
0780
0F80
0F80
0F80
0F00
0F00
0F00
1F00
1F00
1F00
1E00
1E00
3E00
3E00
3E00
3E00
3C00
3C00
7C00
7C00
7C00
7C00
7800
7800
F800
F800
F800
F000
ENDCHAR
STARTCHAR 004A
ENCODING 74
SWIDTH 520 0
DWIDTH 26 0
BBX 27 37 0 -1
BITMAP
000003E0
000003C0
000003C0
000003C0
000007C0
000007C0
000007C0
00000780
00000780
00000780
00000F80
00000F80
00000F80
00000F00
00000F00
00000F00
00001F00
00001F00
00001F00
00001E00
00001E00
00003E00
00003E00
00003E00
00003E00
00003C00
F8003C00
F8007C00
F8007C00
7800F800
7C00F800
7E03F000
3F8FE000
3FFFC000
0FFF8000
07FE0000
00200000
ENDCHAR
STARTCHAR 004B
ENCODING 75
SWIDTH 600 0
DWIDTH 30 0
BBX 31 36 2 0
BITMAP
03C0007E
07C000FC
07C001F8
07C003F0
07C007E0
07800FC0
07801F80
0F803F00
0F807E00
0F80FC00
0F01F800
0F03F000
0F07E000
1F0FC000
1F1F8000
1F3F0000
1E7E0000
1FFE0000
3FFF0000
3FFF0000
3FCF8000
3F8FC000
3F07C000
3E03E000
7C03E000
7C01F000
7C01F000
7C00F800
7800FC00
78007C00
F8003E00
F8003E00
F8001F00
F8001F00
F0000F80
F0000F80
ENDCHAR
STARTCHAR 004C
ENCODING 76
SWIDTH 520 0
DWIDTH 26 0
BBX 21 36 2 0
BITMAP
03C000
07C000
07C000
07C000
07C000
078000
078000
0F8000
0F8000
0F8000
0F0000
0F0000
0F0000
1F0000
1F0000
1F0000
1E0000
1E0000
3E0000
3E0000
3E0000
3E0000
3C0000
3C0000
7C0000
7C0000
7C0000
7C0000
780000
780000
F80000
F80000
FFFFF8
FFFFF8
FFFFF8
FFFFF0
ENDCHAR
STARTCHAR 004D
ENCODING 77
SWIDTH 840 0
DWIDTH 42 0
BBX 40 36 2 0
BITMAP
03E000003F
07F000007F
07F000007F
07F00000FE
07F00000FE
07F80001FE
07F80001FE
0FF80003FE
0F780007FE
0F780007FC
0F7C000FBC
0F3C000F3C
0F3C001F3C
1F3C001E7C
1F3C003E7C
1E3E007C78
1E1E007C78
1E1E00F878
3E1E00F0F8
3E1F01F0F8
3E0F01E0F0
3E0F03E0F0
3C0F03C0F0
3C0F07C1F0
7C0F8F81F0
7C078F01F0
7C079F01E0
7C079E01E0
7807BE01E0
7803FC03E0
F803FC03E0
F803F803E0
F803F003C0
F003F003C0
F001E007C0
F001E007C0
ENDCHAR
STARTCHAR 004E
ENCODING 78
SWIDTH 680 0
DWIDTH 34 0
BBX 32 36 2 0
BITMAP
03C0000F
07E0001F
07E0001F
07E0001F
07F0001E
07F0001E
07F8001E
0FF8003E
0FFC003E
0FFC003E
0F3E003C
0F3E003C
0F1F003C
1F1F007C
1F0F807C
1F0F807C
1E078078
1E07C078
3E07C0F8
3E03E0F8
3E03E0F8
3E01F0F8
3C01F0F0
3C00F8F0
7C00F9F0
7C007DF0
7C007DF0
7C003FE0
78003FE0
78001FE0
F8001FE0
F8001FE0
F8000FE0
F8000FC0
F00007C0
F00007C0
ENDCHAR
STARTCHAR 004F
ENCODING 79
SWIDTH 660 0
DWIDTH 33 0
BBX 28 37 3 -1
BITMAP
0007F800
003FFE00
007FFF00
01FFFF80
03F80FC0
07E007E0
07C003E0
0F8001E0
1F0001F0
1F0001F0
3E0000F0
3E0000F0
3C0000F0
7C0000F0
7C0000F0
780000F0
780000F0
F80000F0
F80001F0
F80001F0
F80001F0
F80001F0
F80001E0
F80003E0
F80003E0
F80003C0
F80007C0
78000780
7C000F80
7C001F00
3E003E00
3F00FE00
1FE7FC00
0FFFF800
07FFE000
01FF8000
00100000
ENDCHAR
STARTCHAR 0050
ENCODING 80
SWIDTH 600 0
DWIDTH 30 0
BBX 29 36 2 0
BITMAP
03FFC000
07FFFE00
07FFFF80
07FFFFC0
07C01FE0
078003F0
078001F0
0F8001F0
0F8000F0
0F8000F8
0F0000F8
0F0000F8
0F0000F0
1F0001F0
1F0001F0
1F0003E0
1E0007E0
1E001FC0
3FFFFF80
3FFFFF00
3FFFFC00
3FFFE000
3C000000
3C000000
7C000000
7C000000
7C000000
7C000000
78000000
78000000
F8000000
F8000000
F8000000
F8000000
F0000000
F0000000
ENDCHAR
STARTCHAR 0051
ENCODING 81
SWIDTH 660 0
DWIDTH 33 0
BBX 28 42 3 -6
BITMAP
0007F000
003FFE00
00FFFF00
01FFFF80
03F81FC0
07E007C0
0FC003E0
0F8001E0
1F0001F0
1E0001F0
3E0001F0
3C0000F0
7C0000F0
7C0000F0
780000F0
780000F0
F80000F0
F80001F0
F80001F0
F80001F0
F00001F0
F00001E0
F00003E0
F00003E0
F00003C0
F80007C0
F80007C0
F8000F80
78000F80
7C001F00
7E003E00
3F00FE00
1FE7FC00
0FFFF000
07FFE000
03FFF000
0011F800
0000FE00
00007F00
00003F00
00001E00
00000C00
ENDCHAR
STARTCHAR 0052
ENCODING 82
SWIDTH 580 0
DWIDTH 29 0
BBX 27 36 2 0
BITMAP
03FF8000
07FFFC00
07FFFF00
07FFFF80
07C03FC0
078007C0
078003E0
0F8003E0
0F8001E0
0F8001E0
0F0001E0
0F0001E0
0F0003E0
1F0003E0
1F0007C0
1F000FC0
1E001F80
1E00FF00
3FFFFE00
3FFFFC00
3FFFE000
3FFFE000
3C01F000
3C01F000
7C00F000
7C00F800
7C00F800
7C007C00
78007C00
78007C00
F8003E00
F8003E00
F8001E00
F8001F00
F0001F00
F0000F80
ENDCHAR
STARTCHAR 0053
ENCODING 83
SWIDTH 560 0
DWIDTH 28 0
BBX 28 37 1 -1
BITMAP
0007F800
003FFE00
00FFFF00
01FFFF80
03F80FC0
07E003E0
07C003E0
0F8001F0
0F8001F0
0F8001F0
0F8001F0
0F800000
0F800000
07C00000
07F00000
03FC0000
01FF8000
00FFE000
003FF800
000FFC00
0001FE00
00007F00
00001F00
00000F80
00000F80
00000F80
F8000F80
F8000F80
F8000F80
78001F00
7C001F00
3E007E00
3FE3FE00
1FFFF800
07FFF000
01FFC000
00080000
ENDCHAR
STARTCHAR 0054
ENCODING 84
SWIDTH 560 0
DWIDTH 28 0
BBX 27 36 4 0
BITMAP
7FFFFFE0
7FFFFFE0
FFFFFFE0
FFFFFFE0
001F0000
001F0000
001E0000
001E0000
003E0000
003E0000
003E0000
003C0000
003C0000
003C0000
007C0000
007C0000
007C0000
00780000
00780000
00780000
00F80000
00F80000
00F80000
00F00000
00F00000
00F00000
01F00000
01F00000
01F00000
01E00000
01E00000
03E00000
03E00000
03E00000
03E00000
03C00000
ENDCHAR
STARTCHAR 0055
ENCODING 85
SWIDTH 620 0
DWIDTH 31 0
BBX 29 37 3 -1
BITMAP
0F0000F8
0F0000F8
0F0000F8
1F0000F0
1F0000F0
1F0001F0
1E0001F0
1E0001F0
1E0001F0
3E0001E0
3E0001E0
3E0003E0
3C0003E0
3C0003E0
3C0003E0
7C0003C0
7C0003C0
7C0007C0
780007C0
780007C0
F80007C0
F8000780
F8000780
F8000F80
F0000F80
F0000F80
F0000F00
F0001F00
F8001F00
F8003E00
7C007E00
7E00FC00
3FC7F800
1FFFF000
0FFFC000
03FF0000
00300000
ENDCHAR
STARTCHAR 0056
ENCODING 86
SWIDTH 600 0
DWIDTH 30 0
BBX 30 36 4 0
BITMAP
F80000FC
F80000F8
F80001F8
780001F0
7C0003F0
7C0003E0
7C0007E0
7C0007C0
3C000F80
3C000F80
3E001F00
3E001F00
3E001E00
1E003E00
1E003C00
1F007C00
1F007800
1F00F800
0F00F000
0F01F000
0F01E000
0F83E000
0F83C000
0787C000
07878000
078F8000
078F0000
07DF0000
03DE0000
03FE0000
03FC0000
03FC0000
01F80000
01F80000
01F00000
01F00000
ENDCHAR
STARTCHAR 0057
ENCODING 87
SWIDTH 860 0
DWIDTH 43 0
BBX 40 36 5 0
BITMAP
F0003C000F
F0003C001F
F0007C001F
F0007C003E
F800FC003E
F800FE003C
F801FE007C
F801FE007C
F801FE0078
F803DE00F8
7803DE00F0
7807DE01F0
78079E01F0
780F8E01E0
780F0F03E0
780F0F03C0
781E0F03C0
781E0F07C0
783C0F0780
7C3C0F0F80
7C7C0F0F80
7C78070F00
7C78071F00
3CF0079E00
3CF0079E00
3DE007BE00
3DE007BC00
3DE007BC00
3FC007F800
3FC007F800
3F8003F800
3F8003F000
3F0003F000
3F0003E000
3E0003E000
1E0003E000
ENDCHAR
STARTCHAR 0058
ENCODING 88
SWIDTH 600 0
DWIDTH 30 0
BBX 33 36 -1 0
BITMAP
03E0000F80
01F0001F80
01F0003F00
01F0007E00
00F8007C00
00F800F800
007C01F800
007C03F000
003E07E000
003E07C000
001F0FC000
001F1F8000
000FBF0000
000FBE0000
0007FC0000
0007FC0000
0007F80000
0003F00000
0003F00000
0007F00000
000FF80000
001FF80000
003FF80000
003E7C0000
007C7C0000
00FC3E0000
01F83E0000
01F01F0000
03E01F0000
07E00F8000
0FC00F8000
1F8007C000
1F0007C000
3F0007E000
7E0003E000
FC0003F000
ENDCHAR
STARTCHAR 0059
ENCODING 89
SWIDTH 580 0
DWIDTH 29 0
BBX 28 36 4 0
BITMAP
F80001F0
F80003F0
7C0003E0
7C0007C0
3C000FC0
3E000F80
3E001F00
1E003F00
1F003E00
1F007C00
0F00F800
0F80F800
0F81F000
0783E000
07C7E000
03C7C000
03CF8000
03FF0000
01FF0000
01FE0000
01FC0000
00FC0000
00F80000
00F00000
00F00000
00F00000
01F00000
01F00000
01F00000
01E00000
01E00000
03E00000
03E00000
03E00000
03E00000
03C00000
ENDCHAR
STARTCHAR 005A
ENCODING 90
SWIDTH 580 0
DWIDTH 29 0
BBX 30 36 0 0
BITMAP
03FFFFFC
03FFFFFC
03FFFFFC
07FFFFFC
000000F8
000001F0
000003E0
000007E0
00000FC0
00001F80
00001F00
00003E00
00007C00
0000F800
0001F800
0003F000
0007E000
0007C000
000F8000
001F0000
003F0000
007E0000
00FC0000
00F80000
01F00000
03E00000
07E00000
0FC00000
1F800000
3F000000
3E000000
7C000000
FFFFFF80
FFFFFF80
FFFFFF80
FFFFFF80
ENDCHAR
STARTCHAR 005B
ENCODING 91
SWIDTH 240 0
DWIDTH 12 0
BBX 16 49 0 -8
BITMAP
01FF
01FF
01FF
01FF
01E0
01E0
01E0
03E0
03E0
03E0
03C0
03C0
03C0
07C0
07C0
07C0
0780
0780
0780
0780
0F80
0F80
0F80
0F00
0F00
0F00
1F00
1F00
1F00
1E00
1E00
1E00
3E00
3E00
3E00
3C00
3C00
3C00
3C00
7C00
7C00
7C00
7800
7800
7800
FF80
FF80
FF80
FF80
ENDCHAR
STARTCHAR 005C
ENCODING 92
SWIDTH 380 0
DWIDTH 19 0
BBX 11 39 5 -3
BITMAP
F000
F000
F000
F000
F000
7800
7800
7800
7800
7800
3C00
3C00
3C00
3C00
3C00
1E00
1E00
1E00
1E00
1E00
0F00
0F00
0F00
0F00
0F00
0780
0780
0780
0780
0780
03C0
03C0
03C0
03C0
03C0
01E0
01E0
01E0
01E0
ENDCHAR
STARTCHAR 005D
ENCODING 93
SWIDTH 240 0
DWIDTH 12 0
BBX 16 49 -3 -8
BITMAP
01FF
01FF
01FF
01FF
001F
001E
001E
001E
001E
003E
003E
003E
003C
003C
003C
007C
007C
007C
0078
0078
0078
0078
00F8
00F8
00F8
00F0
00F0
00F0
01F0
01F0
01F0
01E0
01E0
01E0
03E0
03E0
03E0
03C0
03C0
03C0
03C0
07C0
07C0
07C0
0780
FF80
FF80
FF80
FF80
ENDCHAR
STARTCHAR 005E
ENCODING 94
SWIDTH 400 0
DWIDTH 20 0
BBX 17 18 2 18
BITMAP
003800
007800
007C00
00FC00
00FC00
01FC00
01FE00
03DE00
07DE00
079E00
0F8E00
0F0F00
1E0F00
1E0F00
3C0F00
7C0780
780780
F80780
ENDCHAR
STARTCHAR 005F
ENCODING 95
SWIDTH 420 0
DWIDTH 21 0
BBX 22 4 -3 -4
BITMAP
FFFFFC
FFFFFC
FFFFFC
FFFFFC
ENDCHAR
STARTCHAR 0060
ENCODING 96
SWIDTH 280 0
DWIDTH 14 0
BBX 8 8 5 30
BITMAP
F8
7C
7C
3E
1E
0F
0F
07
ENDCHAR
STARTCHAR 0061
ENCODING 97
SWIDTH 520 0
DWIDTH 26 0
BBX 22 28 1 -1
BITMAP
001F80
00FFE0
03FFF0
07FFF8
0FC0FC
0F807C
1F003C
1E003C
00003C
00003C
00003C
00FFFC
07FFFC
0FFFFC
1FC078
3E0078
7C0078
780078
F800F8
F800F8
F800F0
F801F0
7C07F0
7F3FF0
3FFFF0
1FFCF0
0FF8F0
008000
ENDCHAR
STARTCHAR 0062
ENCODING 98
SWIDTH 540 0
DWIDTH 27 0
BBX 24 39 1 -1
BITMAP
03E000
03E000
03C000
03C000
03C000
07C000
07C000
07C000
078000
078000
078000
0F8FC0
0FBFF0
0F7FF8
0FFFFC
0FE07E
1FC03E
1F001E
1F001F
1E001F
1E001F
1E001F
3E001F
3E001F
3E001F
3C001F
3C001E
3C001E
7C003E
7C003E
7C003C
7C007C
7E00F8
7F01F8
FFC7F0
F3FFE0
F3FFC0
F0FF80
000800
ENDCHAR
STARTCHAR 0063
ENCODING 99
SWIDTH 500 0
DWIDTH 25 0
BBX 22 27 2 -1
BITMAP
003F00
01FFC0
03FFE0
0FFFF0
0FC1F8
1F0078
3E007C
3C003C
7C003C
78003C
780000
F80000
F80000
F00000
F00000
F00000
F00000
F00000
F00000
F800F8
F800F0
7801F0
7C03E0
3F0FE0
1FFFC0
0FFF00
07FC00
ENDCHAR
STARTCHAR 0064
ENCODING 100
SWIDTH 540 0
DWIDTH 27 0
BBX 26 39 2 -1
BITMAP
000007C0
000007C0
000007C0
00000780
00000780
00000780
00000F80
00000F80
00000F80
00000F00
00000F00
007E0F00
01FF9F00
07FFDF00
0FFFFE00
1FC1FE00
1F007E00
3E003E00
3E003E00
7C003E00
7C003C00
78003C00
F8003C00
F8007C00
F8007C00
F0007C00
F0007800
F0007800
F0007800
F000F800
F800F800
F800F800
7801F000
7C03F000
7F1FF000
3FFFF000
1FFFF000
0FF9E000
00800000
ENDCHAR
STARTCHAR 0065
ENCODING 101
SWIDTH 500 0
DWIDTH 25 0
BBX 22 27 2 -1
BITMAP
003F00
01FFC0
03FFE0
07FFF0
0F81F8
1F00F8
3E0078
3C007C
7C003C
78003C
78003C
FFFFFC
FFFFFC
FFFFFC
FFFFFC
F00000
F00000
F00000
F80000
F80000
F80040
7C00E0
7E01F0
3F87E0
1FFFC0
0FFF80
07FE00
ENDCHAR
STARTCHAR 0066
ENCODING 102
SWIDTH 320 0
DWIDTH 16 0
BBX 18 38 3 0
BITMAP
001FC0
007FC0
00FF80
01FF80
03F000
03E000
07C000
07C000
078000
078000
078000
0F8000
FFFC00
FFFC00
FFFC00
0F0000
0F0000
1F0000
1F0000
1F0000
1E0000
1E0000
1E0000
3E0000
3E0000
3E0000
3C0000
3C0000
3C0000
7C0000
7C0000
780000
780000
780000
780000
F80000
F80000
F00000
ENDCHAR
STARTCHAR 0067
ENCODING 103
SWIDTH 540 0
DWIDTH 27 0
BBX 26 37 0 -11
BITMAP
001F8000
007FE3C0
01FFF7C0
03FFFFC0
07F07F80
07C01F80
0F800F80
0F800F80
1F000F80
1F000F00
1E000F00
3E000F00
3E001F00
3E001F00
3C001F00
3C001E00
3C001E00
3C001E00
3C003E00
3E003E00
3E003E00
1E007C00
1F00FC00
1FC7FC00
0FFFFC00
07FFFC00
03FE7C00
00207800
00007800
0000F800
2000F000
7001F000
F803E000
7E1FC000
3FFFC000
1FFF0000
07FC0000
ENDCHAR
STARTCHAR 0068
ENCODING 104
SWIDTH 520 0
DWIDTH 26 0
BBX 23 38 1 0
BITMAP
03E000
03E000
03C000
03C000
03C000
07C000
07C000
07C000
078000
078000
078000
0F87E0
0FBFF0
0F7FF8
0FFFFC
0FE07C
0FC03E
1F803E
1F003E
1E003E
1E003E
1E003E
3E003E
3E003C
3E003C
3C003C
3C007C
3C007C
7C007C
7C0078
7C0078
780078
7800F8
7800F8
F800F8
F800F0
F000F0
F000F0
ENDCHAR
STARTCHAR 0069
ENCODING 105
SWIDTH 220 0
DWIDTH 11 0
BBX 11 36 1 0
BITMAP
01C0
03E0
03E0
03E0
03C0
0000
0000
0000
0000
0000
0780
0F80
0F80
0F00
0F00
0F00
0F00
1F00
1F00
1E00
1E00
1E00
3E00
3E00
3E00
3C00
3C00
3C00
7C00
7C00
7C00
7800
7800
7800
F800
F800
ENDCHAR
STARTCHAR 006A
ENCODING 106
SWIDTH 220 0
DWIDTH 11 0
BBX 17 47 -6 -11
BITMAP
000780
000F80
000F80
000F80
000780
000000
000000
000000
000000
000000
001F00
001F00
001E00
001E00
001E00
003E00
003E00
003E00
003C00
003C00
003C00
007C00
007C00
007C00
007800
007800
007800
00F800
00F800
00F800
00F000
00F000
00F000
01F000
01F000
01F000
01E000
01E000
01E000
03E000
03E000
03C000
0FC000
7F8000
FF8000
FF0000
7C0000
ENDCHAR
STARTCHAR 006B
ENCODING 107
SWIDTH 480 0
DWIDTH 24 0
BBX 24 38 1 0
BITMAP
03E000
03E000
03C000
03C000
03C000
07C000
07C000
07C000
078000
078000
078000
0F8000
0F803F
0F807E
0F00FC
0F01F0
0F03E0
1F0FC0
1F1F80
1E3F00
1E7E00
1EFC00
3FF800
3FF800
3FF800
3FFC00
3F3E00
3E3E00
7C1F00
7C1F00
7C0F80
780F80
7807C0
7803C0
F803E0
F801F0
F001F0
F000F8
ENDCHAR
STARTCHAR 006C
ENCODING 108
SWIDTH 220 0
DWIDTH 11 0
BBX 11 38 1 0
BITMAP
01E0
03E0
03E0
03E0
03C0
03C0
03C0
07C0
07C0
07C0
0780
0780
0780
0F80
0F80
0F00
0F00
0F00
0F00
1F00
1F00
1E00
1E00
1E00
3E00
3E00
3E00
3C00
3C00
3C00
7C00
7C00
7C00
7800
7800
7800
F800
F800
ENDCHAR
STARTCHAR 006D
ENCODING 109
SWIDTH 840 0
DWIDTH 42 0
BBX 39 27 1 0
BITMAP
000FC00FC0
0F3FF03FF0
0F7FF8FFF8
0FFFFDFFFC
0FE07FE0FC
1F803F803C
1F003F003E
1F003F003E
1E003E003E
1E003E003E
1E003E003C
3E003E003C
3E003C003C
3E003C003C
3C003C007C
3C007C007C
3C007C0078
7C007C0078
7C00780078
7800780078
78007800F8
7800F800F8
7800F800F0
F800F800F0
F800F000F0
F000F000F0
F000F001F0
ENDCHAR
STARTCHAR 006E
ENCODING 110
SWIDTH 520 0
DWIDTH 26 0
BBX 23 27 1 0
BITMAP
0007E0
0F3FF0
0F7FF8
0FFFFC
0FE07C
0FC03E
1F803E
1F003E
1E003E
1E003E
1E003E
3E003E
3E003C
3E003C
3C003C
3C007C
3C007C
7C007C
7C0078
7C0078
780078
7800F8
7800F8
F800F8
F800F0
F000F0
F000F0
ENDCHAR
STARTCHAR 006F
ENCODING 111
SWIDTH 540 0
DWIDTH 27 0
BBX 23 28 2 -1
BITMAP
003F00
01FFC0
03FFF0
07FFF8
0FC0F8
1F007C
3E003C
3E003E
7C001E
7C001E
78001E
F8001E
F8001E
F0001E
F0001E
F0001E
F0003E
F0003E
F0003C
F8007C
7800F8
7C00F8
7E03F0
3F0FE0
1FFFC0
0FFF80
07FE00
002000
ENDCHAR
STARTCHAR 0070
ENCODING 112
SWIDTH 540 0
DWIDTH 27 0
BBX 26 37 -1 -10
BITMAP
0003F000
03CFFC00
03DFFE00
03FFFF00
03F81F80
07E00F80
07C00F80
07C007C0
078007C0
078007C0
078007C0
0F8007C0
0F8007C0
0F8007C0
0F0007C0
0F000780
0F000780
1F000F80
1F000F80
1F001F00
1F001F00
1F003E00
1F807E00
3FE1FC00
3FFFF800
3CFFF000
3C3FE000
3C020000
7C000000
7C000000
7C000000
78000000
78000000
78000000
F8000000
F8000000
F8000000
ENDCHAR
STARTCHAR 0071
ENCODING 113
SWIDTH 540 0
DWIDTH 27 0
BBX 24 37 2 -10
BITMAP
007E00
01FF8F
07FFDF
0FFFFE
1FC0FE
1F007E
3E003E
3E003E
7C003E
7C003C
78003C
F8003C
F8007C
F8007C
F0007C
F00078
F00078
F00078
F000F8
F800F8
F800F8
7801F0
7C03F0
7F0FF0
3FFFF0
1FFFF0
0FF9E0
00C1E0
0001E0
0003E0
0003E0
0003E0
0003C0
0003C0
0003C0
0007C0
0007C0
ENDCHAR
STARTCHAR 0072
ENCODING 114
SWIDTH 320 0
DWIDTH 16 0
BBX 17 27 1 0
BITMAP
001F80
0FBF80
0F7F00
0FFF00
0FF900
0FC000
1F8000
1F0000
1E0000
1E0000
1E0000
3E0000
3E0000
3E0000
3C0000
3C0000
3C0000
7C0000
7C0000
7C0000
780000
780000
780000
F80000
F80000
F00000
F00000
ENDCHAR
STARTCHAR 0073
ENCODING 115
SWIDTH 500 0
DWIDTH 25 0
BBX 22 27 1 -1
BITMAP
003F00
01FFC0
03FFF0
07FFF8
0FC0F8
1F007C
1F007C
1E003C
1E0000
1F0000
1F8000
0FE000
07FE00
03FF80
00FFC0
001FE0
0003F0
0000F0
0000F0
F800F0
F800F0
7801F0
7C03F0
7F0FE0
3FFFC0
1FFF80
07FE00
ENDCHAR
STARTCHAR 0074
ENCODING 116
SWIDTH 300 0
DWIDTH 15 0
BBX 14 33 2 0
BITMAP
03C0
03C0
03C0
07C0
07C0
07C0
0780
FFFC
FFFC
FFFC
0F80
0F80
0F00
0F00
0F00
1F00
1F00
1F00
1E00
1E00
1E00
3E00
3E00
3E00
3C00
3C00
3C00
3C00
3C00
3F40
3FC0
1FC0
0FC0
ENDCHAR
STARTCHAR 0075
ENCODING 117
SWIDTH 520 0
DWIDTH 26 0
BBX 23 27 2 -1
BITMAP
1F001E
1E001E
1E001E
1E003E
3E003E
3E003C
3E003C
3C003C
3C007C
3C007C
7C007C
7C0078
7C0078
780078
7800F8
7800F8
F800F8
F800F0
F800F0
F801F0
7803F0
7C07F0
7E1FF0
3FFFE0
3FFDE0
0FF9E0
018000
ENDCHAR
STARTCHAR 0076
ENCODING 118
SWIDTH 460 0
DWIDTH 23 0
BBX 21 26 3 0
BITMAP
F000F8
F000F8
F800F0
F801F0
7801E0
7803E0
7803C0
7807C0
7C0780
3C0F80
3C0F00
3C1F00
3C1E00
3C3E00
1E3C00
1E7C00
1E7800
1EF800
1EF000
0EF000
0FE000
0FC000
0FC000
0F8000
078000
070000
ENDCHAR
STARTCHAR 0077
ENCODING 119
SWIDTH 720 0
DWIDTH 36 0
BBX 34 26 3 0
BITMAP
F001E003C0
F803E007C0
F803E00780
7807E00F80
7807F00F00
7807F01F00
780FF01E00
780EF01E00
781EF03C00
781C703C00
783C707800
783C707800
387878F800
3C7878F000
3CF078F000
3CF079E000
3DE039E000
3DE03BC000
3FC03BC000
3FC03B8000
3F803F8000
1F803F0000
1F003F0000
1F001F0000
1E001E0000
1E001E0000
ENDCHAR
STARTCHAR 0078
ENCODING 120
SWIDTH 480 0
DWIDTH 24 0
BBX 25 26 -1 0
BITMAP
07800F80
07C01F00
03C03E00
03E07E00
01E07C00
01F0F800
00F1F000
00F3E000
007BE000
007FC000
003F8000
003F0000
003E0000
003E0000
007F0000
00FF0000
01F78000
03E78000
03E7C000
07C3C000
0F83E000
1F01E000
3F01F000
3E00F000
7C00F800
F8007800
ENDCHAR
STARTCHAR 0079
ENCODING 121
SWIDTH 440 0
DWIDTH 22 0
BBX 26 37 -2 -11
BITMAP
078007C0
07C007C0
07C00F80
07C00F80
03C01F00
03C01F00
03C03E00
03C03E00
03E07C00
03E07800
01E0F800
01E0F000
01E1F000
01E1E000
01F1E000
01F3C000
00F3C000
00F78000
00F78000
00FF0000
00FF0000
007E0000
007E0000
007C0000
007C0000
00780000
00780000
00F00000
00F00000
01E00000
03E00000
07C00000
0FC00000
FF800000
FF000000
FE000000
F0000000
ENDCHAR
STARTCHAR 007A
ENCODING 122
SWIDTH 480 0
DWIDTH 24 0
BBX 24 26 0 0
BITMAP
0FFFFF
0FFFFE
0FFFFE
00007E
0000FC
0001F8
0001F0
0003E0
0007C0
000F80
001F00
003F00
007E00
00FC00
01F800
03F000
03E000
07C000
0F8000
1F0000
3E0000
7E0000
FFFFF8
FFFFF0
FFFFF0
FFFFF0
ENDCHAR
STARTCHAR 007B
ENCODING 123
SWIDTH 320 0
DWIDTH 16 0
BBX 18 48 1 -9
BITMAP
0000C0
0003C0
000FC0
001F80
003E00
003C00
007C00
00F800
00F800
00F000
00F000
01F000
01F000
01F000
01F000
01E000
01E000
01E000
03E000
03E000
07C000
0F8000
7F0000
7E0000
FC0000
FE0000
1F0000
0F0000
0F8000
0F8000
0F8000
0F8000
0F8000
0F8000
0F0000
0F0000
0F0000
0F0000
0F0000
0F0000
0F0000
0F0000
0F8000
078000
03C000
03F000
00E000
002000
ENDCHAR
STARTCHAR 007C
ENCODING 124
SWIDTH 220 0
DWIDTH 11 0
BBX 10 43 1 -7
BITMAP
03C0
03C0
03C0
03C0
0380
0380
0780
0780
0780
0780
0700
0700
0700
0F00
0F00
0F00
0E00
0E00
0E00
1E00
1E00
1E00
1E00
1C00
1C00
3C00
3C00
3C00
3C00
3800
3800
3800
7800
7800
7800
7800
7000
7000
F000
F000
F000
F000
E000
ENDCHAR
STARTCHAR 007D
ENCODING 125
SWIDTH 320 0
DWIDTH 16 0
BBX 18 48 -3 -9
BITMAP
008000
01E000
01F000
00F800
007C00
003C00
003C00
003E00
003E00
001E00
003E00
003E00
003E00
003E00
003C00
003C00
003C00
003C00
003C00
003C00
003E00
001F00
000FC0
0007C0
000FC0
003FC0
007E00
00F800
00F800
00F000
01F000
01F000
01F000
01E000
01E000
01E000
01E000
03E000
03E000
03C000
07C000
07C000
0F8000
1F0000
3E0000
FC0000
780000
400000
ENDCHAR
STARTCHAR 007E
ENCODING 126
SWIDTH 640 0
DWIDTH 32 0
BBX 27 10 3 10
BITMAP
03C00000
0FF000E0
1FF800E0
3FFE01E0
7E7F03E0
781F83C0
F00FFFC0
F007FF80
F003FF00
0000FC00
ENDCHAR
STARTCHAR 00A0
ENCODING 160
SWIDTH 240 0
DWIDTH 12 0
BBX 0 0 0 0
BITMAP
ENDCHAR
STARTCHAR 00A1
ENCODING 161
SWIDTH 220 0
DWIDTH 11 0
BBX 10 36 0 -9
BITMAP
0380
07C0
07C0
07C0
0380
0000
0000
0000
0000
0000
0F00
0F00
0F00
0F00
0F00
1F00
1E00
1E00
1E00
1E00
3E00
3E00
3C00
3C00
3C00
3C00
7C00
7C00
7800
7800
7800
F800
F800
F800
F800
F000
ENDCHAR
STARTCHAR 00A2
ENCODING 162
SWIDTH 520 0
DWIDTH 26 0
BBX 23 38 2 -6
BITMAP
000F80
000F80
000F00
000F00
000F00
003F00
00FFE0
03FFF0
07FFF8
0FC0F8
1F007C
1E003C
3E003C
3C003E
7C003E
780000
780000
F80000
F80000
F80000
F00000
F00000
F00000
F80000
F800F8
7800F0
7C01F0
7C03E0
3F0FE0
1FFFC0
0FFF00
07FE00
01E000
01E000
03E000
03E000
03E000
03C000
ENDCHAR
STARTCHAR 00A3
ENCODING 163
SWIDTH 560 0
DWIDTH 28 0
BBX 28 36 0 0
BITMAP
0000FE00
0007FF80
000FFFC0
001FFFE0
003F03E0
007E01F0
007C01F0
00F801F0
00F800F0
00F00000
00F00000
01F00000
01F00000
01F00000
01F00000
01E00000
01E00000
1FFFE000
1FFFE000
3FFFC000
3FFFC000
03E00000
03E00000
03C00000
03C00000
03C00000
07C00000
07C00000
07C00000
07800000
0F800000
1F000000
FFFFFF80
FFFFFF80
FFFFFF00
FFFFFF00
ENDCHAR
STARTCHAR 00A4
ENCODING 164
SWIDTH 680 0
DWIDTH 34 0
BBX 34 31 1 0
BITMAP
0303FE0700
078FFF8F80
0FFFFFDFC0
07FFFFFF80
07FE07FF00
03F801FE00
03F000F800
07C0007C00
07C0007C00
0F80003C00
0F00003C00
1F00003E00
1E00003E00
1E00003E00
3E00003E00
3C00003C00
3C00003C00
3C00003C00
3C00007C00
3E00007800
1E0000F800
1E0000F000
1F0001F000
0F8003E000
3FC00FE000
7FE01FF000
FFFFFFF800
FFFFFFF800
F8FFFCF000
607FF06000
0007000000
ENDCHAR
STARTCHAR 00A5
ENCODING 165
SWIDTH 500 0
DWIDTH 25 0
BBX 27 36 2 0
BITMAP
3E0003E0
3E0007C0
1F000FC0
1F000F80
1F001F00
0F003F00
0F803E00
0F807C00
07807C00
07C0F800
07C1F000
03C1F000
03C3E000
03E3C000
01E78000
01EF8000
01FF0000
00FE0000
7FFFF800
7FFFF800
7FFFF800
00F80000
00F80000
00F80000
00F00000
FFFFF000
FFFFF000
FFFFF000
01F00000
01F00000
01E00000
01E00000
03E00000
03E00000
03E00000
03E00000
ENDCHAR
STARTCHAR 00A6
ENCODING 166
SWIDTH 220 0
DWIDTH 11 0
BBX 12 43 0 -7
BITMAP
01F0
01E0
01E0
01E0
03E0
03E0
03E0
03C0
03C0
03C0
07C0
07C0
0780
0780
0780
0F80
0F80
0F80
0F00
0000
0000
0000
0000
1F00
1E00
1E00
1E00
3E00
3E00
3E00
3C00
3C00
3C00
7C00
7C00
7800
7800
7800
F800
F800
F800
F000
F000
ENDCHAR
STARTCHAR 00A7
ENCODING 167
SWIDTH 580 0
DWIDTH 29 0
BBX 30 48 -1 -12
BITMAP
0001FE00
000FFF80
003FFFE0
007FFFF0
00FE03F0
01F800F8
01F000F8
01E00078
01E0007C
03E0007C
03E00000
01E00000
01F00000
01F80000
00FF0000
007FE000
01FFF800
03FFFE00
07C3FF80
0F807FC0
1F000FC0
1F0007E0
1F0003E0
1E0001E0
1F0001E0
1F0001E0
0F8001E0
0FE003E0
07F807E0
03FF0FC0
01FFFF80
007FFF00
001FFC00
0003FE00
00007E00
00003F00
00001F00
00000F00
F8000F00
F8001F00
F8001F00
7C001E00
7C003E00
3F00FC00
3FFFFC00
1FFFF000
07FFE000
01FF0000
ENDCHAR
STARTCHAR 00A8
ENCODING 168
SWIDTH 400 0
DWIDTH 20 0
BBX 16 5 5 31
BITMAP
780E
781F
FC1F
F81F
781E
ENDCHAR
STARTCHAR 00A9
ENCODING 169
SWIDTH 760 0
DWIDTH 38 0
BBX 33 37 3 -1
BITMAP
0003FE0000
000FFF8000
003FFFE000
00FE01F000
01F0007800
03C0003C00
0780001E00
0F00E00E00
1E07FC0700
1C0FFE0700
381F7F0380
383C0F0380
7078070380
7078070380
E070078180
E0F0000180
E0F0000180
E0E0000180
C0E0000380
C0E0000380
C0E0000380
C0E00E0380
C0E00E0700
E0F01E0700
E0F01E0E00
E0787C0E00
607FF81C00
703FF03C00
780FE07800
380000F000
1C0001E000
1E0003C000
0F800F8000
07F8FF0000
01FFFC0000
007FF00000
0003000000
ENDCHAR
STARTCHAR 00AA
ENCODING 170
SWIDTH 420 0
DWIDTH 21 0
BBX 15 19 5 17
BITMAP
03F0
0FFC
1FFE
3F3E
3C1E
3C0E
000E
001E
0FFE
3FFE
7FFE
F81E
F01C
F03C
F03C
F8FC
FFFC
7FFC
3F3C
ENDCHAR
STARTCHAR 00AB
ENCODING 171
SWIDTH 460 0
DWIDTH 23 0
BBX 20 19 2 4
BITMAP
00F0F0
01E1E0
03C3C0
07C780
078F80
0F0F00
1E1E00
3C3C00
787800
F8F800
F8F800
787800
3C7800
3C3C00
1E1C00
1E1E00
0E0E00
070F00
070700
ENDCHAR
STARTCHAR 00AC
ENCODING 172
SWIDTH 520 0
DWIDTH 26 0
BBX 21 11 3 9
BITMAP
7FFFF8
7FFFF0
FFFFF0
FFFFF0
0001F0
0001F0
0001F0
0001E0
0001E0
0001E0
0003E0
ENDCHAR
STARTCHAR 00AD
ENCODING 173
SWIDTH 260 0
DWIDTH 13 0
BBX 12 4 1 13
BITMAP
FFF0
FFF0
FFE0
FFE0
ENDCHAR
STARTCHAR 00AE
ENCODING 174
SWIDTH 760 0
DWIDTH 38 0
BBX 34 37 2 -1
BITMAP
0001FF0000
0007FFC000
001FFFF000
007F00F800
00F8003C00
01E0001E00
03C0000F00
0780000700
0F0FFE0380
0E0FFF0380
1C0FFF81C0
1C0E0381C0
381E0381C0
381E0381C0
701E0380C0
701C0780C0
701C0F00C0
701FFE00C0
601FF801C0
603FFE01C0
E03C1E01C0
60380F01C0
60380F0380
70380F0380
70380F0700
70780F0700
30780F0E00
38780F1E00
3C00003C00
1C00007800
0E0000F000
0F0001E000
07C007C000
03FC7F8000
00FFFE0000
003FF80000
0001000000
ENDCHAR
STARTCHAR 00AF
ENCODING 175
SWIDTH 440 0
DWIDTH 22 0
BBX 16 3 6 32
BITMAP
FFFF
FFFF
FFFF
ENDCHAR
STARTCHAR 00B0
ENCODING 176
SWIDTH 360 0
DWIDTH 18 0
BBX 12 13 6 23
BITMAP
0F80
3FC0
7FE0
78E0
F070
E070
E070
E0E0
E0E0
FFE0
7FC0
3F80
0600
ENDCHAR
STARTCHAR 00B1
ENCODING 177
SWIDTH 500 0
DWIDTH 25 0
BBX 24 31 1 0
BITMAP
000780
000780
000780
000F00
000F00
000F00
000F00
000F00
000F00
001F00
3FFFFF
3FFFFF
3FFFFF
3FFFFE
001E00
001E00
003C00
003C00
003C00
003C00
003C00
003C00
007800
007800
000000
000000
000000
FFFFF0
FFFFF0
FFFFF0
FFFFF0
ENDCHAR
STARTCHAR 00B2
ENCODING 178
SWIDTH 360 0
DWIDTH 18 0
BBX 16 20 2 16
BITMAP
01F0
07FC
0FFE
1F1F
1E0F
3C0F
3C0F
001F
001E
007C
00FC
01F0
03E0
07C0
0F80
3E00
7C00
7FFE
FFFE
FFFE
ENDCHAR
STARTCHAR 00B3
ENCODING 179
SWIDTH 360 0
DWIDTH 18 0
BBX 15 20 3 16
BITMAP
03E0
0FF8
1FFC
3E3E
3C1E
381E
001E
003E
01FC
07F0
07F0
00F8
003C
003C
E03C
F03C
F8F8
7FF8
3FF0
1FC0
ENDCHAR
STARTCHAR 00B4
ENCODING 180
SWIDTH 300 0
DWIDTH 15 0
BBX 12 8 5 30
BITMAP
03F0
07E0
0F80
0F00
1E00
3C00
7800
F000
ENDCHAR
STARTCHAR 00B5
ENCODING 181
SWIDTH 540 0
DWIDTH 27 0
BBX 27 36 -1 -10
BITMAP
01E003E0
03E003E0
03E003C0
03C003C0
03C003C0
03C007C0
07C007C0
07C007C0
07C00780
07800780
07800780
07800F80
0F800F80
0F800F80
0F800F00
0F000F00
0F000F00
0F001F00
1F001F00
1F801E00
1F803E00
1F807E00
1FE1FE00
1FFFFE00
3FFFFE00
3EFFBC00
3C1C0000
3C000000
3C000000
7C000000
7C000000
7C000000
78000000
78000000
78000000
F8000000
ENDCHAR
STARTCHAR 00B6
ENCODING 182
SWIDTH 460 0
DWIDTH 23 0
BBX 20 36 3 0
BITMAP
0007F0
00FFF0
03FFF0
07FFF0
0FFFF0
1FFFE0
3FFFE0
7FFFE0
7FFFE0
7FFFE0
FFFFE0
FFFFC0
FFFFC0
FFFFC0
FFFFC0
FFFFC0
7FFFC0
7FFF80
7FFF80
3FFF80
1FFF80
0FFF80
03FF80
000F00
000F00
000F00
001F00
001F00
001F00
001E00
001E00
001E00
003E00
003E00
003C00
003C00
ENDCHAR
STARTCHAR 00B7
ENCODING 183
SWIDTH 240 0
DWIDTH 12 0
BBX 5 6 4 15
BITMAP
20
78
F8
F8
F8
70
ENDCHAR
STARTCHAR 00B8
ENCODING 184
SWIDTH 240 0
DWIDTH 12 0
BBX 8 11 -1 -11
BITMAP
38
78
7E
3E
0F
0F
0E
3E
FC
F8
80
ENDCHAR
STARTCHAR 00B9
ENCODING 185
SWIDTH 360 0
DWIDTH 18 0
BBX 9 19 6 17
BITMAP
0780
3F80
FF80
FF80
E700
0700
0F00
0F00
0F00
0F00
0E00
0E00
1E00
1E00
1E00
1E00
1C00
3C00
3C00
ENDCHAR
STARTCHAR 00BA
ENCODING 186
SWIDTH 440 0
DWIDTH 22 0
BBX 16 19 5 17
BITMAP
03F0
0FFC
1FFE
3F3E
7C0F
780F
F80F
F00F
F00F
F00F
F00F
F00F
F00F
F01E
F83E
7C7C
7FF8
3FF0
0FE0
ENDCHAR
STARTCHAR 00BB
ENCODING 187
SWIDTH 440 0
DWIDTH 22 0
BBX 20 19 1 4
BITMAP
1E0E00
0E0E00
0F0700
070780
078780
0383C0
03C3C0
01E1E0
01E1E0
01F1F0
03E1E0
03C3C0
078780
0F0F80
1E1F00
3C1E00
3C3C00
787800
F0F000
ENDCHAR
STARTCHAR 00BC
ENCODING 188
SWIDTH 700 0
DWIDTH 35 0
BBX 27 35 5 0
BITMAP
03800000
3F800000
FF800000
FF800300
F7800780
07000700
07000F00
0F001E00
0F003C00
0F007800
0F007800
0E00F000
1E01E000
1E03C000
1E038000
1E078000
1E0F03E0
1C1E07E0
3C3C07E0
00380FC0
00781FC0
00F03FC0
01E07BC0
01C0F3C0
03C1E3C0
0783C380
0F038780
1E070780
1C0FFFE0
3C0FFFE0
380FFFE0
10000700
00000F00
00000F00
00000F00
ENDCHAR
STARTCHAR 00BD
ENCODING 189
SWIDTH 740 0
DWIDTH 37 0
BBX 30 35 4 0
BITMAP
01C00000
1FC00000
7FC00000
7FC00300
7B800780
83800700
07800F00
07801E00
07803C00
07807800
07007000
0700F000
0F01E000
0F03C000
0F038000
0F078180
0E0F0FF0
1E1E3FF8
1E3C7FFC
0038783C
0078F83C
00F0F03C
01E0003C
03C00078
03C000F8
078001F0
0F0003E0
1E000FC0
1C001F00
3C003E00
78007C00
1000F000
0001FFF8
0001FFF8
0003FFF8
ENDCHAR
STARTCHAR 00BE
ENCODING 190
SWIDTH 740 0
DWIDTH 37 0
BBX 31 36 4 0
BITMAP
03E00000
0FF80000
1FFE0000
3F3E0000
3C1E0030
3C0E0078
001E0070
001E00F0
00FC01E0
07F803C0
07F00780
00F80780
003C0F00
001C1E00
F03C3C00
F03C3800
F8FC7800
7FF8F03C
3FF1E07C
1FC3C0FC
000381FC
000783F8
000F07F8
001E0F78
001C1E78
003C3C78
00783878
00F07070
01E0E0F0
01C1FFFE
03C1FFFC
0381FFFC
010000E0
000000E0
000001E0
000001E0
ENDCHAR
STARTCHAR 00BF
ENCODING 191
SWIDTH 440 0
DWIDTH 22 0
BBX 19 36 -1 -10
BITMAP
000700
000F80
000F80
000F80
000F00
000000
000000
000000
000000
000000
001E00
001E00
003E00
003C00
007C00
007C00
00F800
03F000
07E000
0FC000
1F8000
3F0000
3E0000
7C0000
7C0000
F80000
F80000
F80060
F801E0
F803E0
F803E0
7C0FC0
7FBF80
3FFF00
1FFE00
0FFC00
ENDCHAR
STARTCHAR 00C0
ENCODING 192
SWIDTH 620 0
DWIDTH 31 0
BBX 30 45 -2 0
BITMAP
0000F800
00007C00
00003C00
00003E00
00001E00
00000F00
00000F00
00000000
00000000
00001E00
00001F00
00003F00
00003F00
00007F00
00007F00
0000F780
0000F780
0001E780
0003E780
0003C780
0007C7C0
000783C0
000F83C0
000F03C0
001F03C0
001E03E0
003E01E0
003C01E0
007C01E0
00F801E0
00F801F0
01F001F0
01FFFFF0
03FFFFF0
03FFFFF0
07FFFFF8
078000F8
0F800078
0F000078
1F000078
3E00007C
3E00007C
7C00007C
7C00003C
F800003C
ENDCHAR
STARTCHAR 00C1
ENCODING 193
SWIDTH 620 0
DWIDTH 31 0
BBX 30 45 -2 0
BITMAP
0000007C
000000F8
000001F0
000003E0
000007C0
00000780
00000F00
00000000
00000000
00001E00
00001F00
00003F00
00003F00
00007F00
00007F00
0000F780
0000F780
0001E780
0003E780
0003C780
0007C7C0
000783C0
000F83C0
000F03C0
001F03C0
001E03E0
003E01E0
003C01E0
007C01E0
00F801E0
00F801F0
01F001F0
01FFFFF0
03FFFFF0
03FFFFF0
07FFFFF8
078000F8
0F800078
0F000078
1F000078
3E00007C
3E00007C
7C00007C
7C00003C
F800003C
ENDCHAR
STARTCHAR 00C2
ENCODING 194
SWIDTH 620 0
DWIDTH 31 0
BBX 30 45 -2 0
BITMAP
00000780
00000F80
00001FC0
00003DE0
000078F0
0000F078
0001E078
00000000
00000000
00001E00
00001F00
00003F00
00003F00
00007F00
00007F00
0000F780
0000F780
0001E780
0003E780
0003C780
0007C7C0
000783C0
000F83C0
000F03C0
001F03C0
001E03E0
003E01E0
003C01E0
007C01E0
00F801E0
00F801F0
01F001F0
01FFFFF0
03FFFFF0
03FFFFF0
07FFFFF8
078000F8
0F800078
0F000078
1F000078
3E00007C
3E00007C
7C00007C
7C00003C
F800003C
ENDCHAR
STARTCHAR 00C3
ENCODING 195
SWIDTH 620 0
DWIDTH 31 0
BBX 31 45 -2 0
BITMAP
00000008
00007C0E
0001FE1E
0001FFFE
0003C7FC
000381F8
00038060
00000000
00000000
00001E00
00001F00
00003F00
00003F00
00007F00
00007F00
0000F780
0000F780
0001E780
0003E780
0003C780
0007C7C0
000783C0
000F83C0
000F03C0
001F03C0
001E03E0
003E01E0
003C01E0
007C01E0
00F801E0
00F801F0
01F001F0
01FFFFF0
03FFFFF0
03FFFFF0
07FFFFF8
078000F8
0F800078
0F000078
1F000078
3E00007C
3E00007C
7C00007C
7C00003C
F800003C
ENDCHAR
STARTCHAR 00C4
ENCODING 196
SWIDTH 620 0
DWIDTH 31 0
BBX 30 44 -2 0
BITMAP
0000E018
0001F07C
0001F07C
0001F07C
0001E07C
00004010
00000000
00000000
00001E00
00001F00
00003F00
00003F00
00007F00
00007F00
0000F780
0000F780
0001E780
0003E780
0003C780
0007C7C0
000783C0
000F83C0
000F03C0
001F03C0
001E03E0
003E01E0
003C01E0
007C01E0
00F801E0
00F801F0
01F001F0
01FFFFF0
03FFFFF0
03FFFFF0
07FFFFF8
078000F8
0F800078
0F000078
1F000078
3E00007C
3E00007C
7C00007C
7C00003C
F800003C
ENDCHAR
STARTCHAR 00C5
ENCODING 197
SWIDTH 620 0
DWIDTH 31 0
BBX 30 47 -2 0
BITMAP
00000FC0
00001FE0
00003860
00003870
00003070
00003070
000030E0
00003FE0
00001FC0
00000700
00000000
00001E00
00001F00
00003F00
00003F00
00007F00
00007F00
0000F780
0000F780
0001E780
0003E780
0003C780
0007C7C0
000783C0
000F83C0
000F03C0
001F03C0
001E03E0
003E01E0
003C01E0
007C01E0
00F801E0
00F801F0
01F001F0
01FFFFF0
03FFFFF0
03FFFFF0
07FFFFF8
078000F8
0F800078
0F000078
1F000078
3E00007C
3E00007C
7C00007C
7C00003C
F800003C
ENDCHAR
STARTCHAR 00C6
ENCODING 198
SWIDTH 900 0
DWIDTH 45 0
BBX 50 36 -3 0
BITMAP
0000001FFFFFC0
0000003FFFFFC0
0000007FFFFF80
0000007FFFFF80
000000FF800000
000001FF800000
000003EF000000
000003EF000000
000007CF000000
00000F8F000000
00001F1F000000
00001F1F000000
00003E1F000000
00007C1E000000
0000F81E000000
0000F81E000000
0001F01FFFF800
0003E03FFFF800
0007E03FFFF800
000FC03E000000
000F803E000000
001F003C000000
003F003C000000
007FFFFC000000
007FFFFC000000
00FFFFFC000000
01FFFFFC000000
03F0007C000000
03E00078000000
07C00078000000
0FC00078000000
1F800078000000
1F0000FFFFFC00
3E0000FFFFF800
7E0000FFFFF800
FC0000FFFFF800
ENDCHAR
STARTCHAR 00C7
ENCODING 199
SWIDTH 620 0
DWIDTH 31 0
BBX 28 47 3 -11
BITMAP
0007F800
003FFE00
00FFFF00
01FFFF80
03F80FC0
07E007E0
0FC003E0
0F8001E0
1F0001F0
1F0001F0
3E0001F0
3E0000F0
3C000000
7C000000
7C000000
78000000
78000000
F8000000
F8000000
F8000000
F8000000
F8000000
F0000000
F0000000
F0000000
F8000780
F8000F80
F8000F80
78001F00
7C001F00
3C003E00
3F00FE00
1FC3FC00
0FFFF800
07FFE000
03FF8000
00700000
00F00000
00F80000
00FC0000
001E0000
001E0000
001E0000
003C0000
01FC0000
01F00000
01C00000
ENDCHAR
STARTCHAR 00C8
ENCODING 200
SWIDTH 540 0
DWIDTH 27 0
BBX 27 45 2 0
BITMAP
001F0000
000F8000
00078000
0007C000
0003C000
0001C000
0001E000
00000000
00000000
03FFFFE0
07FFFFE0
07FFFFE0
07FFFFE0
07C00000
07800000
07800000
0F800000
0F800000
0F800000
0F000000
0F000000
0F000000
1F000000
1F000000
1F000000
1FFFFC00
1FFFFC00
3FFFFC00
3FFFFC00
3E000000
3E000000
3C000000
3C000000
7C000000
7C000000
7C000000
7C000000
78000000
78000000
F8000000
F8000000
FFFFFC00
FFFFFC00
FFFFFC00
FFFFF800
ENDCHAR
STARTCHAR 00C9
ENCODING 201
SWIDTH 540 0
DWIDTH 27 0
BBX 27 45 2 0
BITMAP
00001F80
00003F00
00003E00
00007C00
0000F000
0001E000
0003C000
00000000
00000000
03FFFFE0
07FFFFE0
07FFFFE0
07FFFFE0
07C00000
07800000
07800000
0F800000
0F800000
0F800000
0F000000
0F000000
0F000000
1F000000
1F000000
1F000000
1FFFFC00
1FFFFC00
3FFFFC00
3FFFFC00
3E000000
3E000000
3C000000
3C000000
7C000000
7C000000
7C000000
7C000000
78000000
78000000
F8000000
F8000000
FFFFFC00
FFFFFC00
FFFFFC00
FFFFF800
ENDCHAR
STARTCHAR 00CA
ENCODING 202
SWIDTH 540 0
DWIDTH 27 0
BBX 27 45 2 0
BITMAP
0000F000
0001F000
0003F800
000FBC00
001F1E00
003E0F00
00380F00
00000000
00000000
03FFFFE0
07FFFFE0
07FFFFE0
07FFFFE0
07C00000
07800000
07800000
0F800000
0F800000
0F800000
0F000000
0F000000
0F000000
1F000000
1F000000
1F000000
1FFFFC00
1FFFFC00
3FFFFC00
3FFFFC00
3E000000
3E000000
3C000000
3C000000
7C000000
7C000000
7C000000
7C000000
78000000
78000000
F8000000
F8000000
FFFFFC00
FFFFFC00
FFFFFC00
FFFFF800
ENDCHAR
STARTCHAR 00CB
ENCODING 203
SWIDTH 540 0
DWIDTH 27 0
BBX 27 44 2 0
BITMAP
001C0700
003E0F80
003E0F80
003E0F80
003C0F00
00000000
00000000
00000000
03FFFFE0
07FFFFE0
07FFFFE0
07FFFFE0
07C00000
07800000
07800000
0F800000
0F800000
0F800000
0F000000
0F000000
0F000000
1F000000
1F000000
1F000000
1FFFFC00
1FFFFC00
3FFFFC00
3FFFFC00
3E000000
3E000000
3C000000
3C000000
7C000000
7C000000
7C000000
7C000000
78000000
78000000
F8000000
F8000000
FFFFFC00
FFFFFC00
FFFFFC00
FFFFF800
ENDCHAR
STARTCHAR 00CC
ENCODING 204
SWIDTH 260 0
DWIDTH 13 0
BBX 11 45 2 0
BITMAP
1F00
0F80
0780
0780
03C0
01C0
01E0
0000
0000
03E0
03C0
03C0
07C0
07C0
07C0
07C0
0780
0780
0F80
0F80
0F80
0F00
0F00
0F00
1F00
1F00
1F00
1E00
1E00
3E00
3E00
3E00
3E00
3C00
3C00
7C00
7C00
7C00
7C00
7800
7800
F800
F800
F800
F000
ENDCHAR
STARTCHAR 00CD
ENCODING 205
SWIDTH 260 0
DWIDTH 13 0
BBX 17 45 2 0
BITMAP
001F80
003F00
003E00
007800
00F000
01E000
03C000
000000
000000
03E000
03C000
03C000
07C000
07C000
07C000
07C000
078000
078000
0F8000
0F8000
0F8000
0F0000
0F0000
0F0000
1F0000
1F0000
1F0000
1E0000
1E0000
3E0000
3E0000
3E0000
3E0000
3C0000
3C0000
7C0000
7C0000
7C0000
7C0000
780000
780000
F80000
F80000
F80000
F00000
ENDCHAR
STARTCHAR 00CE
ENCODING 206
SWIDTH 260 0
DWIDTH 13 0
BBX 16 45 2 0
BITMAP
01F0
03F0
07F8
0FBC
1F1E
3C0E
380F
0000
0000
03E0
03C0
03C0
07C0
07C0
07C0
07C0
0780
0780
0F80
0F80
0F80
0F00
0F00
0F00
1F00
1F00
1F00
1E00
1E00
3E00
3E00
3E00
3E00
3C00
3C00
7C00
7C00
7C00
7C00
7800
7800
F800
F800
F800
F000
ENDCHAR
STARTCHAR 00CF
ENCODING 207
SWIDTH 260 0
DWIDTH 13 0
BBX 17 44 2 0
BITMAP
1C0700
3E0F80
3E0F80
3E0F80
3C0F00
000000
000000
000000
03E000
03C000
03C000
07C000
07C000
07C000
07C000
078000
078000
0F8000
0F8000
0F8000
0F0000
0F0000
0F0000
1F0000
1F0000
1F0000
1E0000
1E0000
3E0000
3E0000
3E0000
3E0000
3C0000
3C0000
7C0000
7C0000
7C0000
7C0000
780000
780000
F80000
F80000
F80000
F00000
ENDCHAR
STARTCHAR 00D0
ENCODING 208
SWIDTH 640 0
DWIDTH 32 0
BBX 30 36 1 0
BITMAP
01FF8000
01FFFC00
01FFFF00
01FFFF80
01E03FC0
03E007E0
03E003F0
03E001F0
03E000F8
03C000F8
03C00078
07C00078
07C00078
07C00078
07C0007C
0780007C
7FFF0078
7FFF0078
FFFF0078
FFFE00F8
0F0000F8
0F0000F8
0F0000F0
1F0001F0
1F0001F0
1F0003E0
1E0003E0
1E0007C0
3E000FC0
3E001F80
3E003F00
3E01FE00
3FFFFC00
3FFFF000
7FFFC000
7FFE0000
ENDCHAR
STARTCHAR 00D1
ENCODING 209
SWIDTH 680 0
DWIDTH 34 0
BBX 32 45 2 0
BITMAP
00000020
0003E070
0007F8F0
000FFFF0
000F3FE0
001E0FC0
001C0380
00000000
00000000
03C0000F
07E0001F
07E0001F
07E0001F
07F0001E
07F0001E
07F8001E
0FF8003E
0FFC003E
0FFC003E
0F3E003C
0F3E003C
0F1F003C
1F1F007C
1F0F807C
1F0F807C
1E078078
1E07C078
3E07C0F8
3E03E0F8
3E03E0F8
3E01F0F8
3C01F0F0
3C00F8F0
7C00F9F0
7C007DF0
7C007DF0
7C003FE0
78003FE0
78001FE0
F8001FE0
F8001FE0
F8000FE0
F8000FC0
F00007C0
F00007C0
ENDCHAR
STARTCHAR 00D2
ENCODING 210
SWIDTH 660 0
DWIDTH 33 0
BBX 28 46 3 -1
BITMAP
000F8000
0007C000
0003C000
0003C000
0001E000
0000E000
0000F000
00000000
00000000
0007F800
003FFE00
007FFF00
01FFFF80
03F80FC0
07E007E0
07C003E0
0F8001E0
1F0001F0
1F0001F0
3E0000F0
3E0000F0
3C0000F0
7C0000F0
7C0000F0
780000F0
780000F0
F80000F0
F80001F0
F80001F0
F80001F0
F80001F0
F80001E0
F80003E0
F80003E0
F80003C0
F80007C0
78000780
7C000F80
7C001F00
3E003E00
3F00FE00
1FE7FC00
0FFFF800
07FFE000
01FF8000
00100000
ENDCHAR
STARTCHAR 00D3
ENCODING 211
SWIDTH 660 0
DWIDTH 33 0
BBX 28 46 3 -1
BITMAP
00000FC0
00000F80
00001F00
00003E00
00007C00
0000F800
0000F000
00000000
00000000
0007F800
003FFE00
007FFF00
01FFFF80
03F80FC0
07E007E0
07C003E0
0F8001E0
1F0001F0
1F0001F0
3E0000F0
3E0000F0
3C0000F0
7C0000F0
7C0000F0
780000F0
780000F0
F80000F0
F80001F0
F80001F0
F80001F0
F80001F0
F80001E0
F80003E0
F80003E0
F80003C0
F80007C0
78000780
7C000F80
7C001F00
3E003E00
3F00FE00
1FE7FC00
0FFFF800
07FFE000
01FF8000
00100000
ENDCHAR
STARTCHAR 00D4
ENCODING 212
SWIDTH 660 0
DWIDTH 33 0
BBX 28 46 3 -1
BITMAP
00007800
0000F800
0001FC00
0003DE00
00078F00
000F0700
001E0780
00000000
00000000
0007F800
003FFE00
007FFF00
01FFFF80
03F80FC0
07E007E0
07C003E0
0F8001E0
1F0001F0
1F0001F0
3E0000F0
3E0000F0
3C0000F0
7C0000F0
7C0000F0
780000F0
780000F0
F80000F0
F80001F0
F80001F0
F80001F0
F80001F0
F80001E0
F80003E0
F80003E0
F80003C0
F80007C0
78000780
7C000F80
7C001F00
3E003E00
3F00FE00
1FE7FC00
0FFFF800
07FFE000
01FF8000
00100000
ENDCHAR
STARTCHAR 00D5
ENCODING 213
SWIDTH 660 0
DWIDTH 33 0
BBX 28 46 3 -1
BITMAP
000000C0
000FC0E0
001FE1E0
003FFFC0
003C7FC0
00381F80
00380600
00000000
00000000
0007F800
003FFE00
007FFF00
01FFFF80
03F80FC0
07E007E0
07C003E0
0F8001E0
1F0001F0
1F0001F0
3E0000F0
3E0000F0
3C0000F0
7C0000F0
7C0000F0
780000F0
780000F0
F80000F0
F80001F0
F80001F0
F80001F0
F80001F0
F80001E0
F80003E0
F80003E0
F80003C0
F80007C0
78000780
7C000F80
7C001F00
3E003E00
3F00FE00
1FE7FC00
0FFFF800
07FFE000
01FF8000
00100000
ENDCHAR
STARTCHAR 00D6
ENCODING 214
SWIDTH 660 0
DWIDTH 33 0
BBX 28 45 3 -1
BITMAP
000C0380
001F07C0
001F07C0
001F07C0
001E07C0
00000100
00000000
00000000
0007F800
003FFE00
007FFF00
01FFFF80
03F80FC0
07E007E0
07C003E0
0F8001E0
1F0001F0
1F0001F0
3E0000F0
3E0000F0
3C0000F0
7C0000F0
7C0000F0
780000F0
780000F0
F80000F0
F80001F0
F80001F0
F80001F0
F80001F0
F80001E0
F80003E0
F80003E0
F80003C0
F80007C0
78000780
7C000F80
7C001F00
3E003E00
3F00FE00
1FE7FC00
0FFFF800
07FFE000
01FF8000
00100000
ENDCHAR
STARTCHAR 00D7
ENCODING 215
SWIDTH 500 0
DWIDTH 25 0
BBX 24 22 1 5
BITMAP
060004
0F001E
1F003F
0F807E
07C0FC
07E1F8
03E3F0
01F7E0
00FFC0
00FF80
007E00
00FE00
01FF00
03FF80
07EFC0
0FC7C0
1F83E0
7F01F0
FC01F8
7800F8
700070
200020
ENDCHAR
STARTCHAR 00D8
ENCODING 216
SWIDTH 660 0
DWIDTH 33 0
BBX 34 39 1 -2
BITMAP
00000003C0
0001FE0780
000FFF8F00
001FFFCE00
007FFFFE00
00FE03FC00
01F801F800
01F000F800
03E000F800
07C001FC00
07C003FC00
0F8007BC00
0F80073C00
0F000F3C00
1F001E3C00
1F003C3C00
1E00383C00
1E00703C00
3E00F03C00
3E01E07C00
3E03C07C00
3E03807C00
3E07807C00
3E0F007800
3E1E00F800
3E3C00F800
3E3800F000
3E7801F000
1EF001E000
1FE003E000
1FC007C000
0FC00F8000
0FC03F8000
0FFDFF0000
1FFFFE0000
1DFFF80000
3C7FE00000
7804000000
F000000000
ENDCHAR
STARTCHAR 00D9
ENCODING 217
SWIDTH 620 0
DWIDTH 31 0
BBX 29 46 3 -1
BITMAP
001F0000
000F8000
00078000
0007C000
0003C000
0001C000
0001E000
00000000
00000000
0F0000F8
0F0000F8
0F0000F8
1F0000F0
1F0000F0
1F0001F0
1E0001F0
1E0001F0
1E0001F0
3E0001E0
3E0001E0
3E0003E0
3C0003E0
3C0003E0
3C0003E0
7C0003C0
7C0003C0
7C0007C0
780007C0
780007C0
F80007C0
F8000780
F8000780
F8000F80
F0000F80
F0000F80
F0000F00
F0001F00
F8001F00
F8003E00
7C007E00
7E00FC00
3FC7F800
1FFFF000
0FFFC000
03FF0000
00300000
ENDCHAR
STARTCHAR 00DA
ENCODING 218
SWIDTH 620 0
DWIDTH 31 0
BBX 29 46 3 -1
BITMAP
00000F80
00001F00
00003E00
00007C00
0000F800
0000F000
0001E000
00000000
00000000
0F0000F8
0F0000F8
0F0000F8
1F0000F0
1F0000F0
1F0001F0
1E0001F0
1E0001F0
1E0001F0
3E0001E0
3E0001E0
3E0003E0
3C0003E0
3C0003E0
3C0003E0
7C0003C0
7C0003C0
7C0007C0
780007C0
780007C0
F80007C0
F8000780
F8000780
F8000F80
F0000F80
F0000F80
F0000F00
F0001F00
F8001F00
F8003E00
7C007E00
7E00FC00
3FC7F800
1FFFF000
0FFFC000
03FF0000
00300000
ENDCHAR
STARTCHAR 00DB
ENCODING 219
SWIDTH 620 0
DWIDTH 31 0
BBX 29 46 3 -1
BITMAP
0000F000
0001F000
0003F800
0007BC00
000F1E00
001E0E00
003C0F00
00000000
00000000
0F0000F8
0F0000F8
0F0000F8
1F0000F0
1F0000F0
1F0001F0
1E0001F0
1E0001F0
1E0001F0
3E0001E0
3E0001E0
3E0003E0
3C0003E0
3C0003E0
3C0003E0
7C0003C0
7C0003C0
7C0007C0
780007C0
780007C0
F80007C0
F8000780
F8000780
F8000F80
F0000F80
F0000F80
F0000F00
F0001F00
F8001F00
F8003E00
7C007E00
7E00FC00
3FC7F800
1FFFF000
0FFFC000
03FF0000
00300000
ENDCHAR
STARTCHAR 00DC
ENCODING 220
SWIDTH 620 0
DWIDTH 31 0
BBX 29 45 3 -1
BITMAP
00180300
003E0F80
003E0F80
003E0F80
003C0F80
00080200
00000000
00000000
0F0000F8
0F0000F8
0F0000F8
1F0000F0
1F0000F0
1F0001F0
1E0001F0
1E0001F0
1E0001F0
3E0001E0
3E0001E0
3E0003E0
3C0003E0
3C0003E0
3C0003E0
7C0003C0
7C0003C0
7C0007C0
780007C0
780007C0
F80007C0
F8000780
F8000780
F8000F80
F0000F80
F0000F80
F0000F00
F0001F00
F8001F00
F8003E00
7C007E00
7E00FC00
3FC7F800
1FFFF000
0FFFC000
03FF0000
00300000
ENDCHAR
STARTCHAR 00DD
ENCODING 221
SWIDTH 580 0
DWIDTH 29 0
BBX 28 45 4 0
BITMAP
00007E00
00007C00
0000F800
0001F000
0003E000
0007C000
00078000
00000000
00000000
F80001F0
F80003F0
7C0003E0
7C0007C0
3C000FC0
3E000F80
3E001F00
1E003F00
1F003E00
1F007C00
0F00F800
0F80F800
0F81F000
0783E000
07C7E000
03C7C000
03CF8000
03FF0000
01FF0000
01FE0000
01FC0000
00FC0000
00F80000
00F00000
00F00000
00F00000
01F00000
01F00000
01F00000
01E00000
01E00000
03E00000
03E00000
03E00000
03E00000
03C00000
ENDCHAR
STARTCHAR 00DE
ENCODING 222
SWIDTH 560 0
DWIDTH 28 0
BBX 26 36 1 0
BITMAP
01E00000
03E00000
03E00000
03C00000
03C00000
03C00000
03C00000
07C00000
07FFF000
07FFFC00
07FFFF00
07807F00
0F800F80
0F8007C0
0F8007C0
0F0003C0
0F0003C0
0F0003C0
1F0007C0
1F0007C0
1F000780
1E000F80
1E001F80
1E003F00
3E01FE00
3FFFFC00
3FFFF800
3FFFC000
3C000000
3C000000
7C000000
7C000000
78000000
78000000
78000000
F8000000
ENDCHAR
STARTCHAR 00DF
ENCODING 223
SWIDTH 560 0
DWIDTH 28 0
BBX 25 39 1 -1
BITMAP
000FC000
003FF000
00FFF800
01FFFC00
01F07E00
03E03E00
03C01E00
07C01E00
07801E00
07801E00
0F803C00
0F803C00
0F807800
0F00F800
0F01F000
0F01E000
1F03E000
1F03E000
1E03E000
1E03C000
1E03E000
1E01E000
3E00F000
3E00F800
3C007C00
3C003E00
3C001E00
3C000F00
7C000F00
7C000F80
78000F80
78000F00
78001F00
F8403F00
F8F0FE00
F8FFFC00
F1FFF800
F07FF000
00030000
ENDCHAR
STARTCHAR 00E0
ENCODING 224
SWIDTH 520 0
DWIDTH 26 0
BBX 22 39 1 -1
BITMAP
007C00
003E00
001E00
001F00
000F00
000780
000380
0003C0
000000
000000
000000
001F80
00FFE0
03FFF0
07FFF8
0FC0FC
0F807C
1F003C
1E003C
00003C
00003C
00003C
00FFFC
07FFFC
0FFFFC
1FC078
3E0078
7C0078
780078
F800F8
F800F8
F800F0
F801F0
7C07F0
7F3FF0
3FFFF0
1FFCF0
0FF8F0
008000
ENDCHAR
STARTCHAR 00E1
ENCODING 225
SWIDTH 520 0
DWIDTH 26 0
BBX 24 39 1 -1
BITMAP
00001F
00003E
00007C
0000F8
0001F0
0001E0
0003C0
000780
000000
000000
000000
001F80
00FFE0
03FFF0
07FFF8
0FC0FC
0F807C
1F003C
1E003C
00003C
00003C
00003C
00FFFC
07FFFC
0FFFFC
1FC078
3E0078
7C0078
780078
F800F8
F800F8
F800F0
F801F0
7C07F0
7F3FF0
3FFFF0
1FFCF0
0FF8F0
008000
ENDCHAR
STARTCHAR 00E2
ENCODING 226
SWIDTH 520 0
DWIDTH 26 0
BBX 22 39 1 -1
BITMAP
0001C0
0003E0
0007E0
000F70
001E78
003C3C
00781C
000000
000000
000000
000000
001F80
00FFE0
03FFF0
07FFF8
0FC0FC
0F807C
1F003C
1E003C
00003C
00003C
00003C
00FFFC
07FFFC
0FFFFC
1FC078
3E0078
7C0078
780078
F800F8
F800F8
F800F0
F801F0
7C07F0
7F3FF0
3FFFF0
1FFCF0
0FF8F0
008000
ENDCHAR
STARTCHAR 00E3
ENCODING 227
SWIDTH 520 0
DWIDTH 26 0
BBX 25 38 1 -1
BITMAP
001C0380
003F0780
007FCF00
00FFFF00
00E1FE00
01E07C00
00C00000
00000000
00000000
00000000
001F8000
00FFE000
03FFF000
07FFF800
0FC0FC00
0F807C00
1F003C00
1E003C00
00003C00
00003C00
00003C00
00FFFC00
07FFFC00
0FFFFC00
1FC07800
3E007800
7C007800
78007800
F800F800
F800F800
F800F000
F801F000
7C07F000
7F3FF000
3FFFF000
1FFCF000
0FF8F000
00800000
ENDCHAR
STARTCHAR 00E4
ENCODING 228
SWIDTH 520 0
DWIDTH 26 0
BBX 24 37 1 -1
BITMAP
00780E
00781F
00FC1F
00781F
00781E
000000
000000
000000
000000
001F80
00FFE0
03FFF0
07FFF8
0FC0FC
0F807C
1F003C
1E003C
00003C
00003C
00003C
00FFFC
07FFFC
0FFFFC
1FC078
3E0078
7C0078
780078
F800F8
F800F8
F800F0
F801F0
7C07F0
7F3FF0
3FFFF0
1FFCF0
0FF8F0
008000
ENDCHAR
STARTCHAR 00E5
ENCODING 229
SWIDTH 520 0
DWIDTH 26 0
BBX 22 41 1 -1
BITMAP
0001C0
0007F0
000FF8
000E18
001C18
001C18
001C18
000C38
000FF0
0007E0
000000
000000
000000
001F80
00FFE0
03FFF0
07FFF8
0FC0FC
0F807C
1F003C
1E003C
00003C
00003C
00003C
00FFFC
07FFFC
0FFFFC
1FC078
3E0078
7C0078
780078
F800F8
F800F8
F800F0
F801F0
7C07F0
7F3FF0
3FFFF0
1FFCF0
0FF8F0
008000
ENDCHAR
STARTCHAR 00E6
ENCODING 230
SWIDTH 800 0
DWIDTH 40 0
BBX 38 28 1 -1
BITMAP
003F003F00
01FFC0FFE0
07FFE3FFF0
0FFFF7FFF8
0FC1FFC0F8
1F00FF807C
1E007F003C
3E007E003C
00007C003C
00007C003C
00007C003C
001FFFFFFC
07FFFFFFFC
1FFFFFFFFC
3FFFFFFFFC
7F00F80000
FC00F80000
F800F80000
F000F80000
F001F80000
F001FC0000
F001FC0020
F807FE00E0
FC1FDF83E0
7FFF9FFFF0
3FFE0FFFE0
1FF803FF00
0300000000
ENDCHAR
STARTCHAR 00E7
ENCODING 231
SWIDTH 500 0
DWIDTH 25 0
BBX 22 38 2 -11
BITMAP
003F00
01FFC0
03FFE0
0FFFF0
0FC1F8
1F0078
3E007C
3C003C
7C003C
78003C
780000
F80000
F80000
F00000
F00000
F00000
F00000
F00000
F00000
F800F8
F800F0
7801F0
7C03E0
3F0FE0
1FFFC0
0FFF00
07FC00
01C000
038000
03E000
03F000
007000
007000
007000
00F000
0FE000
0FC000
0F0000
ENDCHAR
STARTCHAR 00E8
ENCODING 232
SWIDTH 500 0
DWIDTH 25 0
BBX 22 38 2 -1
BITMAP
00F800
00F800
007C00
003C00
003E00
001E00
000F00
000700
000000
000000
000000
003F00
01FFC0
03FFE0
07FFF0
0F81F8
1F00F8
3E0078
3C007C
7C003C
78003C
78003C
FFFFFC
FFFFFC
FFFFFC
FFFFFC
F00000
F00000
F00000
F80000
F80000
F80040
7C00E0
7E01F0
3F87E0
1FFFC0
0FFF80
07FE00
ENDCHAR
STARTCHAR 00E9
ENCODING 233
SWIDTH 500 0
DWIDTH 25 0
BBX 23 38 2 -1
BITMAP
00007E
0000FC
0001F8
0001F0
0003C0
000780
000F00
001E00
000000
000000
000000
003F00
01FFC0
03FFE0
07FFF0
0F81F8
1F00F8
3E0078
3C007C
7C003C
78003C
78003C
FFFFFC
FFFFFC
FFFFFC
FFFFFC
F00000
F00000
F00000
F80000
F80000
F80040
7C00E0
7E01F0
3F87E0
1FFFC0
0FFF80
07FE00
ENDCHAR
STARTCHAR 00EA
ENCODING 234
SWIDTH 500 0
DWIDTH 25 0
BBX 22 38 2 -1
BITMAP
000300
000F80
001FC0
003FC0
007CE0
00F0F0
01E078
000000
000000
000000
000000
003F00
01FFC0
03FFE0
07FFF0
0F81F8
1F00F8
3E0078
3C007C
7C003C
78003C
78003C
FFFFFC
FFFFFC
FFFFFC
FFFFFC
F00000
F00000
F00000
F80000
F80000
F80040
7C00E0
7E01F0
3F87E0
1FFFC0
0FFF80
07FE00
ENDCHAR
STARTCHAR 00EB
ENCODING 235
SWIDTH 500 0
DWIDTH 25 0
BBX 22 36 2 -1
BITMAP
00E038
01F07C
01F07C
01F07C
00E038
000000
000000
000000
000000
003F00
01FFC0
03FFE0
07FFF0
0F81F8
1F00F8
3E0078
3C007C
7C003C
78003C
78003C
FFFFFC
FFFFFC
FFFFFC
FFFFFC
F00000
F00000
F00000
F80000
F80000
F80040
7C00E0
7E01F0
3F87E0
1FFFC0
0FFF80
07FE00
ENDCHAR
STARTCHAR 00EC
ENCODING 236
SWIDTH 240 0
DWIDTH 12 0
BBX 10 37 1 0
BITMAP
3E00
1F00
0F00
0F80
0780
0380
03C0
0000
0000
0000
0000
0780
0F80
0F80
0F00
0F00
0F00
0F00
1F00
1F00
1E00
1E00
1E00
3E00
3E00
3E00
3C00
3C00
3C00
7C00
7C00
7C00
7800
7800
7800
F800
F800
ENDCHAR
STARTCHAR 00ED
ENCODING 237
SWIDTH 240 0
DWIDTH 12 0
BBX 16 37 1 0
BITMAP
003F
007C
00F8
00F0
01E0
03C0
0780
0000
0000
0000
0000
0780
0F80
0F80
0F00
0F00
0F00
0F00
1F00
1F00
1E00
1E00
1E00
3E00
3E00
3E00
3C00
3C00
3C00
7C00
7C00
7C00
7800
7800
7800
F800
F800
ENDCHAR
STARTCHAR 00EE
ENCODING 238
SWIDTH 240 0
DWIDTH 12 0
BBX 15 37 1 0
BITMAP
03E0
07E0
0FF0
1E78
3C3C
781E
0006
0000
0000
0000
0000
0780
0F80
0F80
0F00
0F00
0F00
0F00
1F00
1F00
1E00
1E00
1E00
3E00
3E00
3E00
3C00
3C00
3C00
7C00
7C00
7C00
7800
7800
7800
F800
F800
ENDCHAR
STARTCHAR 00EF
ENCODING 239
SWIDTH 240 0
DWIDTH 12 0
BBX 16 36 1 0
BITMAP
380E
7C1F
7C1F
7C1F
781E
0000
0000
0000
0000
0000
0780
0F80
0F80
0F00
0F00
0F00
0F00
1F00
1F00
1E00
1E00
1E00
3E00
3E00
3E00
3C00
3C00
3C00
7C00
7C00
7C00
7800
7800
7800
F800
F800
ENDCHAR
STARTCHAR 00F0
ENCODING 240
SWIDTH 560 0
DWIDTH 28 0
BBX 25 40 2 -1
BITMAP
00400000
00700000
00FC0300
00FF0700
00FF9F80
001FFE00
0007FC00
0003F000
0007F800
001FF800
003E7C00
003C7C00
00303E00
00003E00
00003E00
003E1E00
01FF9E00
03FFFF00
07FFFF00
0FC07F00
1F803F00
3F001F00
3E001F00
7C001F00
7C001E00
78001E00
78001E00
F8003E00
F8003E00
F8003C00
F8007C00
78007800
7C00F800
7C01F000
3E03F000
3F87E000
1FFFC000
0FFF8000
03FE0000
00200000
ENDCHAR
STARTCHAR 00F1
ENCODING 241
SWIDTH 520 0
DWIDTH 26 0
BBX 25 37 1 0
BITMAP
00180380
007F0700
00FFCF00
00FFFF00
01E1FE00
01C07C00
00C00000
00000000
00000000
00000000
0007E000
0F3FF000
0F7FF800
0FFFFC00
0FE07C00
0FC03E00
1F803E00
1F003E00
1E003E00
1E003E00
1E003E00
3E003E00
3E003C00
3E003C00
3C003C00
3C007C00
3C007C00
7C007C00
7C007800
7C007800
78007800
7800F800
7800F800
F800F800
F800F000
F000F000
F000F000
ENDCHAR
STARTCHAR 00F2
ENCODING 242
SWIDTH 540 0
DWIDTH 27 0
BBX 23 39 2 -1
BITMAP
00F800
007800
007C00
003C00
001E00
001E00
000F00
000700
000000
000000
000000
003F00
01FFC0
03FFF0
07FFF8
0FC0F8
1F007C
3E003C
3E003E
7C001E
7C001E
78001E
F8001E
F8001E
F0001E
F0001E
F0001E
F0003E
F0003E
F0003C
F8007C
7800F8
7C00F8
7E03F0
3F0FE0
1FFFC0
0FFF80
07FE00
002000
ENDCHAR
STARTCHAR 00F3
ENCODING 243
SWIDTH 540 0
DWIDTH 27 0
BBX 23 39 2 -1
BITMAP
00007E
0000FC
0000F8
0001F0
0003E0
0007C0
000F80
000F00
000000
000000
000000
003F00
01FFC0
03FFF0
07FFF8
0FC0F8
1F007C
3E003C
3E003E
7C001E
7C001E
78001E
F8001E
F8001E
F0001E
F0001E
F0001E
F0003E
F0003E
F0003C
F8007C
7800F8
7C00F8
7E03F0
3F0FE0
1FFFC0
0FFF80
07FE00
002000
ENDCHAR
STARTCHAR 00F4
ENCODING 244
SWIDTH 540 0
DWIDTH 27 0
BBX 23 39 2 -1
BITMAP
000300
000780
000FC0
001FE0
003CE0
0078F0
00F078
000000
000000
000000
000000
003F00
01FFC0
03FFF0
07FFF8
0FC0F8
1F007C
3E003C
3E003E
7C001E
7C001E
78001E
F8001E
F8001E
F0001E
F0001E
F0001E
F0003E
F0003E
F0003C
F8007C
7800F8
7C00F8
7E03F0
3F0FE0
1FFFC0
0FFF80
07FE00
002000
ENDCHAR
STARTCHAR 00F5
ENCODING 245
SWIDTH 540 0
DWIDTH 27 0
BBX 23 38 2 -1
BITMAP
00300E
00FC0E
01FF1E
01FFFC
03C3FC
0381F8
018000
000000
000000
000000
003F00
01FFC0
03FFF0
07FFF8
0FC0F8
1F007C
3E003C
3E003E
7C001E
7C001E
78001E
F8001E
F8001E
F0001E
F0001E
F0001E
F0003E
F0003E
F0003C
F8007C
7800F8
7C00F8
7E03F0
3F0FE0
1FFFC0
0FFF80
07FE00
002000
ENDCHAR
STARTCHAR 00F6
ENCODING 246
SWIDTH 540 0
DWIDTH 27 0
BBX 23 37 2 -1
BITMAP
00E038
01F07C
01F07C
01F07C
00E038
000000
000000
000000
000000
003F00
01FFC0
03FFF0
07FFF8
0FC0F8
1F007C
3E003C
3E003E
7C001E
7C001E
78001E
F8001E
F8001E
F0001E
F0001E
F0001E
F0003E
F0003E
F0003C
F8007C
7800F8
7C00F8
7E03F0
3F0FE0
1FFFC0
0FFF80
07FE00
002000
ENDCHAR
STARTCHAR 00F7
ENCODING 247
SWIDTH 540 0
DWIDTH 27 0
BBX 24 26 2 4
BITMAP
000600
000F00
001F00
001F00
001F00
000E00
000000
000000
000000
000000
000000
FFFFFF
FFFFFF
FFFFFF
FFFFFF
000000
000000
000000
000000
000000
006000
00F800
00F800
00F800
00F800
007000
ENDCHAR
STARTCHAR 00F8
ENCODING 248
SWIDTH 540 0
DWIDTH 27 0
BBX 24 33 2 -3
BITMAP
000007
00000E
00001E
003F1C
01FFF8
03FFF8
07FFF8
0FC0FC
1F00FC
3E01FC
3E03BE
7C039E
7C071E
780F1E
F80E1E
F81C1E
F03C1E
F0381E
F0703E
F0F03E
F0E03C
F1C07C
FBC07C
FB80F8
7F01F8
7F03F0
3F0FE0
1FFFC0
1FFF80
3FFE00
702000
700000
E00000
ENDCHAR
STARTCHAR 00F9
ENCODING 249
SWIDTH 520 0
DWIDTH 26 0
BBX 23 39 2 -1
BITMAP
00F800
007C00
007C00
003E00
001E00
000E00
000F00
000700
000000
000000
000000
000000
1F001E
1E001E
1E001E
1E003E
3E003E
3E003C
3E003C
3C003C
3C007C
3C007C
7C007C
7C0078
7C0078
780078
7800F8
7800F8
F800F8
F800F0
F800F0
F801F0
7803F0
7C07F0
7E1FF0
3FFFE0
3FFDE0
0FF9E0
018000
ENDCHAR
STARTCHAR 00FA
ENCODING 250
SWIDTH 520 0
DWIDTH 26 0
BBX 23 39 2 -1
BITMAP
00007E
00007C
0000F8
0001F0
0003E0
0007C0
000780
000F00
000000
000000
000000
000000
1F001E
1E001E
1E001E
1E003E
3E003E
3E003C
3E003C
3C003C
3C007C
3C007C
7C007C
7C0078
7C0078
780078
7800F8
7800F8
F800F8
F800F0
F800F0
F801F0
7803F0
7C07F0
7E1FF0
3FFFE0
3FFDE0
0FF9E0
018000
ENDCHAR
STARTCHAR 00FB
ENCODING 251
SWIDTH 520 0
DWIDTH 26 0
BBX 23 39 2 -1
BITMAP
000300
000780
000FC0
001FE0
003CF0
007870
00F078
000000
000000
000000
000000
000000
1F001E
1E001E
1E001E
1E003E
3E003E
3E003C
3E003C
3C003C
3C007C
3C007C
7C007C
7C0078
7C0078
780078
7800F8
7800F8
F800F8
F800F0
F800F0
F801F0
7803F0
7C07F0
7E1FF0
3FFFE0
3FFDE0
0FF9E0
018000
ENDCHAR
STARTCHAR 00FC
ENCODING 252
SWIDTH 520 0
DWIDTH 26 0
BBX 23 37 2 -1
BITMAP
00E03C
01F07C
01F07C
01F07C
00E03C
000000
000000
000000
000000
000000
1F001E
1E001E
1E001E
1E003E
3E003E
3E003C
3E003C
3C003C
3C007C
3C007C
7C007C
7C0078
7C0078
780078
7800F8
7800F8
F800F8
F800F0
F800F0
F801F0
7803F0
7C07F0
7E1FF0
3FFFE0
3FFDE0
0FF9E0
018000
ENDCHAR
STARTCHAR 00FD
ENCODING 253
SWIDTH 440 0
DWIDTH 22 0
BBX 26 49 -2 -11
BITMAP
00000FC0
00001F80
00003E00
00003C00
00007800
0000F000
0001E000
0003C000
00000000
00000000
00000000
00000000
078007C0
07C007C0
07C00F80
07C00F80
03C01F00
03C01F00
03C03E00
03C03E00
03E07C00
03E07800
01E0F800
01E0F000
01E1F000
01E1E000
01F1E000
01F3C000
00F3C000
00F78000
00F78000
00FF0000
00FF0000
007E0000
007E0000
007C0000
007C0000
00780000
00780000
00F00000
00F00000
01E00000
03E00000
07C00000
0FC00000
FF800000
FF000000
FE000000
F0000000
ENDCHAR
STARTCHAR 00FE
ENCODING 254
SWIDTH 540 0
DWIDTH 27 0
BBX 26 48 -1 -10
BITMAP
00F80000
00F80000
00F80000
00F00000
00F00000
00F00000
01F00000
01F00000
01F00000
01E00000
01E00000
01E1F800
03EFFC00
03FFFF00
03FFFF00
03F81F80
03F00F80
03C007C0
07C007C0
07C007C0
078003C0
078003C0
078003C0
0F8003C0
0F8003C0
0F8007C0
0F0007C0
0F000780
0F000780
1F000F80
1F000F00
1F001F00
1F003F00
1F807E00
1FE1FC00
3EFFF800
3EFFF000
3E3FE000
3C020000
3C000000
3C000000
7C000000
7C000000
78000000
78000000
78000000
F8000000
F8000000
ENDCHAR
STARTCHAR 00FF
ENCODING 255
SWIDTH 440 0
DWIDTH 22 0
BBX 26 47 -2 -11
BITMAP
001C0700
003E0F80
003E0F80
003E0F80
003C0700
00000000
00000000
00000000
00000000
00000000
078007C0
07C007C0
07C00F80
07C00F80
03C01F00
03C01F00
03C03E00
03C03E00
03E07C00
03E07800
01E0F800
01E0F000
01E1F000
01E1E000
01F1E000
01F3C000
00F3C000
00F78000
00F78000
00FF0000
00FF0000
007E0000
007E0000
007C0000
007C0000
00780000
00780000
00F00000
00F00000
01E00000
03E00000
07C00000
0FC00000
FF800000
FF000000
FE000000
F0000000
ENDCHAR
STARTCHAR 0100
ENCODING 256
SWIDTH 620 0
DWIDTH 31 0
BBX 31 43 -2 0
BITMAP
0001FFFE
0001FFFE
0001FFFC
00000000
00000000
00000000
00000000
00001E00
00001F00
00003F00
00003F00
00007F00
00007F00
0000F780
0000F780
0001E780
0003E780
0003C780
0007C7C0
000783C0
000F83C0
000F03C0
001F03C0
001E03E0
003E01E0
003C01E0
007C01E0
00F801E0
00F801F0
01F001F0
01FFFFF0
03FFFFF0
03FFFFF0
07FFFFF8
078000F8
0F800078
0F000078
1F000078
3E00007C
3E00007C
7C00007C
7C00003C
F800003C
ENDCHAR
STARTCHAR 0101
ENCODING 257
SWIDTH 520 0
DWIDTH 26 0
BBX 24 36 1 -1
BITMAP
00FFFF
00FFFF
00FFFF
000000
000000
000000
000000
000000
001F80
00FFE0
03FFF0
07FFF8
0FC0FC
0F807C
1F003C
1E003C
00003C
00003C
00003C
00FFFC
07FFFC
0FFFFC
1FC078
3E0078
7C0078
780078
F800F8
F800F8
F800F0
F801F0
7C07F0
7F3FF0
3FFFF0
1FFCF0
0FF8F0
008000
ENDCHAR
STARTCHAR 0102
ENCODING 258
SWIDTH 620 0
DWIDTH 31 0
BBX 30 44 -2 0
BITMAP
0000E03C
0000F03C
0000F078
00007DF8
00007FF0
00001FC0
00000000
00000000
00001E00
00001F00
00003F00
00003F00
00007F00
00007F00
0000F780
0000F780
0001E780
0003E780
0003C780
0007C7C0
000783C0
000F83C0
000F03C0
001F03C0
001E03E0
003E01E0
003C01E0
007C01E0
00F801E0
00F801F0
01F001F0
01FFFFF0
03FFFFF0
03FFFFF0
07FFFFF8
078000F8
0F800078
0F000078
1F000078
3E00007C
3E00007C
7C00007C
7C00003C
F800003C
ENDCHAR
STARTCHAR 0103
ENCODING 259
SWIDTH 520 0
DWIDTH 26 0
BBX 23 38 1 -1
BITMAP
007800
00780E
00381E
003C3E
003FFC
001FF8
0007E0
000000
000000
000000
001F80
00FFE0
03FFF0
07FFF8
0FC0FC
0F807C
1F003C
1E003C
00003C
00003C
00003C
00FFFC
07FFFC
0FFFFC
1FC078
3E0078
7C0078
780078
F800F8
F800F8
F800F0
F801F0
7C07F0
7F3FF0
3FFFF0
1FFCF0
0FF8F0
008000
ENDCHAR
STARTCHAR 0104
ENCODING 260
SWIDTH 620 0
DWIDTH 31 0
BBX 30 47 -2 -11
BITMAP
00001E00
00001F00
00003F00
00003F00
00007F00
00007F00
0000F780
0000F780
0001E780
0003E780
0003C780
0007C7C0
000783C0
000F83C0
000F03C0
001F03C0
001E03E0
003E01E0
003C01E0
007C01E0
00F801E0
00F801F0
01F001F0
01FFFFF0
03FFFFF0
03FFFFF0
07FFFFF8
078000F8
0F800078
0F000078
1F000078
3E00007C
3E00007C
7C00007C
7C00003C
F800003C
000000F8
000001F0
000003E0
000003C0
00000780
00000780
00000780
000007F8
000007F8
000003F8
000000C0
ENDCHAR
STARTCHAR 0105
ENCODING 261
SWIDTH 520 0
DWIDTH 26 0
BBX 22 38 1 -11
BITMAP
001F80
00FFE0
03FFF0
07FFF8
0FC0FC
0F807C
1F003C
1E003C
00003C
00003C
00003C
00FFFC
07FFFC
0FFFFC
1FC078
3E0078
7C0078
780078
F800F8
F800F8
F800F0
F801F0
7C07F0
7F3FF0
3FFFF0
1FFCF0
0FF8F0
0083E0
0007C0
000F00
001F00
001E00
001E00
001E00
001FE0
001FE0
000FE0
000300
ENDCHAR
STARTCHAR 0106
ENCODING 262
SWIDTH 620 0
DWIDTH 31 0
BBX 28 47 3 -1
BITMAP
00000FC0
00001F80
00001F00
00003E00
00007C00
0000F000
0001E000
00000000
00000000
00000000
0007F800
003FFE00
00FFFF00
01FFFF80
03F80FC0
07E007E0
0FC003E0
0F8001E0
1F0001F0
1F0001F0
3E0001F0
3E0000F0
3C000000
7C000000
7C000000
78000000
78000000
F8000000
F8000000
F8000000
F8000000
F8000000
F0000000
F0000000
F0000000
F8000780
F8000F80
F8000F80
78001F00
7C001F00
3C003E00
3F00FE00
1FC3FC00
0FFFF800
07FFE000
03FF8000
00100000
ENDCHAR
STARTCHAR 0107
ENCODING 263
SWIDTH 500 0
DWIDTH 25 0
BBX 22 38 2 -1
BITMAP
0000FC
0001F8
0001F0
0003E0
0007C0
000F80
001F00
001E00
000000
000000
000000
003F00
01FFC0
03FFE0
0FFFF0
0FC1F8
1F0078
3E007C
3C003C
7C003C
78003C
780000
F80000
F80000
F00000
F00000
F00000
F00000
F00000
F00000
F800F8
F800F0
7801F0
7C03E0
3F0FE0
1FFFC0
0FFF00
07FC00
ENDCHAR
STARTCHAR 0108
ENCODING 264
SWIDTH 620 0
DWIDTH 31 0
BBX 28 47 3 -1
BITMAP
00007000
0000F800
0001F800
0003DC00
000F9E00
001F0F00
003C0700
00000000
00000000
00000000
0007F800
003FFE00
00FFFF00
01FFFF80
03F80FC0
07E007E0
0FC003E0
0F8001E0
1F0001F0
1F0001F0
3E0001F0
3E0000F0
3C000000
7C000000
7C000000
78000000
78000000
F8000000
F8000000
F8000000
F8000000
F8000000
F0000000
F0000000
F0000000
F8000780
F8000F80
F8000F80
78001F00
7C001F00
3C003E00
3F00FE00
1FC3FC00
0FFFF800
07FFE000
03FF8000
00100000
ENDCHAR
STARTCHAR 0109
ENCODING 265
SWIDTH 500 0
DWIDTH 25 0
BBX 22 38 2 -1
BITMAP
000600
000F00
001F80
003FC0
0079C0
00F1E0
01E0F0
000000
000000
000000
000000
003F00
01FFC0
03FFE0
0FFFF0
0FC1F8
1F0078
3E007C
3C003C
7C003C
78003C
780000
F80000
F80000
F00000
F00000
F00000
F00000
F00000
F00000
F800F8
F800F0
7801F0
7C03E0
3F0FE0
1FFFC0
0FFF00
07FC00
ENDCHAR
STARTCHAR 010A
ENCODING 266
SWIDTH 620 0
DWIDTH 31 0
BBX 28 45 3 -1
BITMAP
0000F000
0001F000
0001F000
0001F000
0000E000
00000000
00000000
00000000
0007F800
003FFE00
00FFFF00
01FFFF80
03F80FC0
07E007E0
0FC003E0
0F8001E0
1F0001F0
1F0001F0
3E0001F0
3E0000F0
3C000000
7C000000
7C000000
78000000
78000000
F8000000
F8000000
F8000000
F8000000
F8000000
F0000000
F0000000
F0000000
F8000780
F8000F80
F8000F80
78001F00
7C001F00
3C003E00
3F00FE00
1FC3FC00
0FFFF800
07FFE000
03FF8000
00100000
ENDCHAR
STARTCHAR 010B
ENCODING 267
SWIDTH 500 0
DWIDTH 25 0
BBX 22 36 2 -1
BITMAP
000E00
001F00
001F00
001F00
000E00
000000
000000
000000
000000
003F00
01FFC0
03FFE0
0FFFF0
0FC1F8
1F0078
3E007C
3C003C
7C003C
78003C
780000
F80000
F80000
F00000
F00000
F00000
F00000
F00000
F00000
F800F8
F800F0
7801F0
7C03E0
3F0FE0
1FFFC0
0FFF00
07FC00
ENDCHAR
STARTCHAR 010C
ENCODING 268
SWIDTH 620 0
DWIDTH 31 0
BBX 28 47 3 -1
BITMAP
001E03C0
000F0F80
00071F00
0007BE00
0003FC00
0001F800
0000E000
00000000
00000000
00000000
0007F800
003FFE00
00FFFF00
01FFFF80
03F80FC0
07E007E0
0FC003E0
0F8001E0
1F0001F0
1F0001F0
3E0001F0
3E0000F0
3C000000
7C000000
7C000000
78000000
78000000
F8000000
F8000000
F8000000
F8000000
F8000000
F0000000
F0000000
F0000000
F8000780
F8000F80
F8000F80
78001F00
7C001F00
3C003E00
3F00FE00
1FC3FC00
0FFFF800
07FFE000
03FF8000
00100000
ENDCHAR
STARTCHAR 010D
ENCODING 269
SWIDTH 500 0
DWIDTH 25 0
BBX 22 38 2 -1
BITMAP
01800C
01E078
00F0F0
0079E0
003BC0
003F80
001F00
000000
000000
000000
000000
003F00
01FFC0
03FFE0
0FFFF0
0FC1F8
1F0078
3E007C
3C003C
7C003C
78003C
780000
F80000
F80000
F00000
F00000
F00000
F00000
F00000
F00000
F800F8
F800F0
7801F0
7C03E0
3F0FE0
1FFFC0
0FFF00
07FC00
ENDCHAR
STARTCHAR 010E
ENCODING 270
SWIDTH 620 0
DWIDTH 31 0
BBX 28 45 2 0
BITMAP
001E0F80
000E1E00
000F3C00
0007F800
0003F000
0001E000
0001C000
00000000
00000000
03FF0000
07FFF000
07FFFC00
07FFFE00
07C0FF00
07801F80
078007C0
0F8003C0
0F8003E0
0F8001E0
0F0001E0
0F0001F0
0F0001F0
1F0001F0
1F0001F0
1F0001F0
1E0001F0
1E0001F0
3E0001E0
3E0001E0
3E0001E0
3E0003E0
3C0003E0
3C0003C0
7C0007C0
7C0007C0
7C000F80
7C001F80
78003F00
78007E00
F800FC00
F803F800
FFFFF000
FFFFE000
FFFF8000
FFF80000
ENDCHAR
STARTCHAR 010F
ENCODING 271
SWIDTH 620 0
DWIDTH 31 0
BBX 33 39 2 -1
BITMAP
000007C780
000007C780
000007C780
0000078780
0000078F80
0000078F00
00000F9F00
00000F9E00
00000FBC00
00000F1800
00000F0000
007E0F0000
01FF9F0000
07FFDF0000
0FFFFE0000
1FC1FE0000
1F007E0000
3E003E0000
3E003E0000
7C003E0000
7C003C0000
78003C0000
F8003C0000
F8007C0000
F8007C0000
F0007C0000
F000780000
F000780000
F000780000
F000F80000
F800F80000
F800F80000
7801F00000
7C03F00000
7F1FF00000
3FFFF00000
1FFFF00000
0FF9E00000
0080000000
ENDCHAR
STARTCHAR 0110
ENCODING 272
SWIDTH 640 0
DWIDTH 32 0
BBX 30 36 1 0
BITMAP
01FF8000
01FFFC00
01FFFF00
01FFFF80
01E03FC0
03E007E0
03E003F0
03E001F0
03E000F8
03C000F8
03C00078
07C00078
07C00078
07C00078
07C0007C
0780007C
7FFF0078
7FFF0078
FFFF0078
FFFE00F8
0F0000F8
0F0000F8
0F0000F0
1F0001F0
1F0001F0
1F0003E0
1E0003E0
1E0007C0
3E000FC0
3E001F80
3E003F00
3E01FE00
3FFFFC00
3FFFF000
7FFFC000
7FFE0000
ENDCHAR
STARTCHAR 0111
ENCODING 273
SWIDTH 560 0
DWIDTH 28 0
BBX 30 39 2 -1
BITMAP
000007C0
000007C0
000007C0
00000780
0001FFFC
0003FFF8
0003FFF8
0003FFF8
00000F80
00000F00
00000F00
007E0F00
01FF9F00
07FFDF00
0FFFFE00
1FC1FE00
1F007E00
3E003E00
3E003E00
7C003E00
7C003C00
78003C00
F8003C00
F8007C00
F8007C00
F0007C00
F0007800
F0007800
F0007800
F000F800
F800F800
F800F800
7801F000
7C03F000
7F1FF000
3FFFF000
1FFFF000
0FF9E000
00800000
ENDCHAR
STARTCHAR 0112
ENCODING 274
SWIDTH 540 0
DWIDTH 27 0
BBX 27 43 2 0
BITMAP
003FFFC0
007FFF80
007FFF80
00000000
00000000
00000000
00000000
03FFFFE0
07FFFFE0
07FFFFE0
07FFFFE0
07C00000
07800000
07800000
0F800000
0F800000
0F800000
0F000000
0F000000
0F000000
1F000000
1F000000
1F000000
1FFFFC00
1FFFFC00
3FFFFC00
3FFFFC00
3E000000
3E000000
3C000000
3C000000
7C000000
7C000000
7C000000
7C000000
78000000
78000000
F8000000
F8000000
FFFFFC00
FFFFFC00
FFFFFC00
FFFFF800
ENDCHAR
STARTCHAR 0113
ENCODING 275
SWIDTH 500 0
DWIDTH 25 0
BBX 23 35 2 -1
BITMAP
01FFFE
03FFFC
03FFFC
000000
000000
000000
000000
000000
003F00
01FFC0
03FFE0
07FFF0
0F81F8
1F00F8
3E0078
3C007C
7C003C
78003C
78003C
FFFFFC
FFFFFC
FFFFFC
FFFFFC
F00000
F00000
F00000
F80000
F80000
F80040
7C00E0
7E01F0
3F87E0
1FFFC0
0FFF80
07FE00
ENDCHAR
STARTCHAR 0114
ENCODING 276
SWIDTH 540 0
DWIDTH 27 0
BBX 27 44 2 0
BITMAP
001C0780
001C0700
001E0F00
000FFE00
0007FC00
0003F800
00000000
00000000
03FFFFE0
07FFFFE0
07FFFFE0
07FFFFE0
07C00000
07800000
07800000
0F800000
0F800000
0F800000
0F000000
0F000000
0F000000
1F000000
1F000000
1F000000
1FFFFC00
1FFFFC00
3FFFFC00
3FFFFC00
3E000000
3E000000
3C000000
3C000000
7C000000
7C000000
7C000000
7C000000
78000000
78000000
F8000000
F8000000
FFFFFC00
FFFFFC00
FFFFFC00
FFFFF800
ENDCHAR
STARTCHAR 0115
ENCODING 277
SWIDTH 500 0
DWIDTH 25 0
BBX 22 37 2 -1
BITMAP
00E000
00E03C
00F078
00F078
007FF0
003FE0
001F80
000000
000000
000000
003F00
01FFC0
03FFE0
07FFF0
0F81F8
1F00F8
3E0078
3C007C
7C003C
78003C
78003C
FFFFFC
FFFFFC
FFFFFC
FFFFFC
F00000
F00000
F00000
F80000
F80000
F80040
7C00E0
7E01F0
3F87E0
1FFFC0
0FFF80
07FE00
ENDCHAR
STARTCHAR 0116
ENCODING 278
SWIDTH 540 0
DWIDTH 27 0
BBX 27 44 2 0
BITMAP
0000E000
0001F000
0001F000
0001F000
0001E000
00000000
00000000
00000000
03FFFFE0
07FFFFE0
07FFFFE0
07FFFFE0
07C00000
07800000
07800000
0F800000
0F800000
0F800000
0F000000
0F000000
0F000000
1F000000
1F000000
1F000000
1FFFFC00
1FFFFC00
3FFFFC00
3FFFFC00
3E000000
3E000000
3C000000
3C000000
7C000000
7C000000
7C000000
7C000000
78000000
78000000
F8000000
F8000000
FFFFFC00
FFFFFC00
FFFFFC00
FFFFF800
ENDCHAR
STARTCHAR 0117
ENCODING 279
SWIDTH 500 0
DWIDTH 25 0
BBX 22 36 2 -1
BITMAP
000700
000F80
000F80
000F80
000F00
000000
000000
000000
000000
003F00
01FFC0
03FFE0
07FFF0
0F81F8
1F00F8
3E0078
3C007C
7C003C
78003C
78003C
FFFFFC
FFFFFC
FFFFFC
FFFFFC
F00000
F00000
F00000
F80000
F80000
F80040
7C00E0
7E01F0
3F87E0
1FFFC0
0FFF80
07FE00
ENDCHAR
STARTCHAR 0118
ENCODING 280
SWIDTH 540 0
DWIDTH 27 0
BBX 27 47 2 -11
BITMAP
03FFFFE0
07FFFFE0
07FFFFE0
07FFFFE0
07C00000
07800000
07800000
0F800000
0F800000
0F800000
0F000000
0F000000
0F000000
1F000000
1F000000
1F000000
1FFFFC00
1FFFFC00
3FFFFC00
3FFFFC00
3E000000
3E000000
3C000000
3C000000
7C000000
7C000000
7C000000
7C000000
78000000
78000000
F8000000
F8000000
FFFFFC00
FFFFFC00
FFFFFC00
FFFFF800
0003E000
0007C000
000F8000
000F0000
001E0000
001E0000
001E0000
001FE000
001FE000
000FE000
00010000
ENDCHAR
STARTCHAR 0119
ENCODING 281
SWIDTH 500 0
DWIDTH 25 0
BBX 22 37 2 -10
BITMAP
003F00
01FFC0
03FFE0
07FFF0
0F81F8
1F00F8
3E0078
3C007C
7C003C
78003C
78003C
FFFFFC
FFFFFC
FFFFFC
FFFFFC
F00000
F00000
F00000
F80000
F80000
F80040
7C00E0
7E01F0
3F87E0
1FFFC0
0FFF80
07FE00
007C00
00F000
01E000
01E000
03C000
03C000
03FC00
01FC00
01FC00
00F800
ENDCHAR
STARTCHAR 011A
ENCODING 282
SWIDTH 540 0
DWIDTH 27 0
BBX 27 45 2 0
BITMAP
001E0780
000E1F00
00073E00
0007FC00
0003F800
0001E000
0000C000
00000000
00000000
03FFFFE0
07FFFFE0
07FFFFE0
07FFFFE0
07C00000
07800000
07800000
0F800000
0F800000
0F800000
0F000000
0F000000
0F000000
1F000000
1F000000
1F000000
1FFFFC00
1FFFFC00
3FFFFC00
3FFFFC00
3E000000
3E000000
3C000000
3C000000
7C000000
7C000000
7C000000
7C000000
78000000
78000000
F8000000
F8000000
FFFFFC00
FFFFFC00
FFFFFC00
FFFFF800
ENDCHAR
STARTCHAR 011B
ENCODING 283
SWIDTH 500 0
DWIDTH 25 0
BBX 22 38 2 -1
BITMAP
00C004
00F07C
0078F8
0039F0
003FC0
001F80
000F00
000000
000000
000000
000000
003F00
01FFC0
03FFE0
07FFF0
0F81F8
1F00F8
3E0078
3C007C
7C003C
78003C
78003C
FFFFFC
FFFFFC
FFFFFC
FFFFFC
F00000
F00000
F00000
F80000
F80000
F80040
7C00E0
7E01F0
3F87E0
1FFFC0
0FFF80
07FE00
ENDCHAR
STARTCHAR 011C
ENCODING 284
SWIDTH 660 0
DWIDTH 33 0
BBX 28 47 3 -1
BITMAP
0000F000
0001F000
0003F800
0007BC00
000F1E00
001E0E00
003C0F00
00000000
00000000
00000000
0007F800
003FFE00
00FFFF80
01FFFFC0
03F80FC0
07E003E0
0FC003E0
0F8001F0
1F0001F0
1F0000F0
3E0000F0
3E000000
3C000000
7C000000
7C000000
7C000000
78000000
78000000
F803FFE0
F803FFE0
F803FFE0
F803FFE0
F80003C0
F80003C0
F80007C0
F80007C0
F80007C0
780007C0
7C000780
7C000F80
3E000F80
3F003F80
1FE1FF00
0FFFFE00
07FFF800
01FFE000
00080000
ENDCHAR
STARTCHAR 011D
ENCODING 285
SWIDTH 540 0
DWIDTH 27 0
BBX 26 48 0 -11
BITMAP
0000C000
0001E000
0003F000
0007F000
001F3800
003E3C00
00781E00
00000000
00000000
00000000
00000000
001F8000
007FE3C0
01FFF7C0
03FFFFC0
07F07F80
07C01F80
0F800F80
0F800F80
1F000F80
1F000F00
1E000F00
3E000F00
3E001F00
3E001F00
3C001F00
3C001E00
3C001E00
3C001E00
3C003E00
3E003E00
3E003E00
1E007C00
1F00FC00
1FC7FC00
0FFFFC00
07FFFC00
03FE7C00
00207800
00007800
0000F800
2000F000
7001F000
F803E000
7E1FC000
3FFFC000
1FFF0000
07FC0000
ENDCHAR
STARTCHAR 011E
ENCODING 286
SWIDTH 660 0
DWIDTH 33 0
BBX 28 46 3 -1
BITMAP
001E0780
001E0780
001E0F80
000F1F00
000FFE00
0003FC00
00006000
00000000
00000000
0007F800
003FFE00
00FFFF80
01FFFFC0
03F80FC0
07E003E0
0FC003E0
0F8001F0
1F0001F0
1F0000F0
3E0000F0
3E000000
3C000000
7C000000
7C000000
7C000000
78000000
78000000
F803FFE0
F803FFE0
F803FFE0
F803FFE0
F80003C0
F80003C0
F80007C0
F80007C0
F80007C0
780007C0
7C000780
7C000F80
3E000F80
3F003F80
1FE1FF00
0FFFFE00
07FFF800
01FFE000
00080000
ENDCHAR
STARTCHAR 011F
ENCODING 287
SWIDTH 540 0
DWIDTH 27 0
BBX 26 47 0 -11
BITMAP
00380000
00380F00
003C0E00
003C1E00
001FFC00
000FF800
0007F000
00000000
00000000
00000000
001F8000
007FE3C0
01FFF7C0
03FFFFC0
07F07F80
07C01F80
0F800F80
0F800F80
1F000F80
1F000F00
1E000F00
3E000F00
3E001F00
3E001F00
3C001F00
3C001E00
3C001E00
3C001E00
3C003E00
3E003E00
3E003E00
1E007C00
1F00FC00
1FC7FC00
0FFFFC00
07FFFC00
03FE7C00
00207800
00007800
0000F800
2000F000
7001F000
F803E000
7E1FC000
3FFFC000
1FFF0000
07FC0000
ENDCHAR
STARTCHAR 0120
ENCODING 288
SWIDTH 660 0
DWIDTH 33 0
BBX 28 45 3 -1
BITMAP
0000F000
0001F000
0001F000
0001F000
0000E000
00000000
00000000
00000000
0007F800
003FFE00
00FFFF80
01FFFFC0
03F80FC0
07E003E0
0FC003E0
0F8001F0
1F0001F0
1F0000F0
3E0000F0
3E000000
3C000000
7C000000
7C000000
7C000000
78000000
78000000
F803FFE0
F803FFE0
F803FFE0
F803FFE0
F80003C0
F80003C0
F80007C0
F80007C0
F80007C0
780007C0
7C000780
7C000F80
3E000F80
3F003F80
1FE1FF00
0FFFFE00
07FFF800
01FFE000
00080000
ENDCHAR
STARTCHAR 0121
ENCODING 289
SWIDTH 540 0
DWIDTH 27 0
BBX 26 46 0 -11
BITMAP
0001C000
0003E000
0003E000
0003E000
0001C000
00000000
00000000
00000000
00000000
001F8000
007FE3C0
01FFF7C0
03FFFFC0
07F07F80
07C01F80
0F800F80
0F800F80
1F000F80
1F000F00
1E000F00
3E000F00
3E001F00
3E001F00
3C001F00
3C001E00
3C001E00
3C001E00
3C003E00
3E003E00
3E003E00
1E007C00
1F00FC00
1FC7FC00
0FFFFC00
07FFFC00
03FE7C00
00207800
00007800
0000F800
2000F000
7001F000
F803E000
7E1FC000
3FFFC000
1FFF0000
07FC0000
ENDCHAR
STARTCHAR 0122
ENCODING 290
SWIDTH 660 0
DWIDTH 33 0
BBX 28 49 3 -13
BITMAP
0007F800
003FFE00
00FFFF80
01FFFFC0
03F80FC0
07E003E0
0FC003E0
0F8001F0
1F0001F0
1F0000F0
3E0000F0
3E000000
3C000000
7C000000
7C000000
7C000000
78000000
78000000
F803FFE0
F803FFE0
F803FFE0
F803FFE0
F80003C0
F80003C0
F80007C0
F80007C0
F80007C0
780007C0
7C000780
7C000F80
3E000F80
3F003F80
1FE1FF00
0FFFFE00
07FFF800
01FFE000
00080000
00000000
00000000
00780000
00780000
00780000
00F80000
00F00000
00F00000
01E00000
03E00000
01C00000
00800000
ENDCHAR
STARTCHAR 0123
ENCODING 291
SWIDTH 540 0
DWIDTH 27 0
BBX 26 51 0 -11
BITMAP
00002000
00007000
0000F800
0001F000
0001E000
0003E000
0003E000
0003E000
0003C000
0003C000
00000000
00000000
00000000
00000000
001F8000
007FE3C0
01FFF7C0
03FFFFC0
07F07F80
07C01F80
0F800F80
0F800F80
1F000F80
1F000F00
1E000F00
3E000F00
3E001F00
3E001F00
3C001F00
3C001E00
3C001E00
3C001E00
3C003E00
3E003E00
3E003E00
1E007C00
1F00FC00
1FC7FC00
0FFFFC00
07FFFC00
03FE7C00
00207800
00007800
0000F800
2000F000
7001F000
F803E000
7E1FC000
3FFFC000
1FFF0000
07FC0000
ENDCHAR
STARTCHAR 0124
ENCODING 292
SWIDTH 680 0
DWIDTH 34 0
BBX 32 45 2 0
BITMAP
00003C00
00007E00
0000FE00
0001E700
0003C780
000783C0
000F01C0
00000000
00000000
03C0000F
07C0001F
07C0001F
07C0001F
07C0001E
0780001E
0780001E
0F80003E
0F80003E
0F80003E
0F00003C
0F00003C
0F00007C
1F00007C
1F00007C
1F00007C
1FFFFFF8
1FFFFFF8
3FFFFFF8
3FFFFFF8
3E0000F8
3E0000F8
3C0000F0
3C0000F0
7C0001F0
7C0001F0
7C0001F0
7C0001E0
780001E0
780001E0
F80003E0
F80003E0
F80003E0
F80003C0
F00003C0
F00007C0
ENDCHAR
STARTCHAR 0125
ENCODING 293
SWIDTH 520 0
DWIDTH 26 0
BBX 23 45 1 0
BITMAP
0003C0
0007E0
000FE0
001E70
003C78
00783C
00F01C
03E000
03E000
03C000
03C000
03C000
07C000
07C000
07C000
078000
078000
078000
0F87E0
0FBFF0
0F7FF8
0FFFFC
0FE07C
0FC03E
1F803E
1F003E
1E003E
1E003E
1E003E
3E003E
3E003C
3E003C
3C003C
3C007C
3C007C
7C007C
7C0078
7C0078
780078
7800F8
7800F8
F800F8
F800F0
F000F0
F000F0
ENDCHAR
STARTCHAR 0126
ENCODING 294
SWIDTH 660 0
DWIDTH 33 0
BBX 35 36 1 0
BITMAP
03E0000F80
03E0000F80
03E0000F80
03E0000F80
03C0000F00
03C0000F00
07C0001F00
07C0001F00
3FFFFFFFE0
3FFFFFFFE0
3FFFFFFFC0
0780001E00
0F80003E00
0F80003E00
0F80003E00
0F00003C00
0FFFFFFC00
0FFFFFFC00
1FFFFFFC00
1FFFFFFC00
1F00007C00
1E00007800
1E00007800
3E0000F800
3E0000F800
3E0000F800
3E0000F800
3C0000F000
3C0000F000
7C0001F000
7C0001F000
7C0001F000
7C0001E000
780001E000
780001E000
F80003E000
ENDCHAR
STARTCHAR 0127
ENCODING 295
SWIDTH 540 0
DWIDTH 27 0
BBX 23 38 2 0
BITMAP
03C000
03C000
03C000
03C000
7FFF00
7FFF00
7FFF00
7FFF00
078000
0F8000
0F8000
0F8FC0
0F3FF0
0F7FF8
0FFFFC
1FE07C
1F803C
1F003E
1F003E
1E003E
1E003E
3E003C
3E003C
3C003C
3C003C
3C007C
3C007C
7C0078
7C0078
780078
780078
7800F8
F800F8
F800F0
F800F0
F000F0
F001F0
F001F0
ENDCHAR
STARTCHAR 0128
ENCODING 296
SWIDTH 260 0
DWIDTH 13 0
BBX 18 45 2 0
BITMAP
0401C0
1F81C0
3FE3C0
7FFF80
78FF80
703E00
E00000
000000
000000
03E000
03C000
03C000
07C000
07C000
07C000
07C000
078000
078000
0F8000
0F8000
0F8000
0F0000
0F0000
0F0000
1F0000
1F0000
1F0000
1E0000
1E0000
3E0000
3E0000
3E0000
3E0000
3C0000
3C0000
7C0000
7C0000
7C0000
7C0000
780000
780000
F80000
F80000
F80000
F00000
ENDCHAR
STARTCHAR 0129
ENCODING 297
SWIDTH 240 0
DWIDTH 12 0
BBX 18 37 0 0
BITMAP
0601C0
1F83C0
3FE7C0
7FFF80
78FF00
703E00
E00000
000000
000000
000000
000000
03C000
07C000
07C000
078000
078000
078000
078000
0F8000
0F8000
0F0000
0F0000
0F0000
1F0000
1F0000
1F0000
1E0000
1E0000
1E0000
3E0000
3E0000
3E0000
3C0000
3C0000
3C0000
7C0000
7C0000
ENDCHAR
STARTCHAR 012A
ENCODING 298
SWIDTH 260 0
DWIDTH 13 0
BBX 17 43 2 0
BITMAP
3FFF80
7FFF80
7FFF80
000000
000000
000000
000000
03E000
03C000
03C000
07C000
07C000
07C000
07C000
078000
078000
0F8000
0F8000
0F8000
0F0000
0F0000
0F0000
1F0000
1F0000
1F0000
1E0000
1E0000
3E0000
3E0000
3E0000
3E0000
3C0000
3C0000
7C0000
7C0000
7C0000
7C0000
780000
780000
F80000
F80000
F80000
F00000
ENDCHAR
STARTCHAR 012B
ENCODING 299
SWIDTH 240 0
DWIDTH 12 0
BBX 16 35 1 0
BITMAP
7FFF
FFFF
FFFF
0000
0000
0000
0000
0000
0000
0780
0F80
0F80
0F00
0F00
0F00
0F00
1F00
1F00
1E00
1E00
1E00
3E00
3E00
3E00
3C00
3C00
3C00
7C00
7C00
7C00
7800
7800
7800
F800
F800
ENDCHAR
STARTCHAR 012C
ENCODING 300
SWIDTH 260 0
DWIDTH 13 0
BBX 17 44 2 0
BITMAP
1C0780
1C0F00
1E0F00
0FFE00
0FFC00
03F800
000000
000000
03E000
03C000
03C000
07C000
07C000
07C000
07C000
078000
078000
0F8000
0F8000
0F8000
0F0000
0F0000
0F0000
1F0000
1F0000
1F0000
1E0000
1E0000
3E0000
3E0000
3E0000
3E0000
3C0000
3C0000
7C0000
7C0000
7C0000
7C0000
780000
780000
F80000
F80000
F80000
F00000
ENDCHAR
STARTCHAR 012D
ENCODING 301
SWIDTH 240 0
DWIDTH 12 0
BBX 16 36 1 0
BITMAP
380F
381E
3C3E
1FFC
0FF8
07E0
0000
0000
0000
0000
0780
0F80
0F80
0F00
0F00
0F00
0F00
1F00
1F00
1E00
1E00
1E00
3E00
3E00
3E00
3C00
3C00
3C00
7C00
7C00
7C00
7800
7800
7800
F800
F800
ENDCHAR
STARTCHAR 012E
ENCODING 302
SWIDTH 260 0
DWIDTH 13 0
BBX 16 46 -3 -10
BITMAP
001F
001E
001E
003E
003E
003E
003E
003C
003C
007C
007C
007C
0078
0078
0078
00F8
00F8
00F8
00F0
00F0
01F0
01F0
01F0
01F0
01E0
01E0
03E0
03E0
03E0
03E0
03C0
03C0
07C0
07C0
07C0
0780
1F00
3E00
7C00
7800
F000
F000
F000
FF00
7F00
3F00
ENDCHAR
STARTCHAR 012F
ENCODING 303
SWIDTH 220 0
DWIDTH 11 0
BBX 16 47 -4 -11
BITMAP
000E
001F
001F
001F
001E
0000
0000
0000
0000
0000
003C
007C
007C
0078
0078
0078
0078
00F8
00F8
00F0
00F0
00F0
01F0
01F0
01F0
01E0
01E0
01E0
03E0
03E0
03E0
03C0
03C0
03C0
07C0
07C0
0F80
1E00
3C00
7800
7800
F000
F800
7F00
7F00
3F00
0800
ENDCHAR
STARTCHAR 0130
ENCODING 304
SWIDTH 260 0
DWIDTH 13 0
BBX 12 44 2 0
BITMAP
00E0
01F0
01F0
01F0
01E0
0000
0000
0000
03E0
03C0
03C0
07C0
07C0
07C0
07C0
0780
0780
0F80
0F80
0F80
0F00
0F00
0F00
1F00
1F00
1F00
1E00
1E00
3E00
3E00
3E00
3E00
3C00
3C00
7C00
7C00
7C00
7C00
7800
7800
F800
F800
F800
F000
ENDCHAR
STARTCHAR 0131
ENCODING 305
SWIDTH 240 0
DWIDTH 12 0
BBX 9 26 1 0
BITMAP
0780
0F80
0F80
0F00
0F00
0F00
0F00
1F00
1F00
1E00
1E00
1E00
3E00
3E00
3E00
3C00
3C00
3C00
7C00
7C00
7C00
7800
7800
7800
F800
F800
ENDCHAR
STARTCHAR 0132
ENCODING 306
SWIDTH 780 0
DWIDTH 39 0
BBX 38 37 2 -1
BITMAP
03E000007C
03C000007C
03C000007C
07C0000078
07C0000078
07C00000F8
07C00000F8
07800000F8
07800000F0
0F800000F0
0F800000F0
0F800001F0
0F000001F0
0F000001F0
0F000001E0
1F000001E0
1F000001E0
1F000003E0
1E000003E0
1E000003E0
3E000003C0
3E000003C0
3E000003C0
3E000007C0
3C000007C0
3C000007C0
7C0F000780
7C0F000F80
7C0F000F80
7C0F801F80
780F801F00
780FC03E00
F807F1FE00
F803FFFC00
F801FFF000
F000FFE000
0000060000
ENDCHAR
STARTCHAR 0133
ENCODING 307
SWIDTH 460 0
DWIDTH 23 0
BBX 22 47 1 -11
BITMAP
01C038
03E07C
03E07C
03E07C
03C038
000000
000000
000000
000000
000000
0780F8
0F80F0
0F80F0
0F00F0
0F01F0
0F01F0
0F01F0
1F01E0
1F01E0
1E01E0
1E03E0
1E03E0
3E03E0
3E03C0
3E03C0
3C03C0
3C07C0
3C07C0
7C07C0
7C0780
7C0780
780780
780F80
780F80
F80F80
F80F00
000F00
001F00
001F00
001F00
001E00
003E00
007E00
07FC00
07FC00
07F000
03C000
ENDCHAR
STARTCHAR 0134
ENCODING 308
SWIDTH 520 0
DWIDTH 26 0
BBX 32 46 0 -1
BITMAP
000001E0
000003F0
000007F0
00000F38
00001E3C
00003C1E
0000780F
00000000
00000000
000003E0
000003C0
000003C0
000003C0
000007C0
000007C0
000007C0
00000780
00000780
00000780
00000F80
00000F80
00000F80
00000F00
00000F00
00000F00
00001F00
00001F00
00001F00
00001E00
00001E00
00003E00
00003E00
00003E00
00003E00
00003C00
F8003C00
F8007C00
F8007C00
7800F800
7C00F800
7E03F000
3F8FE000
3FFFC000
0FFF8000
07FE0000
00200000
ENDCHAR
STARTCHAR 0135
ENCODING 309
SWIDTH 240 0
DWIDTH 12 0
BBX 22 48 -6 -11
BITMAP
000180
0003C0
0007E0
001FE0
003E70
007C78
00F03C
000000
000000
000000
000000
000F00
000F00
000F00
001F00
001F00
001F00
001E00
001E00
001E00
003E00
003E00
003E00
003C00
003C00
003C00
007C00
007C00
007C00
007800
007800
007800
00F800
00F800
00F000
00F000
00F000
00F000
01F000
01F000
01E000
01E000
03E000
07C000
7FC000
FF8000
FF0000
780000
ENDCHAR
STARTCHAR 0136
ENCODING 310
SWIDTH 600 0
DWIDTH 30 0
BBX 31 46 2 -10
BITMAP
03C0007E
07C000FC
07C001F8
07C003F0
07C007E0
07800FC0
07801F80
0F803F00
0F807E00
0F80FC00
0F01F800
0F03F000
0F07E000
1F0FC000
1F1F8000
1F3F0000
1E7E0000
1FFE0000
3FFF0000
3FFF0000
3FCF8000
3F8FC000
3F07C000
3E03E000
7C03E000
7C01F000
7C01F000
7C00F800
7800FC00
78007C00
F8003E00
F8003E00
F8001F00
F8001F00
F0000F80
F0000F80
00000000
00780000
00780000
00F80000
00F00000
00F00000
01E00000
03E00000
03C00000
01800000
ENDCHAR
STARTCHAR 0137
ENCODING 311
SWIDTH 480 0
DWIDTH 24 0
BBX 24 48 1 -11
BITMAP
03E000
03E000
03C000
03C000
03C000
07C000
07C000
07C000
078000
078000
078000
0F8000
0F803F
0F807E
0F00FC
0F01F0
0F03E0
1F0FC0
1F1F80
1E3F00
1E7E00
1EFC00
3FF800
3FF800
3FF800
3FFC00
3F3E00
3E3E00
7C1F00
7C1F00
7C0F80
780F80
7807C0
7803C0
F803E0
F801F0
F001F0
F000F8
000000
01E000
03E000
03E000
03C000
03C000
078000
078000
0F0000
0E0000
ENDCHAR
STARTCHAR 0138
ENCODING 312
SWIDTH 540 0
DWIDTH 27 0
BBX 26 26 1 0
BITMAP
07800FC0
0F803F00
0F807E00
0F00FC00
0F01F800
0F03F000
0F07E000
1F0FC000
1F1F8000
1E3F0000
1E7E0000
1FFC0000
3FF80000
3FFC0000
3FFC0000
3C3E0000
3C3F0000
3C1F0000
7C0F8000
7C0FC000
7C07C000
7803E000
7803F000
7801F000
F800F800
F8007C00
ENDCHAR
STARTCHAR 0139
ENCODING 313
SWIDTH 520 0
DWIDTH 26 0
BBX 21 45 2 0
BITMAP
001F80
003F00
007C00
007800
00F000
01E000
03C000
000000
000000
03C000
07C000
07C000
07C000
07C000
078000
078000
0F8000
0F8000
0F8000
0F0000
0F0000
0F0000
1F0000
1F0000
1F0000
1E0000
1E0000
3E0000
3E0000
3E0000
3E0000
3C0000
3C0000
7C0000
7C0000
7C0000
7C0000
780000
780000
F80000
F80000
FFFFF8
FFFFF8
FFFFF8
FFFFF0
ENDCHAR
STARTCHAR 013A
ENCODING 314
SWIDTH 220 0
DWIDTH 11 0
BBX 18 47 1 0
BITMAP
000FC0
001F00
003E00
007C00
007800
00F000
01E000
000000
000000
01E000
03E000
03E000
03E000
03C000
03C000
03C000
07C000
07C000
07C000
078000
078000
078000
0F8000
0F8000
0F0000
0F0000
0F0000
0F0000
1F0000
1F0000
1E0000
1E0000
1E0000
3E0000
3E0000
3E0000
3C0000
3C0000
3C0000
7C0000
7C0000
7C0000
780000
780000
780000
F80000
F80000
ENDCHAR
STARTCHAR 013B
ENCODING 315
SWIDTH 520 0
DWIDTH 26 0
BBX 21 48 2 -12
BITMAP
03C000
07C000
07C000
07C000
07C000
078000
078000
0F8000
0F8000
0F8000
0F0000
0F0000
0F0000
1F0000
1F0000
1F0000
1E0000
1E0000
3E0000
3E0000
3E0000
3E0000
3C0000
3C0000
7C0000
7C0000
7C0000
7C0000
780000
780000
F80000
F80000
FFFFF8
FFFFF8
FFFFF8
FFFFF0
000000
000000
000000
01F000
01F000
01E000
01E000
03E000
03C000
07C000
0F8000
030000
ENDCHAR
STARTCHAR 013C
ENCODING 316
SWIDTH 220 0
DWIDTH 11 0
BBX 14 50 -2 -12
BITMAP
003C
007C
007C
007C
0078
0078
0078
00F8
00F8
00F8
00F0
00F0
00F0
01F0
01F0
01E0
01E0
01E0
01E0
03E0
03E0
03C0
03C0
03C0
07C0
07C0
07C0
0780
0780
0780
0F80
0F80
0F80
0F00
0F00
0F00
1F00
1F00
0000
0000
0000
1E00
3E00
3E00
3C00
7C00
7800
F800
F000
6000
ENDCHAR
STARTCHAR 013D
ENCODING 317
SWIDTH 520 0
DWIDTH 26 0
BBX 21 36 2 0
BITMAP
03C078
07C0F8
07C0F8
07C0F0
07C0F0
0781F0
0781E0
0F83E0
0F83C0
0F8180
0F0000
0F0000
0F0000
1F0000
1F0000
1F0000
1E0000
1E0000
3E0000
3E0000
3E0000
3E0000
3C0000
3C0000
7C0000
7C0000
7C0000
7C0000
780000
780000
F80000
F80000
FFFFF8
FFFFF8
FFFFF8
FFFFF0
ENDCHAR
STARTCHAR 013E
ENCODING 318
SWIDTH 300 0
DWIDTH 15 0
BBX 19 38 1 0
BITMAP
01E1E0
03E1E0
03E1E0
03E3E0
03C3C0
03C3C0
03C780
07CF80
07CF00
07C600
078000
078000
078000
0F8000
0F8000
0F0000
0F0000
0F0000
0F0000
1F0000
1F0000
1E0000
1E0000
1E0000
3E0000
3E0000
3E0000
3C0000
3C0000
3C0000
7C0000
7C0000
7C0000
780000
780000
780000
F80000
F80000
ENDCHAR
STARTCHAR 013F
ENCODING 319
SWIDTH 520 0
DWIDTH 26 0
BBX 21 36 2 0
BITMAP
03C000
07C000
07C000
07C000
07C000
078000
078000
0F8000
0F8000
0F8000
0F0000
0F0000
0F0000
1F0000
1F0380
1F07C0
1E07C0
1E07C0
3E0780
3E0000
3E0000
3E0000
3C0000
3C0000
7C0000
7C0000
7C0000
7C0000
780000
780000
F80000
F80000
FFFFF8
FFFFF8
FFFFF8
FFFFF0
ENDCHAR
STARTCHAR 0140
ENCODING 320
SWIDTH 340 0
DWIDTH 17 0
BBX 16 38 1 0
BITMAP
01E0
03E0
03E0
03E0
03C0
03C0
03C0
07C0
07C0
07C0
0780
0780
0780
0F80
0F80
0F00
0F0C
0F1E
0F1F
1F1F
1F1E
1E04
1E00
1E00
3E00
3E00
3E00
3C00
3C00
3C00
7C00
7C00
7C00
7800
7800
7800
F800
F800
ENDCHAR
STARTCHAR 0141
ENCODING 321
SWIDTH 520 0
DWIDTH 26 0
BBX 22 36 1 0
BITMAP
01E000
03E000
03E000
03E000
03E000
03C000
03C000
07C000
07C000
07C000
078000
078000
078000
0F8200
0F9E00
0FFE00
0FFE00
7FE000
FF0000
FF0000
DF0000
1F0000
1E0000
1E0000
3E0000
3E0000
3E0000
3E0000
3C0000
3C0000
7C0000
7C0000
7FFFFC
7FFFFC
7FFFFC
7FFFF8
ENDCHAR
STARTCHAR 0142
ENCODING 322
SWIDTH 260 0
DWIDTH 13 0
BBX 13 38 1 0
BITMAP
01F0
01E0
01E0
01E0
03E0
03E0
03E0
03C0
03C0
03C0
07C0
07C0
07C0
0780
0780
0788
0FF8
0FF0
0FF0
7F80
FF00
FF00
9F00
1F00
1E00
1E00
1E00
1E00
3E00
3E00
3C00
3C00
3C00
7C00
7C00
7C00
7800
7800
ENDCHAR
STARTCHAR 0143
ENCODING 323
SWIDTH 680 0
DWIDTH 34 0
BBX 32 45 2 0
BITMAP
000003E0
000007C0
00000F80
00000F00
00001E00
00003C00
00007800
00000000
00000000
03C0000F
07E0001F
07E0001F
07E0001F
07F0001E
07F0001E
07F8001E
0FF8003E
0FFC003E
0FFC003E
0F3E003C
0F3E003C
0F1F003C
1F1F007C
1F0F807C
1F0F807C
1E078078
1E07C078
3E07C0F8
3E03E0F8
3E03E0F8
3E01F0F8
3C01F0F0
3C00F8F0
7C00F9F0
7C007DF0
7C007DF0
7C003FE0
78003FE0
78001FE0
F8001FE0
F8001FE0
F8000FE0
F8000FC0
F00007C0
F00007C0
ENDCHAR
STARTCHAR 0144
ENCODING 324
SWIDTH 520 0
DWIDTH 26 0
BBX 24 38 1 0
BITMAP
00003F
00003E
00007C
0000F8
0001F0
0003E0
0003C0
000780
000000
000000
000000
0007E0
0F3FF0
0F7FF8
0FFFFC
0FE07C
0FC03E
1F803E
1F003E
1E003E
1E003E
1E003E
3E003E
3E003C
3E003C
3C003C
3C007C
3C007C
7C007C
7C0078
7C0078
780078
7800F8
7800F8
F800F8
F800F0
F000F0
F000F0
ENDCHAR
STARTCHAR 0145
ENCODING 325
SWIDTH 680 0
DWIDTH 34 0
BBX 32 48 2 -12
BITMAP
03C0000F
07E0001F
07E0001F
07E0001F
07F0001E
07F0001E
07F8001E
0FF8003E
0FFC003E
0FFC003E
0F3E003C
0F3E003C
0F1F003C
1F1F007C
1F0F807C
1F0F807C
1E078078
1E07C078
3E07C0F8
3E03E0F8
3E03E0F8
3E01F0F8
3C01F0F0
3C00F8F0
7C00F9F0
7C007DF0
7C007DF0
7C003FE0
78003FE0
78001FE0
F8001FE0
F8001FE0
F8000FE0
F8000FC0
F00007C0
F00007C0
00000000
00000000
00000000
003C0000
003C0000
007C0000
00780000
00780000
00F80000
00F00000
01E00000
00C00000
ENDCHAR
STARTCHAR 0146
ENCODING 326
SWIDTH 520 0
DWIDTH 26 0
BBX 23 39 1 -12
BITMAP
0007E0
0F3FF0
0F7FF8
0FFFFC
0FE07C
0FC03E
1F803E
1F003E
1E003E
1E003E
1E003E
3E003E
3E003C
3E003C
3C003C
3C007C
3C007C
7C007C
7C0078
7C0078
780078
7800F8
7800F8
F800F8
F800F0
F000F0
F000F0
000000
000000
000000
01E000
01E000
01E000
03E000
03C000
07C000
078000
0F0000
070000
ENDCHAR
STARTCHAR 0147
ENCODING 327
SWIDTH 680 0
DWIDTH 34 0
BBX 32 45 2 0
BITMAP
000781E0
0003C3C0
0001C780
0000EF00
0000FE00
00007C00
00003800
00000000
00000000
03C0000F
07E0001F
07E0001F
07E0001F
07F0001E
07F0001E
07F8001E
0FF8003E
0FFC003E
0FFC003E
0F3E003C
0F3E003C
0F1F003C
1F1F007C
1F0F807C
1F0F807C
1E078078
1E07C078
3E07C0F8
3E03E0F8
3E03E0F8
3E01F0F8
3C01F0F0
3C00F8F0
7C00F9F0
7C007DF0
7C007DF0
7C003FE0
78003FE0
78001FE0
F8001FE0
F8001FE0
F8000FE0
F8000FC0
F00007C0
F00007C0
ENDCHAR
STARTCHAR 0148
ENCODING 328
SWIDTH 520 0
DWIDTH 26 0
BBX 24 38 1 0
BITMAP
007003
00381E
003C3C
001E78
000EF0
0007E0
0007C0
000000
000000
000000
000000
0007E0
0F3FF0
0F7FF8
0FFFFC
0FE07C
0FC03E
1F803E
1F003E
1E003E
1E003E
1E003E
3E003E
3E003C
3E003C
3C003C
3C007C
3C007C
7C007C
7C0078
7C0078
780078
7800F8
7800F8
F800F8
F800F0
F000F0
F000F0
ENDCHAR
STARTCHAR 0149
ENCODING 329
SWIDTH 520 0
DWIDTH 26 0
BBX 23 38 1 0
BITMAP
1E0000
1E0000
1E0000
3E0000
3C0000
3C0000
7C0000
780000
F00000
600000
000000
0007E0
0F3FF0
0F7FF8
0FFFFC
0FE07C
0FC03E
1F803E
1F003E
1E003E
1E003E
1E003E
3E003E
3E003C
3E003C
3C003C
3C007C
3C007C
7C007C
7C0078
7C0078
780078
7800F8
7800F8
F800F8
F800F0
F000F0
F000F0
ENDCHAR
STARTCHAR 014A
ENCODING 330
SWIDTH 660 0
DWIDTH 33 0
BBX 33 47 1 -11
BITMAP
03E0000F80
03E0000F00
03F0000F00
03F0001F00
03F8001F00
03F8001F00
07FC001F00
07FC001E00
07FC001E00
07BE003E00
079E003E00
079F003E00
0F8F003E00
0F8F803C00
0F8F803C00
0F07C07C00
0F07C07C00
1F03C07C00
1F03E07C00
1F01E07800
1F01F07800
1E00F0F800
1E00F8F800
3E00F8F800
3E007CF800
3E007CF000
3E003CF000
3C003FF000
3C001FF000
7C001FF000
7C000FE000
7C000FE000
7C000FE000
780007E000
780007E000
F80003E000
000003C000
000003C000
000007C000
000007C000
000007C000
00000F8000
00001F8000
0001FF0000
0001FE0000
0003FC0000
0001F00000
ENDCHAR
STARTCHAR 014B
ENCODING 331
SWIDTH 540 0
DWIDTH 27 0
BBX 23 38 1 -11
BITMAP
0007E0
0F1FF0
0F7FFC
0FFFFC
0FE07E
0F803E
1F003E
1F001E
1F001E
1E001E
1E001E
1E001E
3E003E
3E003E
3C003E
3C003C
3C003C
3C003C
7C007C
7C007C
78007C
780078
780078
780078
F800F8
F800F8
F000F8
0000F0
0000F0
0000F0
0001F0
0001F0
0003E0
0007E0
007FC0
007F80
00FF00
007C00
ENDCHAR
STARTCHAR 014C
ENCODING 332
SWIDTH 660 0
DWIDTH 33 0
BBX 28 44 3 -1
BITMAP
001FFFE0
001FFFC0
003FFFC0
00000000
00000000
00000000
00000000
0007F800
003FFE00
007FFF00
01FFFF80
03F80FC0
07E007E0
07C003E0
0F8001E0
1F0001F0
1F0001F0
3E0000F0
3E0000F0
3C0000F0
7C0000F0
7C0000F0
780000F0
780000F0
F80000F0
F80001F0
F80001F0
F80001F0
F80001F0
F80001E0
F80003E0
F80003E0
F80003C0
F80007C0
78000780
7C000F80
7C001F00
3E003E00
3F00FE00
1FE7FC00
0FFFF800
07FFE000
01FF8000
00100000
ENDCHAR
STARTCHAR 014D
ENCODING 333
SWIDTH 540 0
DWIDTH 27 0
BBX 23 36 2 -1
BITMAP
01FFFE
01FFFE
01FFFE
000000
000000
000000
000000
000000
003F00
01FFC0
03FFF0
07FFF8
0FC0F8
1F007C
3E003C
3E003E
7C001E
7C001E
78001E
F8001E
F8001E
F0001E
F0001E
F0001E
F0003E
F0003E
F0003C
F8007C
7800F8
7C00F8
7E03F0
3F0FE0
1FFFC0
0FFF80
07FE00
002000
ENDCHAR
STARTCHAR 014E
ENCODING 334
SWIDTH 660 0
DWIDTH 33 0
BBX 28 45 3 -1
BITMAP
000E03C0
000E0380
000F0780
0007DF00
0007FF00
0001FC00
00000000
00000000
0007F800
003FFE00
007FFF00
01FFFF80
03F80FC0
07E007E0
07C003E0
0F8001E0
1F0001F0
1F0001F0
3E0000F0
3E0000F0
3C0000F0
7C0000F0
7C0000F0
780000F0
780000F0
F80000F0
F80001F0
F80001F0
F80001F0
F80001F0
F80001E0
F80003E0
F80003E0
F80003C0
F80007C0
78000780
7C000F80
7C001F00
3E003E00
3F00FE00
1FE7FC00
0FFFF800
07FFE000
01FF8000
00100000
ENDCHAR
STARTCHAR 014F
ENCODING 335
SWIDTH 540 0
DWIDTH 27 0
BBX 23 38 2 -1
BITMAP
00F004
00F03C
00F03C
00F078
007FF0
003FE0
000FC0
000000
000000
000000
003F00
01FFC0
03FFF0
07FFF8
0FC0F8
1F007C
3E003C
3E003E
7C001E
7C001E
78001E
F8001E
F8001E
F0001E
F0001E
F0001E
F0003E
F0003E
F0003C
F8007C
7800F8
7C00F8
7E03F0
3F0FE0
1FFFC0
0FFF80
07FE00
002000
ENDCHAR
STARTCHAR 0150
ENCODING 336
SWIDTH 660 0
DWIDTH 33 0
BBX 30 46 3 -1
BITMAP
00007CFC
0000F8F8
0001F1F0
0003E3E0
0003C7C0
00078F80
000F1E00
00000000
00000000
0007F800
003FFE00
007FFF00
01FFFF80
03F80FC0
07E007E0
07C003E0
0F8001E0
1F0001F0
1F0001F0
3E0000F0
3E0000F0
3C0000F0
7C0000F0
7C0000F0
780000F0
780000F0
F80000F0
F80001F0
F80001F0
F80001F0
F80001F0
F80001E0
F80003E0
F80003E0
F80003C0
F80007C0
78000780
7C000F80
7C001F00
3E003E00
3F00FE00
1FE7FC00
0FFFF800
07FFE000
01FF8000
00100000
ENDCHAR
STARTCHAR 0151
ENCODING 337
SWIDTH 540 0
DWIDTH 27 0
BBX 26 38 2 -1
BITMAP
0007CFC0
000F9F80
001F1F00
003E3C00
003C7800
0078F000
00F1E000
00000000
00000000
00000000
003F0000
01FFC000
03FFF000
07FFF800
0FC0F800
1F007C00
3E003C00
3E003E00
7C001E00
7C001E00
78001E00
F8001E00
F8001E00
F0001E00
F0001E00
F0001E00
F0003E00
F0003E00
F0003C00
F8007C00
7800F800
7C00F800
7E03F000
3F0FE000
1FFFC000
0FFF8000
07FE0000
00200000
ENDCHAR
STARTCHAR 0152
ENCODING 338
SWIDTH 920 0
DWIDTH 46 0
BBX 44 36 2 0
BITMAP
0007FFFFFFF0
003FFFFFFFF0
007FFFFFFFF0
01FFFFFFFFF0
03F003C00000
07E007C00000
07C007C00000
0F8007C00000
1F0007C00000
1F0007800000
1E0007800000
3E000F800000
3C000F800000
3C000F800000
3C000F800000
7C000F000000
7C000FFFFE00
7C001FFFFE00
78001FFFFE00
78001FFFFE00
78001E000000
F8001E000000
F8001E000000
F8003E000000
F8003E000000
F8003E000000
F8003C000000
78003C000000
78007C000000
7C007C000000
3C007C000000
3F007C000000
1FC0FFFFFE00
0FFFFFFFFE00
07FFFFFFFC00
01FFFFFFFC00
ENDCHAR
STARTCHAR 0153
ENCODING 339
SWIDTH 880 0
DWIDTH 44 0
BBX 41 28 2 -1
BITMAP
003F000FE000
01FFC03FF800
03FFF07FFC00
07FFF8FFFE00
0FC0F9F03E00
1F007FE01F00
3E003FC00F00
3E003F800F00
7C003F800F80
7C001F000F80
78001F000F80
F8001FFFFF80
F8001FFFFF00
F8001FFFFF00
F0003FFFFF00
F0003E000000
F0003E000000
F0003E000000
F8007E000000
F8007E000000
F800FF000000
7C01FF000000
7C03FF803800
3F0FE7E1F800
1FFFC7FFFC00
0FFF83FFF000
07FE00FFC000
006000080000
ENDCHAR
STARTCHAR 0154
ENCODING 340
SWIDTH 580 0
DWIDTH 29 0
BBX 27 45 2 0
BITMAP
00001F80
00003F00
00003E00
00007C00
0000F000
0001E000
0003C000
00000000
00000000
03FF8000
07FFFC00
07FFFF00
07FFFF80
07C03FC0
078007C0
078003E0
0F8003E0
0F8001E0
0F8001E0
0F0001E0
0F0001E0
0F0003E0
1F0003E0
1F0007C0
1F000FC0
1E001F80
1E00FF00
3FFFFE00
3FFFFC00
3FFFE000
3FFFE000
3C01F000
3C01F000
7C00F000
7C00F800
7C00F800
7C007C00
78007C00
78007C00
F8003E00
F8003E00
F8001E00
F8001F00
F0001F00
F0000F80
ENDCHAR
STARTCHAR 0155
ENCODING 341
SWIDTH 320 0
DWIDTH 16 0
BBX 20 38 1 0
BITMAP
0001F0
0003E0
0007C0
000F80
001F00
001E00
003C00
007800
000000
000000
000000
001F80
0FBF80
0F7F00
0FFF00
0FF900
0FC000
1F8000
1F0000
1E0000
1E0000
1E0000
3E0000
3E0000
3E0000
3C0000
3C0000
3C0000
7C0000
7C0000
7C0000
780000
780000
780000
F80000
F80000
F00000
F00000
ENDCHAR
STARTCHAR 0156
ENCODING 342
SWIDTH 580 0
DWIDTH 29 0
BBX 27 48 2 -12
BITMAP
03FF8000
07FFFC00
07FFFF00
07FFFF80
07C03FC0
078007C0
078003E0
0F8003E0
0F8001E0
0F8001E0
0F0001E0
0F0001E0
0F0003E0
1F0003E0
1F0007C0
1F000FC0
1E001F80
1E00FF00
3FFFFE00
3FFFFC00
3FFFE000
3FFFE000
3C01F000
3C01F000
7C00F000
7C00F800
7C00F800
7C007C00
78007C00
78007C00
F8003E00
F8003E00
F8001E00
F8001F00
F0001F00
F0000F80
00000000
00000000
00000000
01E00000
01E00000
01E00000
03E00000
03C00000
03C00000
07800000
0F800000
03000000
ENDCHAR
STARTCHAR 0157
ENCODING 343
SWIDTH 320 0
DWIDTH 16 0
BBX 20 39 -2 -12
BITMAP
0003F0
01F7F0
01EFE0
01FFE0
01FF20
01F800
03F000
03E000
03C000
03C000
03C000
07C000
07C000
07C000
078000
078000
078000
0F8000
0F8000
0F8000
0F0000
0F0000
0F0000
1F0000
1F0000
1E0000
1E0000
000000
000000
000000
1E0000
3E0000
3C0000
3C0000
7C0000
780000
F80000
F00000
600000
ENDCHAR
STARTCHAR 0158
ENCODING 344
SWIDTH 580 0
DWIDTH 29 0
BBX 27 45 2 0
BITMAP
001C0780
001E1F00
000F3E00
00077C00
0003F800
0003E000
0001C000
00000000
00000000
03FF8000
07FFFC00
07FFFF00
07FFFF80
07C03FC0
078007C0
078003E0
0F8003E0
0F8001E0
0F8001E0
0F0001E0
0F0001E0
0F0003E0
1F0003E0
1F0007C0
1F000FC0
1E001F80
1E00FF00
3FFFFE00
3FFFFC00
3FFFE000
3FFFE000
3C01F000
3C01F000
7C00F000
7C00F800
7C00F800
7C007C00
78007C00
78007C00
F8003E00
F8003E00
F8001E00
F8001F00
F0001F00
F0000F80
ENDCHAR
STARTCHAR 0159
ENCODING 345
SWIDTH 320 0
DWIDTH 16 0
BBX 20 38 1 0
BITMAP
070030
03C1E0
03C3C0
01E780
00FF00
007E00
003C00
000000
000000
000000
000000
001F80
0FBF80
0F7F00
0FFF00
0FF900
0FC000
1F8000
1F0000
1E0000
1E0000
1E0000
3E0000
3E0000
3E0000
3C0000
3C0000
3C0000
7C0000
7C0000
7C0000
780000
780000
780000
F80000
F80000
F00000
F00000
ENDCHAR
STARTCHAR 015A
ENCODING 346
SWIDTH 560 0
DWIDTH 28 0
BBX 28 46 1 -1
BITMAP
00000FC0
00000F80
00001F00
00003E00
00007C00
0000F800
0000F000
00000000
00000000
0007F800
003FFE00
00FFFF00
01FFFF80
03F80FC0
07E003E0
07C003E0
0F8001F0
0F8001F0
0F8001F0
0F8001F0
0F800000
0F800000
07C00000
07F00000
03FC0000
01FF8000
00FFE000
003FF800
000FFC00
0001FE00
00007F00
00001F00
00000F80
00000F80
00000F80
F8000F80
F8000F80
F8000F80
78001F00
7C001F00
3E007E00
3FE3FE00
1FFFF800
07FFF000
01FFC000
00080000
ENDCHAR
STARTCHAR 015B
ENCODING 347
SWIDTH 500 0
DWIDTH 25 0
BBX 24 38 1 -1
BITMAP
00003F
00007E
0000F8
0000F0
0001E0
0003C0
000780
000F00
000000
000000
000000
003F00
01FFC0
03FFF0
07FFF8
0FC0F8
1F007C
1F007C
1E003C
1E0000
1F0000
1F8000
0FE000
07FE00
03FF80
00FFC0
001FE0
0003F0
0000F0
0000F0
F800F0
F800F0
7801F0
7C03F0
7F0FE0
3FFFC0
1FFF80
07FE00
ENDCHAR
STARTCHAR 015C
ENCODING 348
SWIDTH 560 0
DWIDTH 28 0
BBX 28 46 1 -1
BITMAP
00007800
0000F800
0001FC00
0003DE00
00078F00
000F0700
001E0780
00000000
00000000
0007F800
003FFE00
00FFFF00
01FFFF80
03F80FC0
07E003E0
07C003E0
0F8001F0
0F8001F0
0F8001F0
0F8001F0
0F800000
0F800000
07C00000
07F00000
03FC0000
01FF8000
00FFE000
003FF800
000FFC00
0001FE00
00007F00
00001F00
00000F80
00000F80
00000F80
F8000F80
F8000F80
F8000F80
78001F00
7C001F00
3E007E00
3FE3FE00
1FFFF800
07FFF000
01FFC000
00080000
ENDCHAR
STARTCHAR 015D
ENCODING 349
SWIDTH 500 0
DWIDTH 25 0
BBX 22 38 1 -1
BITMAP
000380
0007C0
000FE0
001FE0
003C70
007878
00F03C
000000
000000
000000
000000
003F00
01FFC0
03FFF0
07FFF8
0FC0F8
1F007C
1F007C
1E003C
1E0000
1F0000
1F8000
0FE000
07FE00
03FF80
00FFC0
001FE0
0003F0
0000F0
0000F0
F800F0
F800F0
7801F0
7C03F0
7F0FE0
3FFFC0
1FFF80
07FE00
ENDCHAR
STARTCHAR 015E
ENCODING 350
SWIDTH 560 0
DWIDTH 28 0
BBX 28 47 1 -11
BITMAP
0007F800
003FFE00
00FFFF00
01FFFF80
03F80FC0
07E003E0
07C003E0
0F8001F0
0F8001F0
0F8001F0
0F8001F0
0F800000
0F800000
07C00000
07F00000
03FC0000
01FF8000
00FFE000
003FF800
000FFC00
0001FE00
00007F00
00001F00
00000F80
00000F80
00000F80
F8000F80
F8000F80
F8000F80
78001F00
7C001F00
3E007E00
3FE3FE00
1FFFF800
07FFF000
01FFC000
00380000
00780000
007C0000
003E0000
000E0000
000E0000
000E0000
003E0000
00FC0000
01F80000
01800000
ENDCHAR
STARTCHAR 015F
ENCODING 351
SWIDTH 500 0
DWIDTH 25 0
BBX 22 38 1 -11
BITMAP
003F00
01FFC0
03FFF0
07FFF8
0FC0F8
1F007C
1F007C
1E003C
1E0000
1F0000
1F8000
0FE000
07FE00
03FF80
00FFC0
001FE0
0003F0
0000F0
0000F0
F800F0
F800F0
7801F0
7C03F0
7F0FE0
3FFFC0
1FFF80
07FE00
00E000
00E000
00F800
01FC00
003C00
001C00
003C00
007C00
03F800
03F000
038000
ENDCHAR
STARTCHAR 0160
ENCODING 352
SWIDTH 560 0
DWIDTH 28 0
BBX 28 46 1 -1
BITMAP
000F03C0
00070780
00078F00
0003DE00
0001FC00
0000F800
0000F000
00000000
00000000
0007F800
003FFE00
00FFFF00
01FFFF80
03F80FC0
07E003E0
07C003E0
0F8001F0
0F8001F0
0F8001F0
0F8001F0
0F800000
0F800000
07C00000
07F00000
03FC0000
01FF8000
00FFE000
003FF800
000FFC00
0001FE00
00007F00
00001F00
00000F80
00000F80
00000F80
F8000F80
F8000F80
F8000F80
78001F00
7C001F00
3E007E00
3FE3FE00
1FFFF800
07FFF000
01FFC000
00080000
ENDCHAR
STARTCHAR 0161
ENCODING 353
SWIDTH 500 0
DWIDTH 25 0
BBX 23 38 1 -1
BITMAP
006002
00783E
003C7C
001CF0
001FE0
000FC0
000780
000000
000000
000000
000000
003F00
01FFC0
03FFF0
07FFF8
0FC0F8
1F007C
1F007C
1E003C
1E0000
1F0000
1F8000
0FE000
07FE00
03FF80
00FFC0
001FE0
0003F0
0000F0
0000F0
F800F0
F800F0
7801F0
7C03F0
7F0FE0
3FFFC0
1FFF80
07FE00
ENDCHAR
STARTCHAR 0162
ENCODING 354
SWIDTH 560 0
DWIDTH 28 0
BBX 27 47 4 -11
BITMAP
7FFFFFE0
7FFFFFE0
FFFFFFE0
FFFFFFE0
001F0000
001F0000
001E0000
001E0000
003E0000
003E0000
003E0000
003C0000
003C0000
003C0000
007C0000
007C0000
007C0000
00780000
00780000
00780000
00F80000
00F80000
00F80000
00F00000
00F00000
00F00000
01F00000
01F00000
01F00000
01E00000
01E00000
03E00000
03E00000
03E00000
03E00000
03C00000
03800000
03C00000
03E00000
01F00000
00700000
00700000
00F00000
01F00000
0FE00000
0F800000
0C000000
ENDCHAR
STARTCHAR 0163
ENCODING 355
SWIDTH 300 0
DWIDTH 15 0
BBX 14 44 2 -11
BITMAP
03C0
03C0
03C0
07C0
07C0
07C0
0780
FFFC
FFFC
FFFC
0F80
0F80
0F00
0F00
0F00
1F00
1F00
1F00
1E00
1E00
1E00
3E00
3E00
3E00
3C00
3C00
3C00
3C00
3C00
3F40
3FC0
1FC0
0FC0
0F00
0F00
0F80
07C0
01C0
01C0
03C0
07C0
3F80
3F00
3000
ENDCHAR
STARTCHAR 0164
ENCODING 356
SWIDTH 560 0
DWIDTH 28 0
BBX 27 45 4 0
BITMAP
00701E00
00783C00
003CF800
001DF000
000FE000
000FC000
00078000
00000000
00000000
7FFFFFE0
7FFFFFE0
FFFFFFE0
FFFFFFE0
001F0000
001F0000
001E0000
001E0000
003E0000
003E0000
003E0000
003C0000
003C0000
003C0000
007C0000
007C0000
007C0000
00780000
00780000
00780000
00F80000
00F80000
00F80000
00F00000
00F00000
00F00000
01F00000
01F00000
01F00000
01E00000
01E00000
03E00000
03E00000
03E00000
03E00000
03C00000
ENDCHAR
STARTCHAR 0165
ENCODING 357
SWIDTH 320 0
DWIDTH 16 0
BBX 20 40 2 0
BITMAP
0000F0
0000F0
0001F0
0001E0
0001E0
0003E0
0003C0
03C780
03C300
03C000
07C000
07C000
07C000
078000
FFFC00
FFFC00
FFFC00
0F8000
0F8000
0F0000
0F0000
0F0000
1F0000
1F0000
1F0000
1E0000
1E0000
1E0000
3E0000
3E0000
3E0000
3C0000
3C0000
3C0000
3C0000
3C0000
3F4000
3FC000
1FC000
0FC000
ENDCHAR
STARTCHAR 0166
ENCODING 358
SWIDTH 560 0
DWIDTH 28 0
BBX 27 36 4 0
BITMAP
7FFFFFE0
7FFFFFE0
FFFFFFE0
FFFFFFE0
001F0000
001F0000
001E0000
001E0000
003E0000
003E0000
003E0000
003C0000
07FFF000
0FFFF000
0FFFE000
0FFFE000
007C0000
00780000
00780000
00780000
00F80000
00F80000
00F80000
00F00000
00F00000
00F00000
01F00000
01F00000
01F00000
01E00000
01E00000
03E00000
03E00000
03E00000
03E00000
03C00000
ENDCHAR
STARTCHAR 0167
ENCODING 359
SWIDTH 300 0
DWIDTH 15 0
BBX 16 33 0 0
BITMAP
00F0
00F0
00F0
01F0
01F0
01F0
01E0
3FFF
3FFF
3FFF
03E0
03E0
03C0
03C0
03C0
FFFE
FFFE
FFFE
0780
0780
0780
0F80
0F80
0F80
0F00
0F00
0F00
0F00
0F00
0FD0
0FF0
07F0
03F0
ENDCHAR
STARTCHAR 0168
ENCODING 360
SWIDTH 620 0
DWIDTH 31 0
BBX 29 46 3 -1
BITMAP
00000100
001F81C0
003FC3C0
003FFF80
0078FF80
00703F00
00701C00
00000000
00000000
0F0000F8
0F0000F8
0F0000F8
1F0000F0
1F0000F0
1F0001F0
1E0001F0
1E0001F0
1E0001F0
3E0001E0
3E0001E0
3E0003E0
3C0003E0
3C0003E0
3C0003E0
7C0003C0
7C0003C0
7C0007C0
780007C0
780007C0
F80007C0
F8000780
F8000780
F8000F80
F0000F80
F0000F80
F0000F00
F0001F00
F8001F00
F8003E00
7C007E00
7E00FC00
3FC7F800
1FFFF000
0FFFC000
03FF0000
00300000
ENDCHAR
STARTCHAR 0169
ENCODING 361
SWIDTH 520 0
DWIDTH 26 0
BBX 23 38 2 -1
BITMAP
00300E
00FE0E
01FF1E
01FFFE
03C3FC
0380F8
018000
000000
000000
000000
000000
1F001E
1E001E
1E001E
1E003E
3E003E
3E003C
3E003C
3C003C
3C007C
3C007C
7C007C
7C0078
7C0078
780078
7800F8
7800F8
F800F8
F800F0
F800F0
F801F0
7803F0
7C07F0
7E1FF0
3FFFE0
3FFDE0
0FF9E0
018000
ENDCHAR
STARTCHAR 016A
ENCODING 362
SWIDTH 620 0
DWIDTH 31 0
BBX 29 44 3 -1
BITMAP
003FFFC0
003FFFC0
007FFF80
00000000
00000000
00000000
00000000
0F0000F8
0F0000F8
0F0000F8
1F0000F0
1F0000F0
1F0001F0
1E0001F0
1E0001F0
1E0001F0
3E0001E0
3E0001E0
3E0003E0
3C0003E0
3C0003E0
3C0003E0
7C0003C0
7C0003C0
7C0007C0
780007C0
780007C0
F80007C0
F8000780
F8000780
F8000F80
F0000F80
F0000F80
F0000F00
F0001F00
F8001F00
F8003E00
7C007E00
7E00FC00
3FC7F800
1FFFF000
0FFFC000
03FF0000
00300000
ENDCHAR
STARTCHAR 016B
ENCODING 363
SWIDTH 520 0
DWIDTH 26 0
BBX 23 36 2 -1
BITMAP
01FFFE
01FFFE
01FFFE
000000
000000
000000
000000
000000
000000
1F001E
1E001E
1E001E
1E003E
3E003E
3E003C
3E003C
3C003C
3C007C
3C007C
7C007C
7C0078
7C0078
780078
7800F8
7800F8
F800F8
F800F0
F800F0
F801F0
7803F0
7C07F0
7E1FF0
3FFFE0
3FFDE0
0FF9E0
018000
ENDCHAR
STARTCHAR 016C
ENCODING 364
SWIDTH 620 0
DWIDTH 31 0
BBX 29 45 3 -1
BITMAP
001C0780
001C0780
001E0F00
000FBF00
000FFE00
0003F800
00000000
00000000
0F0000F8
0F0000F8
0F0000F8
1F0000F0
1F0000F0
1F0001F0
1E0001F0
1E0001F0
1E0001F0
3E0001E0
3E0001E0
3E0003E0
3C0003E0
3C0003E0
3C0003E0
7C0003C0
7C0003C0
7C0007C0
780007C0
780007C0
F80007C0
F8000780
F8000780
F8000F80
F0000F80
F0000F80
F0000F00
F0001F00
F8001F00
F8003E00
7C007E00
7E00FC00
3FC7F800
1FFFF000
0FFFC000
03FF0000
00300000
ENDCHAR
STARTCHAR 016D
ENCODING 365
SWIDTH 520 0
DWIDTH 26 0
BBX 23 38 2 -1
BITMAP
00F004
00F03C
00F03C
007878
007FF8
003FF0
000FC0
000000
000000
000000
000000
1F001E
1E001E
1E001E
1E003E
3E003E
3E003C
3E003C
3C003C
3C007C
3C007C
7C007C
7C0078
7C0078
780078
7800F8
7800F8
F800F8
F800F0
F800F0
F801F0
7803F0
7C07F0
7E1FF0
3FFFE0
3FFDE0
0FF9E0
018000
ENDCHAR
STARTCHAR 016E
ENCODING 366
SWIDTH 620 0
DWIDTH 31 0
BBX 29 48 3 -1
BITMAP
0001F800
0003FC00
00070C00
00060E00
000E0E00
00060E00
00061C00
0007FC00
0003F800
0000E000
00000000
0F0000F8
0F0000F8
0F0000F8
1F0000F0
1F0000F0
1F0001F0
1E0001F0
1E0001F0
1E0001F0
3E0001E0
3E0001E0
3E0003E0
3C0003E0
3C0003E0
3C0003E0
7C0003C0
7C0003C0
7C0007C0
780007C0
780007C0
F80007C0
F8000780
F8000780
F8000F80
F0000F80
F0000F80
F0000F00
F0001F00
F8001F00
F8003E00
7C007E00
7E00FC00
3FC7F800
1FFFF000
0FFFC000
03FF0000
00300000
ENDCHAR
STARTCHAR 016F
ENCODING 367
SWIDTH 520 0
DWIDTH 26 0
BBX 23 41 2 -1
BITMAP
000380
000FC0
001EE0
003870
003030
003030
003070
0038E0
001FE0
000FC0
000000
000000
000000
000000
1F001E
1E001E
1E001E
1E003E
3E003E
3E003C
3E003C
3C003C
3C007C
3C007C
7C007C
7C0078
7C0078
780078
7800F8
7800F8
F800F8
F800F0
F800F0
F801F0
7803F0
7C07F0
7E1FF0
3FFFE0
3FFDE0
0FF9E0
018000
ENDCHAR
STARTCHAR 0170
ENCODING 368
SWIDTH 620 0
DWIDTH 31 0
BBX 29 46 3 -1
BITMAP
0000F8F8
0001F1F0
0003E3E0
0007C7C0
00078F80
000F1F00
001E3E00
00000000
00000000
0F0000F8
0F0000F8
0F0000F8
1F0000F0
1F0000F0
1F0001F0
1E0001F0
1E0001F0
1E0001F0
3E0001E0
3E0001E0
3E0003E0
3C0003E0
3C0003E0
3C0003E0
7C0003C0
7C0003C0
7C0007C0
780007C0
780007C0
F80007C0
F8000780
F8000780
F8000F80
F0000F80
F0000F80
F0000F00
F0001F00
F8001F00
F8003E00
7C007E00
7E00FC00
3FC7F800
1FFFF000
0FFFC000
03FF0000
00300000
ENDCHAR
STARTCHAR 0171
ENCODING 369
SWIDTH 520 0
DWIDTH 26 0
BBX 26 38 2 -1
BITMAP
0007CFC0
000F8F80
001F1F00
003E3E00
003C7C00
0078F800
00F1E000
00000000
00000000
00000000
00000000
1F001E00
1E001E00
1E001E00
1E003E00
3E003E00
3E003C00
3E003C00
3C003C00
3C007C00
3C007C00
7C007C00
7C007800
7C007800
78007800
7800F800
7800F800
F800F800
F800F000
F800F000
F801F000
7803F000
7C07F000
7E1FF000
3FFFE000
3FFDE000
0FF9E000
01800000
ENDCHAR
STARTCHAR 0172
ENCODING 370
SWIDTH 620 0
DWIDTH 31 0
BBX 29 46 3 -10
BITMAP
0F0000F8
0F0000F8
0F0000F8
1F0000F0
1F0000F0
1F0001F0
1E0001F0
1E0001F0
1E0001F0
3E0001E0
3E0001E0
3E0003E0
3C0003E0
3C0003E0
3C0003E0
7C0003C0
7C0003C0
7C0007C0
780007C0
780007C0
F80007C0
F8000780
F8000780
F8000F80
F0000F80
F0000F80
F0000F00
F0001F00
F8001F00
F8003E00
7C007E00
7E00FC00
3FC7F800
1FFFF000
0FFFC000
03FF0000
003E0000
007C0000
00780000
00F00000
00F00000
00F00000
00FF0000
007F0000
003F0000
00080000
ENDCHAR
STARTCHAR 0173
ENCODING 371
SWIDTH 520 0
DWIDTH 26 0
BBX 23 37 2 -11
BITMAP
1F001E
1E001E
1E001E
1E003E
3E003E
3E003C
3E003C
3C003C
3C007C
3C007C
7C007C
7C0078
7C0078
780078
7800F8
7800F8
F800F8
F800F0
F800F0
F801F0
7803F0
7C07F0
7E1FF0
3FFFE0
3FFDE0
0FF9E0
0187C0
000F80
001F00
001E00
003C00
003C00
003C00
003FC0
003FC0
001FC0
000200
ENDCHAR
STARTCHAR 0174
ENCODING 372
SWIDTH 860 0
DWIDTH 43 0
BBX 40 45 5 0
BITMAP
00000E0000
00001F0000
00003F8000
00007BC000
0000F1C000
0003E1E000
000780F000
0000000000
0000000000
F0003C000F
F0003C001F
F0007C001F
F0007C003E
F800FC003E
F800FE003C
F801FE007C
F801FE007C
F801FE0078
F803DE00F8
7803DE00F0
7807DE01F0
78079E01F0
780F8E01E0
780F0F03E0
780F0F03C0
781E0F03C0
781E0F07C0
783C0F0780
7C3C0F0F80
7C7C0F0F80
7C78070F00
7C78071F00
3CF0079E00
3CF0079E00
3DE007BE00
3DE007BC00
3DE007BC00
3FC007F800
3FC007F800
3F8003F800
3F8003F000
3F0003F000
3F0003E000
3E0003E000
1E0003E000
ENDCHAR
STARTCHAR 0175
ENCODING 373
SWIDTH 720 0
DWIDTH 36 0
BBX 34 38 3 0
BITMAP
0000700000
0000F80000
0001FC0000
0003FC0000
0007CE0000
000F0F0000
001E078000
0000000000
0000000000
0000000000
0000000000
0000000000
F001E003C0
F803E007C0
F803E00780
7807E00F80
7807F00F00
7807F01F00
780FF01E00
780EF01E00
781EF03C00
781C703C00
783C707800
783C707800
387878F800
3C7878F000
3CF078F000
3CF079E000
3DE039E000
3DE03BC000
3FC03BC000
3FC03B8000
3F803F8000
1F803F0000
1F003F0000
1F001F0000
1E001E0000
1E001E0000
ENDCHAR
STARTCHAR 0176
ENCODING 374
SWIDTH 580 0
DWIDTH 29 0
BBX 28 45 4 0
BITMAP
00038000
0007C000
000FE000
001EF000
003C7000
00787800
00F03C00
00000000
00000000
F80001F0
F80003F0
7C0003E0
7C0007C0
3C000FC0
3E000F80
3E001F00
1E003F00
1F003E00
1F007C00
0F00F800
0F80F800
0F81F000
0783E000
07C7E000
03C7C000
03CF8000
03FF0000
01FF0000
01FE0000
01FC0000
00FC0000
00F80000
00F00000
00F00000
00F00000
01F00000
01F00000
01F00000
01E00000
01E00000
03E00000
03E00000
03E00000
03E00000
03C00000
ENDCHAR
STARTCHAR 0177
ENCODING 375
SWIDTH 440 0
DWIDTH 22 0
BBX 26 49 -2 -11
BITMAP
0000E000
0001F000
0003F800
0007F800
000F1C00
001E1E00
003C0F00
00000000
00000000
00000000
00000000
00000000
078007C0
07C007C0
07C00F80
07C00F80
03C01F00
03C01F00
03C03E00
03C03E00
03E07C00
03E07800
01E0F800
01E0F000
01E1F000
01E1E000
01F1E000
01F3C000
00F3C000
00F78000
00F78000
00FF0000
00FF0000
007E0000
007E0000
007C0000
007C0000
00780000
00780000
00F00000
00F00000
01E00000
03E00000
07C00000
0FC00000
FF800000
FF000000
FE000000
F0000000
ENDCHAR
STARTCHAR 0178
ENCODING 376
SWIDTH 580 0
DWIDTH 29 0
BBX 28 44 4 0
BITMAP
00600800
00F03E00
00F83E00
00F83E00
00F03C00
00200800
00000000
00000000
F80001F0
F80003F0
7C0003E0
7C0007C0
3C000FC0
3E000F80
3E001F00
1E003F00
1F003E00
1F007C00
0F00F800
0F80F800
0F81F000
0783E000
07C7E000
03C7C000
03CF8000
03FF0000
01FF0000
01FE0000
01FC0000
00FC0000
00F80000
00F00000
00F00000
00F00000
01F00000
01F00000
01F00000
01E00000
01E00000
03E00000
03E00000
03E00000
03E00000
03C00000
ENDCHAR
STARTCHAR 0179
ENCODING 377
SWIDTH 580 0
DWIDTH 29 0
BBX 30 45 0 0
BITMAP
000007E0
000007C0
00000F80
00001F00
00003E00
00007C00
00007800
00000000
00000000
03FFFFFC
03FFFFFC
03FFFFFC
07FFFFFC
000000F8
000001F0
000003E0
000007E0
00000FC0
00001F80
00001F00
00003E00
00007C00
0000F800
0001F800
0003F000
0007E000
0007C000
000F8000
001F0000
003F0000
007E0000
00FC0000
00F80000
01F00000
03E00000
07E00000
0FC00000
1F800000
3F000000
3E000000
7C000000
FFFFFF80
FFFFFF80
FFFFFF80
FFFFFF80
ENDCHAR
STARTCHAR 017A
ENCODING 378
SWIDTH 480 0
DWIDTH 24 0
BBX 24 38 0 0
BITMAP
00003F
00007E
0000FC
0000F8
0001F0
0003E0
000780
000F00
000000
000000
000000
000000
0FFFFF
0FFFFE
0FFFFE
00007E
0000FC
0001F8
0001F0
0003E0
0007C0
000F80
001F00
003F00
007E00
00FC00
01F800
03F000
03E000
07C000
0F8000
1F0000
3E0000
7E0000
FFFFF8
FFFFF0
FFFFF0
FFFFF0
ENDCHAR
STARTCHAR 017B
ENCODING 379
SWIDTH 580 0
DWIDTH 29 0
BBX 30 44 0 0
BITMAP
00003000
00007800
00007C00
00007C00
00007800
00003000
00000000
00000000
03FFFFFC
03FFFFFC
03FFFFFC
07FFFFFC
000000F8
000001F0
000003E0
000007E0
00000FC0
00001F80
00001F00
00003E00
00007C00
0000F800
0001F800
0003F000
0007E000
0007C000
000F8000
001F0000
003F0000
007E0000
00FC0000
00F80000
01F00000
03E00000
07E00000
0FC00000
1F800000
3F000000
3E000000
7C000000
FFFFFF80
FFFFFF80
FFFFFF80
FFFFFF80
ENDCHAR
STARTCHAR 017C
ENCODING 380
SWIDTH 480 0
DWIDTH 24 0
BBX 24 36 0 0
BITMAP
000380
0007C0
0007C0
0007C0
000380
000000
000000
000000
000000
000000
0FFFFF
0FFFFE
0FFFFE
00007E
0000FC
0001F8
0001F0
0003E0
0007C0
000F80
001F00
003F00
007E00
00FC00
01F800
03F000
03E000
07C000
0F8000
1F0000
3E0000
7E0000
FFFFF8
FFFFF0
FFFFF0
FFFFF0
ENDCHAR
STARTCHAR 017D
ENCODING 381
SWIDTH 580 0
DWIDTH 29 0
BBX 30 45 0 0
BITMAP
000781E0
000783C0
0003C780
0001EF00
0000FE00
0000FC00
00007800
00000000
00000000
03FFFFFC
03FFFFFC
03FFFFFC
07FFFFFC
000000F8
000001F0
000003E0
000007E0
00000FC0
00001F80
00001F00
00003E00
00007C00
0000F800
0001F800
0003F000
0007E000
0007C000
000F8000
001F0000
003F0000
007E0000
00FC0000
00F80000
01F00000
03E00000
07E00000
0FC00000
1F800000
3F000000
3E000000
7C000000
FFFFFF80
FFFFFF80
FFFFFF80
FFFFFF80
ENDCHAR
STARTCHAR 017E
ENCODING 382
SWIDTH 480 0
DWIDTH 24 0
BBX 24 38 0 0
BITMAP
006002
00781E
003C7C
001CF8
000FF0
000FE0
000780
000000
000000
000000
000000
000000
0FFFFF
0FFFFE
0FFFFE
00007E
0000FC
0001F8
0001F0
0003E0
0007C0
000F80
001F00
003F00
007E00
00FC00
01F800
03F000
03E000
07C000
0F8000
1F0000
3E0000
7E0000
FFFFF8
FFFFF0
FFFFF0
FFFFF0
ENDCHAR
STARTCHAR 017F
ENCODING 383
SWIDTH 240 0
DWIDTH 12 0
BBX 18 38 1 0
BITMAP
001FC0
007FC0
00FFC0
01FF80
01F000
03E000
03C000
07C000
07C000
07C000
078000
078000
078000
0F8000
0F8000
0F8000
0F0000
0F0000
0F0000
1F0000
1F0000
1F0000
1E0000
1E0000
1E0000
3E0000
3E0000
3C0000
3C0000
3C0000
3C0000
7C0000
7C0000
780000
780000
780000
F80000
F80000
ENDCHAR
STARTCHAR 018F
ENCODING 399
SWIDTH 660 0
DWIDTH 33 0
BBX 30 37 2 -1
BITMAP
001FF800
00FFFE00
01FFFF80
01FFFFC0
01F00FE0
018003E0
000001F0
000001F0
000000F8
000000F8
00000078
00000078
0000007C
0000007C
0000007C
0000007C
0000007C
7FFFFFF8
7FFFFFF8
7FFFFFF8
FFFFFFF8
F80000F8
F80000F0
F80001F0
F80001F0
F80001E0
F80003E0
780007C0
780007C0
7C000F80
3E001F00
3F007E00
1FE3FC00
0FFFF800
07FFF000
01FFC000
00080000
ENDCHAR
STARTCHAR 0192
ENCODING 402
SWIDTH 320 0
DWIDTH 16 0
BBX 24 49 -4 -11
BITMAP
00007F
0001FF
0003FF
0007FE
0007C0
000F80
000F80
000F00
001F00
001F00
001F00
001E00
01FFF0
01FFF0
01FFF0
003E00
003E00
003E00
003C00
003C00
003C00
007C00
007C00
007C00
007800
007800
007800
007800
00F800
00F800
00F800
00F000
00F000
00F000
00F000
01F000
01F000
01F000
01E000
01E000
01E000
03E000
03E000
07C000
0FC000
FF8000
FF0000
FE0000
F80000
ENDCHAR
STARTCHAR 01A0
ENCODING 416
SWIDTH 660 0
DWIDTH 33 0
BBX 35 40 3 -1
BITMAP
00000001E0
00000001E0
00000001E0
000FF003C0
003FFC03C0
00FFFF0780
01FFFF9F80
03F81FFF00
07E007FE00
0FC003F800
0F8003E000
1F0001E000
3E0001F000
3E0001F000
3C0001F000
7C0001F000
7C0000F000
780001F000
F80001F000
F80001F000
F80001F000
F80001F000
F00001F000
F00001E000
F00001E000
F00003E000
F00003E000
F00003C000
F00007C000
F800078000
F8000F8000
F8001F0000
7C001F0000
7C003E0000
3F00FC0000
1FE7F80000
1FFFF00000
07FFE00000
03FF800000
0010000000
ENDCHAR
STARTCHAR 01A1
ENCODING 417
SWIDTH 540 0
DWIDTH 27 0
BBX 29 30 2 -1
BITMAP
00000078
00000078
003F0070
00FFE0F0
03FFF0F0
07FFFFE0
0FC0FFC0
1F007F80
3E003C00
3E003E00
7C001E00
7C001E00
78001E00
F8001E00
F8001E00
F0001E00
F0001E00
F0003E00
F0003E00
F0003C00
F0007C00
F8007C00
F800F800
7801F800
7C03F000
3F0FE000
1FFFC000
0FFF8000
07FE0000
00200000
ENDCHAR
STARTCHAR 01AF
ENCODING 431
SWIDTH 660 0
DWIDTH 33 0
BBX 38 38 3 -1
BITMAP
000000003C
000000003C
0F0000F83C
0F0000F878
0F0000F878
1F0000F0F8
1F0000F1F0
1F0001F7E0
1E0001FFC0
1E0001FF80
1E0001FC00
3E0001E000
3E0001E000
3E0003E000
3C0003E000
3C0003E000
3C0003E000
7C0003C000
7C0003C000
7C0007C000
780007C000
780007C000
F80007C000
F800078000
F800078000
F8000F8000
F0000F8000
F0000F8000
F0000F0000
F0001F0000
F8001F0000
F8003E0000
7C007E0000
7E00FC0000
3FC7F80000
1FFFF00000
0FFFC00000
03FF000000
ENDCHAR
STARTCHAR 01B0
ENCODING 432
SWIDTH 600 0
DWIDTH 30 0
BBX 31 30 2 -1
BITMAP
0000000E
0000001E
0000001E
1F001E1C
1E001E3C
1E001EF8
1E003FF8
3E003FE0
3E003E00
3E003C00
3C003C00
3C007C00
3C007C00
7C007C00
7C007800
7C007800
78007800
7800F800
7800F800
F800F800
F800F000
F800F000
F801F000
7803F000
7C07F000
7E1FF000
3FFFE000
3FFDE000
0FF9E000
01800000
ENDCHAR
STARTCHAR 01F0
ENCODING 496
SWIDTH 240 0
DWIDTH 12 0
BBX 23 48 -6 -11
BITMAP
006002
00783E
003C7C
001CF8
001FF0
000FC0
000780
000000
000000
000000
000000
000F00
000F00
000F00
001F00
001F00
001F00
001E00
001E00
001E00
003E00
003E00
003E00
003C00
003C00
003C00
007C00
007C00
007C00
007800
007800
007800
00F800
00F800
00F000
00F000
00F000
00F000
01F000
01F000
01E000
01E000
03E000
07C000
7FC000
FF8000
FF0000
780000
ENDCHAR
STARTCHAR 01FA
ENCODING 506
SWIDTH 620 0
DWIDTH 31 0
BBX 30 47 -2 0
BITMAP
0000007C
000000F0
000001E0
000003C0
00000000
00000600
00001F80
000039C0
000030C0
000030C0
000031C0
00003F80
00001F00
00003F00
00003F00
00007F00
00007F00
0000F780
0000F780
0001E780
0003E780
0003C780
0007C7C0
000783C0
000F83C0
000F03C0
001F03C0
001E03E0
003E01E0
003C01E0
007C01E0
00F801E0
00F801F0
01F001F0
01FFFFF0
03FFFFF0
03FFFFF0
07FFFFF8
078000F8
0F800078
0F000078
1F000078
3E00007C
3E00007C
7C00007C
7C00003C
F800003C
ENDCHAR
STARTCHAR 01FB
ENCODING 507
SWIDTH 520 0
DWIDTH 26 0
BBX 24 41 1 -1
BITMAP
00001F
00003E
000078
0000F0
0001E0
000000
0007C0
000FE0
000C60
000C60
001C60
000C60
000FE0
001F80
00FFE0
03FFF0
07FFF8
0FC0FC
0F807C
1F003C
1E003C
00003C
00003C
00003C
00FFFC
07FFFC
0FFFFC
1FC078
3E0078
7C0078
780078
F800F8
F800F8
F800F0
F801F0
7C07F0
7F3FF0
3FFFF0
1FFCF0
0FF8F0
008000
ENDCHAR
STARTCHAR 01FC
ENCODING 508
SWIDTH 900 0
DWIDTH 45 0
BBX 50 45 -3 0
BITMAP
00000000FC0000
00000001F00000
00000003E00000
00000007C00000
00000007800000
0000000F000000
0000001E000000
00000000000000
00000000000000
0000001FFFFFC0
0000003FFFFFC0
0000007FFFFF80
0000007FFFFF80
000000FF800000
000001FF800000
000003EF000000
000003EF000000
000007CF000000
00000F8F000000
00001F1F000000
00001F1F000000
00003E1F000000
00007C1E000000
0000F81E000000
0000F81E000000
0001F01FFFF800
0003E03FFFF800
0007E03FFFF800
000FC03E000000
000F803E000000
001F003C000000
003F003C000000
007FFFFC000000
007FFFFC000000
00FFFFFC000000
01FFFFFC000000
03F0007C000000
03E00078000000
07C00078000000
0FC00078000000
1F800078000000
1F0000FFFFFC00
3E0000FFFFF800
7E0000FFFFF800
FC0000FFFFF800
ENDCHAR
STARTCHAR 01FD
ENCODING 509
SWIDTH 800 0
DWIDTH 40 0
BBX 38 39 1 -1
BITMAP
0000007E00
000000FC00
000000F800
000001F000
000003E000
000007C000
00000F8000
00000F0000
0000000000
0000000000
0000000000
003F003F00
01FFC0FFE0
07FFE3FFF0
0FFFF7FFF8
0FC1FFC0F8
1F00FF807C
1E007F003C
3E007E003C
00007C003C
00007C003C
00007C003C
001FFFFFFC
07FFFFFFFC
1FFFFFFFFC
3FFFFFFFFC
7F00F80000
FC00F80000
F800F80000
F000F80000
F001F80000
F001FC0000
F001FC0020
F807FE00E0
FC1FDF83E0
7FFF9FFFF0
3FFE0FFFE0
1FF803FF00
0300000000
ENDCHAR
STARTCHAR 01FE
ENCODING 510
SWIDTH 660 0
DWIDTH 33 0
BBX 34 49 1 -2
BITMAP
000001F800
000003F000
000003E000
000007C000
00000F8000
00001E0000
00003C0000
0000000000
0000000000
0000000000
00000003C0
0001FE0780
000FFF8F00
001FFFCE00
007FFFFE00
00FE03FC00
01F801F800
01F000F800
03E000F800
07C001FC00
07C003FC00
0F8007BC00
0F80073C00
0F000F3C00
1F001E3C00
1F003C3C00
1E00383C00
1E00703C00
3E00F03C00
3E01E07C00
3E03C07C00
3E03807C00
3E07807C00
3E0F007800
3E1E00F800
3E3C00F800
3E3800F000
3E7801F000
1EF001E000
1FE003E000
1FC007C000
0FC00F8000
0FC03F8000
0FFDFF0000
1FFFFE0000
1DFFF80000
3C7FE00000
7804000000
F000000000
ENDCHAR
STARTCHAR 01FF
ENCODING 511
SWIDTH 540 0
DWIDTH 27 0
BBX 24 40 2 -3
BITMAP
0000FC
0001F0
0003E0
0007C0
000780
000F00
001E00
000007
00000E
00001E
003F1C
01FFF8
03FFF8
07FFF8
0FC0FC
1F00FC
3E01FC
3E03BE
7C039E
7C071E
780F1E
F80E1E
F81C1E
F03C1E
F0381E
F0703E
F0F03E
F0E03C
F1C07C
FBC07C
FB80F8
7F01F8
7F03F0
3F0FE0
1FFFC0
1FFF80
3FFE00
702000
700000
E00000
ENDCHAR
STARTCHAR 0218
ENCODING 536
SWIDTH 560 0
DWIDTH 28 0
BBX 28 48 1 -13
BITMAP
0007F800
003FFE00
00FFFF00
01FFFF80
03F80FC0
07E003E0
07C003E0
0F8001F0
0F8001F0
0F8001F0
0F8001F0
0F800000
0F800000
07C00000
07F00000
03FC0000
01FF8000
00FFE000
003FF800
000FFC00
0001FE00
00007F00
00001F00
00000F80
00000F80
00000F80
F8000F80
F8000F80
F8000F80
78001F00
7C001F00
3E007E00
3FE3FE00
1FFFF800
07FFF000
01FFC000
00080000
00000000
00000000
00780000
00F80000
00F80000
00F00000
00F00000
01E00000
03E00000
03C00000
01800000
ENDCHAR
STARTCHAR 0219
ENCODING 537
SWIDTH 500 0
DWIDTH 25 0
BBX 22 40 1 -13
BITMAP
003F00
01FFC0
03FFF0
07FFF8
0FC0F8
1F007C
1F007C
1E003C
1E0000
1F0000
1F8000
0FE000
07FE00
03FF80
00FFC0
001FE0
0003F0
0000F0
0000F0
F800F0
F800F0
7801F0
7C03F0
7F0FE0
3FFFC0
1FFF80
07FE00
000000
000000
000000
01F000
01E000
01E000
01E000
03E000
03C000
07C000
078000
070000
020000
ENDCHAR
STARTCHAR 021A
ENCODING 538
SWIDTH 560 0
DWIDTH 28 0
BBX 27 48 4 -13
BITMAP
7FFFFFE0
7FFFFFE0
FFFFFFE0
FFFFFFE0
001F0000
001F0000
001E0000
001E0000
003E0000
003E0000
003E0000
003C0000
003C0000
003C0000
007C0000
007C0000
007C0000
00780000
00780000
00780000
00F80000
00F80000
00F80000
00F00000
00F00000
00F00000
01F00000
01F00000
01F00000
01E00000
01E00000
03E00000
03E00000
03E00000
03E00000
03C00000
00000000
00000000
00000000
07800000
07800000
07800000
07800000
0F800000
0F000000
1F000000
3E000000
1C000000
ENDCHAR
STARTCHAR 021B
ENCODING 539
SWIDTH 300 0
DWIDTH 15 0
BBX 14 45 2 -13
BITMAP
03C0
03C0
03C0
07C0
07C0
07C0
0780
FFFC
FFFC
FFFC
0F80
0F80
0F00
0F00
0F00
1F00
1F00
1F00
1E00
1E00
1E00
3E00
3E00
3E00
3C00
3C00
3C00
3C00
3C00
3F40
3FC0
1FC0
0FC0
0000
0000
0000
1F00
1F00
1E00
1E00
3E00
3C00
7C00
7800
7000
ENDCHAR
STARTCHAR 0237
ENCODING 567
SWIDTH 240 0
DWIDTH 12 0
BBX 16 37 -6 -11
BITMAP
000F
000F
000F
001F
001F
001F
001E
001E
001E
003E
003E
003E
003C
003C
003C
007C
007C
007C
0078
0078
0078
00F8
00F8
00F0
00F0
00F0
00F0
01F0
01F0
01E0
01E0
03E0
07C0
7FC0
FF80
FF00
7800
ENDCHAR
STARTCHAR 0259
ENCODING 601
SWIDTH 500 0
DWIDTH 25 0
BBX 22 27 2 -1
BITMAP
00FE00
07FF80
1FFFC0
1FFFE0
1E03F0
0800F0
0000F8
000078
000078
000078
00007C
00007C
00007C
FFFFF8
FFFFF8
FFFFF8
F000F8
F000F8
F000F0
F001F0
F001E0
F803E0
7807C0
7E1F80
3FFF00
1FFE00
0FF800
ENDCHAR
STARTCHAR 02BC
ENCODING 700
SWIDTH 180 0
DWIDTH 9 0
BBX 9 12 3 26
BITMAP
0F80
0F80
0F00
0F00
0F00
1F00
1E00
3E00
3C00
7C00
F800
3000
ENDCHAR
STARTCHAR 02C6
ENCODING 710
SWIDTH 440 0
DWIDTH 22 0
BBX 14 7 7 31
BITMAP
0180
03C0
07E0
0FE0
3E70
7C78
F03C
ENDCHAR
STARTCHAR 02C7
ENCODING 711
SWIDTH 420 0
DWIDTH 21 0
BBX 15 7 7 31
BITMAP
E006
783C
7878
3CF0
1FE0
0FC0
0780
ENDCHAR
STARTCHAR 02C9
ENCODING 713
SWIDTH 440 0
DWIDTH 22 0
BBX 16 3 6 32
BITMAP
FFFF
FFFF
FFFF
ENDCHAR
STARTCHAR 02D8
ENCODING 728
SWIDTH 400 0
DWIDTH 20 0
BBX 14 7 6 30
BITMAP
F000
F01C
703C
787C
3FF8
1FF0
0FC0
ENDCHAR
STARTCHAR 02D9
ENCODING 729
SWIDTH 220 0
DWIDTH 11 0
BBX 5 5 7 31
BITMAP
70
F8
F8
F8
F0
ENDCHAR
STARTCHAR 02DA
ENCODING 730
SWIDTH 320 0
DWIDTH 16 0
BBX 10 10 6 30
BITMAP
1F80
7FC0
70C0
E0C0
E0C0
E0C0
61C0
7F80
3F00
0400
ENDCHAR
STARTCHAR 02DB
ENCODING 731
SWIDTH 260 0
DWIDTH 13 0
BBX 8 12 -2 -11
BITMAP
07
0F
3E
7C
78
F0
F0
F0
FF
7F
7F
08
ENDCHAR
STARTCHAR 02DC
ENCODING 732
SWIDTH 440 0
DWIDTH 22 0
BBX 18 7 5 30
BITMAP
0401C0
1F83C0
3FE3C0
7FFF80
78FF00
703E00
E00000
ENDCHAR
STARTCHAR 02DD
ENCODING 733
SWIDTH 360 0
DWIDTH 18 0
BBX 18 7 5 30
BITMAP
0FCFC0
0F1F00
1F3E00
3E7C00
7C7800
78F000
F1E000
ENDCHAR
STARTCHAR 02F3
ENCODING 755
SWIDTH 280 0
DWIDTH 14 0
BBX 9 8 -1 -10
BITMAP
3E00
7F00
6300
E180
E380
6700
7F00
3C00
ENDCHAR
STARTCHAR 0300
ENCODING 768
SWIDTH 0 0
DWIDTH 0 0
BBX 8 8 -16 30
BITMAP
F8
78
7C
3C
1E
1E
0F
07
ENDCHAR
STARTCHAR 0301
ENCODING 769
SWIDTH 0 0
DWIDTH 0 0
BBX 11 8 -13 30
BITMAP
0380
07E0
0F80
1F00
1E00
3C00
7800
F000
ENDCHAR
STARTCHAR 0303
ENCODING 771
SWIDTH 0 0
DWIDTH 0 0
BBX 17 7 -18 30
BITMAP
000380
3F0380
7FC780
FFFF00
F1FF00
E07E00
E00000
ENDCHAR
STARTCHAR 0309
ENCODING 777
SWIDTH 0 0
DWIDTH 0 0
BBX 8 10 -13 30
BITMAP
7C
7E
1F
07
0F
1F
7E
78
F0
F0
ENDCHAR
STARTCHAR 030F
ENCODING 783
SWIDTH 0 0
DWIDTH 0 0
BBX 16 6 -19 31
BITMAP
F8F8
7C78
3E7C
1F3C
0F1E
079F
ENDCHAR
STARTCHAR 0323
ENCODING 803
SWIDTH 0 0
DWIDTH 0 0
BBX 5 6 -20 -9
BITMAP
20
F0
F8
F8
F0
40
ENDCHAR
STARTCHAR 0384
ENCODING 900
SWIDTH 240 0
DWIDTH 12 0
BBX 7 8 7 31
BITMAP
1E
3C
3C
38
78
70
70
E0
ENDCHAR
STARTCHAR 0385
ENCODING 901
SWIDTH 480 0
DWIDTH 24 0
BBX 19 10 6 31
BITMAP
003C00
007C00
007800
007800
00F000
70F3C0
F8E3C0
F807E0
F807C0
7003C0
ENDCHAR
STARTCHAR 0386
ENCODING 902
SWIDTH 620 0
DWIDTH 31 0
BBX 30 39 -2 0
BITMAP
000F0000
001E0000
001E0000
001C1E00
003C1F00
00383F00
00383F00
00707F00
00007F00
0000F780
0000F780
0001E780
0003E780
0003C780
0007C7C0
000783C0
000F83C0
000F03C0
001F03C0
001E03E0
003E01E0
003C01E0
007C01E0
00F801E0
00F801F0
01F001F0
01FFFFF0
03FFFFF0
03FFFFF0
07FFFFF8
078000F8
0F800078
0F000078
1F000078
3E00007C
3E00007C
7C00007C
7C00003C
F800003C
ENDCHAR
STARTCHAR 0387
ENCODING 903
SWIDTH 240 0
DWIDTH 12 0
BBX 5 6 4 15
BITMAP
20
78
F8
F8
F8
70
ENDCHAR
STARTCHAR 0388
ENCODING 904
SWIDTH 600 0
DWIDTH 30 0
BBX 32 39 0 0
BITMAP
1E000000
3C000000
3C000000
383FFFFF
783FFFFF
703FFFFE
703FFFFE
E07C0000
007C0000
007C0000
00780000
00780000
00F80000
00F80000
00F80000
00F80000
00F00000
00F00000
01F00000
01FFFFE0
01FFFFE0
01FFFFC0
01FFFFC0
01E00000
03E00000
03E00000
03E00000
03E00000
03C00000
03C00000
07C00000
07C00000
07C00000
07800000
07800000
0FFFFFC0
0FFFFFC0
0FFFFFC0
0FFFFFC0
ENDCHAR
STARTCHAR 0389
ENCODING 905
SWIDTH 740 0
DWIDTH 37 0
BBX 36 39 1 0
BITMAP
3C00000000
3C00000000
7800000000
787C0001F0
70780001E0
F0780001E0
E0780003E0
E0F80003E0
00F80003E0
00F80003E0
00F00003C0
00F00003C0
01F00007C0
01F00007C0
01F00007C0
01F00007C0
01E0000780
01E0000780
03E0000F80
03FFFFFF80
03FFFFFF80
03FFFFFF00
03FFFFFF00
03C0000F00
07C0001F00
07C0001F00
07C0001F00
07C0001E00
0780001E00
0780003E00
0F80003E00
0F80003E00
0F80003E00
0F00003C00
0F00003C00
1F00007C00
1F00007C00
1F00007C00
1F00007C00
ENDCHAR
STARTCHAR 038A
ENCODING 906
SWIDTH 300 0
DWIDTH 15 0
BBX 14 39 1 0
BITMAP
3C00
3C00
7800
787C
707C
F07C
E078
E078
0078
00F8
00F8
00F8
00F0
00F0
01F0
01F0
01F0
01F0
01E0
01E0
03E0
03E0
03E0
03E0
03C0
03C0
07C0
07C0
07C0
0780
0780
0780
0F80
0F80
0F80
0F00
0F00
1F00
1F00
ENDCHAR
STARTCHAR 038C
ENCODING 908
SWIDTH 660 0
DWIDTH 33 0
BBX 29 40 3 -1
BITMAP
3C000000
3C000000
78000000
7807F800
701FFE00
F07FFF80
E0FFFFC0
E1FC0FC0
03F003E0
07C001F0
0FC001F0
0F8000F0
1F0000F0
1F0000F8
3E0000F8
3E0000F8
3C0000F8
7C0000F8
7C0000F8
7C0000F8
7C0000F8
780000F8
780000F0
780000F0
F80001F0
F80001F0
F80001E0
780001E0
780003E0
780003C0
7C0007C0
7C000F80
3E000F80
3E003F00
1F007E00
1FF7FC00
0FFFF800
07FFF000
01FFC000
00080000
ENDCHAR
STARTCHAR 038E
ENCODING 910
SWIDTH 620 0
DWIDTH 31 0
BBX 35 39 0 0
BITMAP
3C00000000
3C00000000
7800000000
79F00007E0
71F00007C0
F1F0000FC0
E0F8001F80
E0F8001F00
00F8003E00
007C007E00
007C007C00
007C00F800
003E01F800
003E01F000
001E03E000
001E07C000
001F07C000
000F0F8000
000F1F0000
000F9F0000
0007BE0000
0007FC0000
0007F80000
0003F80000
0003F00000
0003E00000
0003E00000
0003E00000
0003E00000
0003C00000
0003C00000
0007C00000
0007C00000
0007C00000
0007C00000
0007800000
0007800000
000F800000
000F800000
ENDCHAR
STARTCHAR 038F
ENCODING 911
SWIDTH 640 0
DWIDTH 32 0
BBX 30 39 1 0
BITMAP
0F000000
0F000000
0E000000
1E03FC00
1C0FFF00
1C3FFFC0
387FFFE0
38FE03E0
01F801F0
01F000F0
03E000F8
07C00078
07C00078
0F80007C
0F80007C
0F00007C
0F00007C
1F00007C
1F00007C
1F000078
1F000078
1E0000F8
1E0000F8
1E0000F8
1E0000F0
1E0000F0
1E0001F0
1E0001E0
1E0003E0
1E0003C0
0F0007C0
0F000780
0F800F00
07801F00
03E07E00
FFF1FFE0
FFF1FFC0
FFF1FFC0
FFF3FFC0
ENDCHAR
STARTCHAR 0390
ENCODING 912
SWIDTH 300 0
DWIDTH 15 0
BBX 18 40 1 0
BITMAP
007C00
007800
007800
00F000
20F000
F8E3C0
F807C0
F807C0
F803C0
600180
000000
000000
000000
000000
03C000
07C000
07C000
078000
078000
078000
078000
0F8000
0F8000
0F0000
0F0000
0F0000
0F0000
1F0000
1F0000
1E0000
1E0000
1E0000
1E0000
3E0000
3E0000
3E0000
1FE000
1FE000
1FE000
0FE000
ENDCHAR
STARTCHAR 0391
ENCODING 913
SWIDTH 620 0
DWIDTH 31 0
BBX 30 36 -2 0
BITMAP
00001E00
00001F00
00003F00
00003F00
00007F00
00007F00
0000F780
0000F780
0001E780
0003E780
0003C780
0007C7C0
000783C0
000F83C0
000F03C0
001F03C0
001E03E0
003E01E0
003C01E0
007C01E0
00F801E0
00F801F0
01F001F0
01FFFFF0
03FFFFF0
03FFFFF0
07FFFFF8
078000F8
0F800078
0F000078
1F000078
3E00007C
3E00007C
7C00007C
7C00003C
F800003C
ENDCHAR
STARTCHAR 0392
ENCODING 914
SWIDTH 600 0
DWIDTH 30 0
BBX 27 36 2 0
BITMAP
03FF8000
07FFFC00
07FFFF00
07FFFF80
07C03FC0
078007C0
078007C0
0F8003E0
0F8003E0
0F8003E0
0F0003C0
0F0007C0
0F0007C0
1F000F80
1F001F80
1F01FF00
1FFFFC00
1FFFF000
3FFFFC00
3E00FE00
3E003F00
3E001F00
3C000F00
3C000F80
7C000F80
7C000F80
7C000F80
7C000F00
78001F00
78003F00
F8007E00
F800FC00
FFFFFC00
FFFFF000
FFFFE000
FFFF0000
ENDCHAR
STARTCHAR 0393
ENCODING 915
SWIDTH 520 0
DWIDTH 26 0
BBX 27 36 2 0
BITMAP
03FFFFE0
03FFFFE0
07FFFFE0
07FFFFC0
07C00000
07C00000
07800000
07800000
0F800000
0F800000
0F800000
0F800000
0F000000
0F000000
1F000000
1F000000
1F000000
1E000000
1E000000
1E000000
3E000000
3E000000
3E000000
3C000000
3C000000
7C000000
7C000000
7C000000
7C000000
78000000
78000000
F8000000
F8000000
F8000000
F8000000
F0000000
ENDCHAR
STARTCHAR 0394
ENCODING 916
SWIDTH 680 0
DWIDTH 34 0
BBX 32 36 -2 0
BITMAP
00000780
00000F80
00000F80
00001FC0
00003FC0
00003FC0
00007FC0
00007BC0
0000FBE0
0000F1E0
0001F1E0
0003E1E0
0003C1E0
0007C1F0
000780F0
000F80F0
001F00F0
001F00F8
003E00F8
003C0078
007C0078
00780078
00F8007C
01F0007C
01F0003C
03E0003C
03C0003C
07C0003E
0F80003E
0F80001E
1F00001E
1F00001E
3FFFFFFF
3FFFFFFF
7FFFFFFF
FFFFFFFF
ENDCHAR
STARTCHAR 0395
ENCODING 917
SWIDTH 540 0
DWIDTH 27 0
BBX 27 36 2 0
BITMAP
03FFFFE0
07FFFFE0
07FFFFE0
07FFFFE0
07C00000
07800000
07800000
0F800000
0F800000
0F800000
0F000000
0F000000
0F000000
1F000000
1F000000
1F000000
1FFFFC00
1FFFFC00
3FFFFC00
3FFFFC00
3E000000
3E000000
3C000000
3C000000
7C000000
7C000000
7C000000
7C000000
78000000
78000000
F8000000
F8000000
FFFFFC00
FFFFFC00
FFFFFC00
FFFFF800
ENDCHAR
STARTCHAR 0396
ENCODING 918
SWIDTH 580 0
DWIDTH 29 0
BBX 30 36 0 0
BITMAP
03FFFFFC
03FFFFFC
03FFFFFC
07FFFFFC
000000F8
000001F0
000003E0
000007E0
00000FC0
00001F80
00001F00
00003E00
00007C00
0000F800
0001F800
0003F000
0007E000
0007C000
000F8000
001F0000
003F0000
007E0000
00FC0000
00F80000
01F00000
03E00000
07E00000
0FC00000
1F800000
3F000000
3E000000
7C000000
FFFFFF80
FFFFFF80
FFFFFF80
FFFFFF80
ENDCHAR
STARTCHAR 0397
ENCODING 919
SWIDTH 680 0
DWIDTH 34 0
BBX 32 36 2 0
BITMAP
03C0000F
07C0001F
07C0001F
07C0001F
07C0001E
0780001E
0780001E
0F80003E
0F80003E
0F80003E
0F00003C
0F00003C
0F00007C
1F00007C
1F00007C
1F00007C
1FFFFFF8
1FFFFFF8
3FFFFFF8
3FFFFFF8
3E0000F8
3E0000F8
3C0000F0
3C0000F0
7C0001F0
7C0001F0
7C0001F0
7C0001E0
780001E0
780001E0
F80003E0
F80003E0
F80003E0
F80003C0
F00003C0
F00007C0
ENDCHAR
STARTCHAR 0398
ENCODING 920
SWIDTH 660 0
DWIDTH 33 0
BBX 28 37 3 -1
BITMAP
000FF000
003FFC00
00FFFF00
01FFFF80
03F81FC0
07E007C0
0FC003E0
0F8003E0
1F0001E0
3E0001F0
3E0001F0
3C0001F0
7C0000F0
7C0000F0
780001F0
F80001F0
F8FFF9F0
F8FFF1F0
F8FFF1F0
F0FFF1F0
F00001E0
F00001E0
F00003E0
F00003E0
F00003C0
F00007C0
F80007C0
F8000F80
78000F00
7C001F00
7C003E00
3F00FC00
1FE7F800
1FFFF000
07FFE000
03FF8000
00100000
ENDCHAR
STARTCHAR 0399
ENCODING 921
SWIDTH 260 0
DWIDTH 13 0
BBX 11 36 2 0
BITMAP
03E0
03C0
03C0
07C0
07C0
07C0
07C0
0780
0780
0F80
0F80
0F80
0F00
0F00
0F00
1F00
1F00
1F00
1E00
1E00
3E00
3E00
3E00
3E00
3C00
3C00
7C00
7C00
7C00
7C00
7800
7800
F800
F800
F800
F000
ENDCHAR
STARTCHAR 039A
ENCODING 922
SWIDTH 600 0
DWIDTH 30 0
BBX 31 36 2 0
BITMAP
03C0007E
07C000FC
07C001F8
07C003F0
07C007E0
07800FC0
07801F80
0F803F00
0F807E00
0F80FC00
0F01F800
0F03F000
0F07E000
1F0FC000
1F1F8000
1F3F0000
1E7E0000
1FFE0000
3FFF0000
3FFF0000
3FCF8000
3F8FC000
3F07C000
3E03E000
7C03E000
7C01F000
7C01F000
7C00F800
7800FC00
78007C00
F8003E00
F8003E00
F8001F00
F8001F00
F0000F80
F0000F80
ENDCHAR
STARTCHAR 039B
ENCODING 923
SWIDTH 620 0
DWIDTH 31 0
BBX 29 36 -1 0
BITMAP
00003C00
00003E00
00007E00
00007E00
0000FE00
0000FE00
0001FE00
0001FF00
0003FF00
0007CF00
0007CF00
000F8F00
000F8F80
001F0F80
001F0F80
003E0780
003E0780
007C0780
007C07C0
00F807C0
00F807C0
01F003C0
01F003C0
03E003E0
03E003E0
07C003E0
07C003E0
0F8001E0
1F8001E0
1F0001F0
3F0001F0
3E0001F0
7C0001F0
7C0000F0
F80000F8
F80000F8
ENDCHAR
STARTCHAR 039C
ENCODING 924
SWIDTH 840 0
DWIDTH 42 0
BBX 40 36 2 0
BITMAP
03E000003F
07F000007F
07F000007F
07F00000FE
07F00000FE
07F80001FE
07F80001FE
0FF80003FE
0F780007FE
0F780007FC
0F7C000FBC
0F3C000F3C
0F3C001F3C
1F3C001E7C
1F3C003E7C
1E3E007C78
1E1E007C78
1E1E00F878
3E1E00F0F8
3E1F01F0F8
3E0F01E0F0
3E0F03E0F0
3C0F03C0F0
3C0F07C1F0
7C0F8F81F0
7C078F01F0
7C079F01E0
7C079E01E0
7807BE01E0
7803FC03E0
F803FC03E0
F803F803E0
F803F003C0
F003F003C0
F001E007C0
F001E007C0
ENDCHAR
STARTCHAR 039D
ENCODING 925
SWIDTH 680 0
DWIDTH 34 0
BBX 32 36 2 0
BITMAP
03C0000F
07E0001F
07E0001F
07E0001F
07F0001E
07F0001E
07F8001E
0FF8003E
0FFC003E
0FFC003E
0F3E003C
0F3E003C
0F1F003C
1F1F007C
1F0F807C
1F0F807C
1E078078
1E07C078
3E07C0F8
3E03E0F8
3E03E0F8
3E01F0F8
3C01F0F0
3C00F8F0
7C00F9F0
7C007DF0
7C007DF0
7C003FE0
78003FE0
78001FE0
F8001FE0
F8001FE0
F8000FE0
F8000FC0
F00007C0
F00007C0
ENDCHAR
STARTCHAR 039E
ENCODING 926
SWIDTH 540 0
DWIDTH 27 0
BBX 28 36 0 0
BITMAP
01FFFFF0
03FFFFF0
03FFFFF0
03FFFFF0
00000000
00000000
00000000
00000000
00000000
00000000
00000000
00000000
00000000
00000000
00000000
00000000
03FFFF00
03FFFE00
07FFFE00
07FFFE00
00000000
00000000
00000000
00000000
00000000
00000000
00000000
00000000
00000000
00000000
00000000
00000000
7FFFFE00
7FFFFE00
7FFFFE00
FFFFFE00
ENDCHAR
STARTCHAR 039F
ENCODING 927
SWIDTH 660 0
DWIDTH 33 0
BBX 28 37 3 -1
BITMAP
0007F800
003FFE00
007FFF00
01FFFF80
03F80FC0
07E007E0
07C003E0
0F8001E0
1F0001F0
1F0001F0
3E0000F0
3E0000F0
3C0000F0
7C0000F0
7C0000F0
780000F0
780000F0
F80000F0
F80001F0
F80001F0
F80001F0
F80001F0
F80001E0
F80003E0
F80003E0
F80003C0
F80007C0
78000780
7C000F80
7C001F00
3E003E00
3F00FE00
1FE7FC00
0FFFF800
07FFE000
01FF8000
00100000
ENDCHAR
STARTCHAR 03A0
ENCODING 928
SWIDTH 680 0
DWIDTH 34 0
BBX 32 36 2 0
BITMAP
03FFFFFF
03FFFFFF
07FFFFFF
07FFFFFE
07C0001E
07C0001E
0780003E
0780003E
0F80003E
0F80003C
0F80003C
0F80007C
0F00007C
0F00007C
1F00007C
1F000078
1F000078
1E0000F8
1E0000F8
1E0000F8
3E0000F8
3E0000F0
3E0000F0
3C0001F0
3C0001F0
7C0001F0
7C0001E0
7C0001E0
7C0001E0
780003E0
780003E0
F80003E0
F80003C0
F80003C0
F80003C0
F00007C0
ENDCHAR
STARTCHAR 03A1
ENCODING 929
SWIDTH 600 0
DWIDTH 30 0
BBX 29 36 2 0
BITMAP
03FFC000
07FFFE00
07FFFF80
07FFFFC0
07C01FE0
078003F0
078001F0
0F8001F0
0F8000F0
0F8000F8
0F0000F8
0F0000F8
0F0000F0
1F0001F0
1F0001F0
1F0003E0
1E0007E0
1E001FC0
3FFFFF80
3FFFFF00
3FFFFC00
3FFFE000
3C000000
3C000000
7C000000
7C000000
7C000000
7C000000
78000000
78000000
F8000000
F8000000
F8000000
F8000000
F0000000
F0000000
ENDCHAR
STARTCHAR 03A3
ENCODING 931
SWIDTH 540 0
DWIDTH 27 0
BBX 29 36 -1 0
BITMAP
03FFFFF8
03FFFFF8
03FFFFF8
03FFFFF8
03E00000
01F00000
01F80000
00F80000
007C0000
007C0000
003E0000
001F0000
001F0000
000F8000
000F8000
0007C000
0003E000
0003E000
0003E000
0007C000
000FC000
001F8000
003F0000
007E0000
00FC0000
01F80000
03F00000
07E00000
0FC00000
1F800000
3F000000
7E000000
7FFFFF80
7FFFFF80
FFFFFF80
FFFFFF00
ENDCHAR
STARTCHAR 03A4
ENCODING 932
SWIDTH 560 0
DWIDTH 28 0
BBX 27 36 4 0
BITMAP
7FFFFFE0
7FFFFFE0
FFFFFFE0
FFFFFFE0
001F0000
001F0000
001E0000
001E0000
003E0000
003E0000
003E0000
003C0000
003C0000
003C0000
007C0000
007C0000
007C0000
00780000
00780000
00780000
00F80000
00F80000
00F80000
00F00000
00F00000
00F00000
01F00000
01F00000
01F00000
01E00000
01E00000
03E00000
03E00000
03E00000
03E00000
03C00000
ENDCHAR
STARTCHAR 03A5
ENCODING 933
SWIDTH 580 0
DWIDTH 29 0
BBX 28 36 4 0
BITMAP
F80001F0
F80003F0
7C0003E0
7C0007C0
3C000FC0
3E000F80
3E001F00
1E003F00
1F003E00
1F007C00
0F00F800
0F80F800
0F81F000
0783E000
07C7E000
03C7C000
03CF8000
03FF0000
01FF0000
01FE0000
01FC0000
00FC0000
00F80000
00F00000
00F00000
00F00000
01F00000
01F00000
01F00000
01E00000
01E00000
03E00000
03E00000
03E00000
03E00000
03C00000
ENDCHAR
STARTCHAR 03A6
ENCODING 934
SWIDTH 680 0
DWIDTH 34 0
BBX 32 36 2 0
BITMAP
00007800
00007800
0000F800
0000F800
0000F800
000FFF00
007FFFC0
01FFFFF0
03FFFFF8
07F1F1F8
0FC1F07C
1F01E03E
3E01E03E
3E01E01E
7C03E01E
7C03E01F
7803E01F
7803C01F
F803C01F
F807C01E
F807C01E
F807C03E
F807C03E
7807807C
7C0780FC
7E0F81F8
3F0F83F0
1FCF9FE0
0FFFFFC0
07FFFF00
01FFFC00
003FC000
001F0000
001F0000
001F0000
001E0000
ENDCHAR
STARTCHAR 03A7
ENCODING 935
SWIDTH 600 0
DWIDTH 30 0
BBX 33 36 -1 0
BITMAP
03E0000F80
01F0001F80
01F0003F00
01F0007E00
00F8007C00
00F800F800
007C01F800
007C03F000
003E07E000
003E07C000
001F0FC000
001F1F8000
000FBF0000
000FBE0000
0007FC0000
0007FC0000
0007F80000
0003F00000
0003F00000
0007F00000
000FF80000
001FF80000
003FF80000
003E7C0000
007C7C0000
00FC3E0000
01F83E0000
01F01F0000
03E01F0000
07E00F8000
0FC00F8000
1F8007C000
1F0007C000
3F0007E000
7E0003E000
FC0003F000
ENDCHAR
STARTCHAR 03A8
ENCODING 936
SWIDTH 660 0
DWIDTH 33 0
BBX 32 36 3 0
BITMAP
1E01E01F
1E01E01F
3E03E01E
3E03E01E
3E03E03E
3C03E03E
3C03C03E
3C03C03E
7C07C03C
7C07C03C
7C07C07C
7807807C
7807807C
7807807C
F80F8078
F80F80F8
F80F80F8
780F00F0
7C0F01F0
7C1F03E0
7E1F07E0
3F1F0FC0
1F9F3F80
1FFFFF00
0FFFFE00
03FFF800
00FFE000
003E0000
003E0000
003C0000
003C0000
007C0000
007C0000
007C0000
00780000
00780000
ENDCHAR
STARTCHAR 03A9
ENCODING 937
SWIDTH 640 0
DWIDTH 32 0
BBX 30 36 0 0
BITMAP
0001FE00
0007FF80
001FFFC0
003FFFE0
007E03F0
00F801F0
01F000F8
03E00078
03E0007C
07C0007C
07C0007C
0780003C
0F80003C
0F80003C
0F00007C
0F00007C
1F00007C
1F00007C
1F00007C
1F000078
1F000078
1F0000F8
1F0000F8
1F0000F0
1F0001F0
0F0001E0
0F0003E0
0F0003C0
0F8007C0
07800F80
07C01F00
03E07E00
7FF9FFE0
7FF1FFE0
7FF1FFE0
FFF1FFC0
ENDCHAR
STARTCHAR 03AA
ENCODING 938
SWIDTH 260 0
DWIDTH 13 0
BBX 17 44 2 0
BITMAP
1C0700
3E0F80
3E0F80
3E0F80
3C0F00
000000
000000
000000
03E000
03C000
03C000
07C000
07C000
07C000
07C000
078000
078000
0F8000
0F8000
0F8000
0F0000
0F0000
0F0000
1F0000
1F0000
1F0000
1E0000
1E0000
3E0000
3E0000
3E0000
3E0000
3C0000
3C0000
7C0000
7C0000
7C0000
7C0000
780000
780000
F80000
F80000
F80000
F00000
ENDCHAR
STARTCHAR 03AB
ENCODING 939
SWIDTH 580 0
DWIDTH 29 0
BBX 28 44 4 0
BITMAP
00600800
00F03E00
00F83E00
00F83E00
00F03C00
00200800
00000000
00000000
F80001F0
F80003F0
7C0003E0
7C0007C0
3C000FC0
3E000F80
3E001F00
1E003F00
1F003E00
1F007C00
0F00F800
0F80F800
0F81F000
0783E000
07C7E000
03C7C000
03CF8000
03FF0000
01FF0000
01FE0000
01FC0000
00FC0000
00F80000
00F00000
00F00000
00F00000
01F00000
01F00000
01F00000
01E00000
01E00000
03E00000
03E00000
03E00000
03E00000
03C00000
ENDCHAR
STARTCHAR 03AC
ENCODING 940
SWIDTH 540 0
DWIDTH 27 0
BBX 24 40 2 -1
BITMAP
0000F8
0000F0
0000F0
0000E0
0001E0
0001C0
0001C0
000380
000000
000000
000000
000000
007E00
01FF0F
07FFCF
0FFFDE
0FC1FE
1F00FE
3E007E
3E003E
7C003E
7C003C
78003C
78003C
F8007C
F8007C
F8007C
F00078
F00078
F00078
F000F8
F800F8
F800F8
7801F8
7C03F8
7F0FFE
3FFFFE
1FFC7E
0FF83E
01C000
ENDCHAR
STARTCHAR 03AD
ENCODING 941
SWIDTH 520 0
DWIDTH 26 0
BBX 23 40 1 -1
BITMAP
0000F0
0001F0
0001E0
0001C0
0003C0
000380
000380
000700
000000
000000
000000
000000
003F80
01FFE0
07FFF8
0FFFFC
0FC07C
1F003E
1E001E
1E001E
1E0000
1E0000
1F0000
0FC000
07FF80
07FF00
1FFF00
3FC000
7E0000
780000
F80000
F80078
F80078
F800F8
FC01F8
7F07F0
3FFFE0
1FFFC0
07FF00
002000
ENDCHAR
STARTCHAR 03AE
ENCODING 942
SWIDTH 540 0
DWIDTH 27 0
BBX 23 49 1 -10
BITMAP
0000F8
0000F0
0000F0
0001E0
0001E0
0001C0
0003C0
000380
000000
000000
000000
000000
0007E0
0F3FF8
0F7FFC
0FFFFC
0FE07E
0F803E
1F801E
1F001E
1F001E
1E001E
1E001E
1E001E
3E003E
3E003E
3E003C
3C003C
3C003C
3C003C
7C007C
7C007C
780078
780078
780078
7800F8
F800F8
F800F8
F000F0
0000F0
0000F0
0001F0
0001F0
0001F0
0001E0
0001E0
0001E0
0003E0
0003E0
ENDCHAR
STARTCHAR 03AF
ENCODING 943
SWIDTH 300 0
DWIDTH 15 0
BBX 12 38 3 0
BITMAP
01F0
01E0
01E0
03C0
03C0
0380
0700
0700
0000
0000
0000
0000
0F00
1F00
1F00
1E00
1E00
1E00
1E00
3E00
3E00
3C00
3C00
3C00
3C00
7C00
7C00
7800
7800
7800
7800
F800
F800
F800
7F80
7F80
7F80
3F80
ENDCHAR
STARTCHAR 03B0
ENCODING 944
SWIDTH 520 0
DWIDTH 26 0
BBX 22 41 3 -1
BITMAP
0007C0
000780
000780
000F00
020F10
0F0E3C
0F807C
0F807C
0F007C
060018
000000
000000
000000
000000
3E00F0
3E00F8
3C00F8
3C00F8
3C0078
7C0078
7C0078
7C0078
780078
780078
780078
F80078
F800F8
F800F8
F000F0
F000F0
F001F0
F001F0
F003E0
F003E0
F007C0
F80F80
7C3F80
7FFF00
3FFC00
1FF800
018000
ENDCHAR
STARTCHAR 03B1
ENCODING 945
SWIDTH 540 0
DWIDTH 27 0
BBX 24 28 2 -1
BITMAP
007E00
01FF0F
07FFCF
0FFFDE
0FC1FE
1F00FE
3E007E
3E003E
7C003E
7C003C
78003C
78003C
F8007C
F8007C
F8007C
F00078
F00078
F00078
F000F8
F800F8
F800F8
7801F8
7C03F8
7F0FFE
3FFFFE
1FFC7E
0FF83E
01C000
ENDCHAR
STARTCHAR 03B2
ENCODING 946
SWIDTH 560 0
DWIDTH 28 0
BBX 27 45 0 -9
BITMAP
0003F800
000FFE00
003FFF00
007FFF80
00FC0FC0
01F007C0
01F003C0
03E003E0
03C003E0
03C003E0
03C003C0
07C007C0
07C007C0
07C00F80
07803F00
0787FE00
0787FC00
0F87FC00
0F87FE00
0F801F00
0F000F00
0F000F80
0F000780
1F000780
1F000780
1E000780
1E000780
1E000F80
1E000F80
3E001F00
3E001F00
3F007E00
3FE1FC00
3FFFFC00
7DFFF000
7C7FE000
7C060000
78000000
78000000
78000000
F8000000
F8000000
F8000000
F0000000
F0000000
ENDCHAR
STARTCHAR 03B3
ENCODING 947
SWIDTH 480 0
DWIDTH 24 0
BBX 22 36 3 -10
BITMAP
F8007C
78007C
7800F8
7800F8
7801F0
7C01F0
3C03E0
3C03C0
3C07C0
3C0780
3C0F80
3E0F00
1E1F00
1E1E00
1E3E00
1E3C00
1E7C00
0F7800
0FF800
0FF000
0FF000
0FE000
07C000
07C000
078000
078000
0F8000
0F8000
0F8000
0F0000
0F0000
0F0000
1F0000
1F0000
1F0000
1E0000
ENDCHAR
STARTCHAR 03B4
ENCODING 948
SWIDTH 540 0
DWIDTH 27 0
BBX 23 39 2 -1
BITMAP
001FF8
007FFC
00FFFC
01FFFC
01F004
03E000
03E000
03E000
03E000
03E000
01F800
01FE00
00FF80
003FC0
01FFF0
03FFF0
0F81F8
1F00FC
3E007C
3C003C
7C003E
78003E
F8003E
F8003E
F8003E
F0003E
F0003E
F0003C
F0003C
F0007C
F80078
F800F8
7801F0
7C03F0
3F0FE0
1FFFC0
0FFF80
07FE00
002000
ENDCHAR
STARTCHAR 03B5
ENCODING 949
SWIDTH 520 0
DWIDTH 26 0
BBX 23 28 1 -1
BITMAP
003F80
01FFE0
07FFF8
0FFFFC
0FC07C
1F003E
1E001E
1E001E
1E0000
1E0000
1F0000
0FC000
07FF80
07FF00
1FFF00
3FC000
7E0000
780000
F80000
F80078
F80078
F800F8
FC01F8
7F07F0
3FFFE0
1FFFC0
07FF00
002000
ENDCHAR
STARTCHAR 03B6
ENCODING 950
SWIDTH 500 0
DWIDTH 25 0
BBX 23 45 3 -9
BITMAP
1FFFFE
1FFFFE
1FFFFE
1FFFFE
00007C
0000F8
0001F0
0003E0
0007C0
000F80
001F00
003E00
007C00
00F800
01F000
03E000
07E000
07C000
0F8000
1F0000
1E0000
3E0000
3C0000
7C0000
7C0000
780000
780000
F80000
F80000
780000
7C0000
7E0000
3FC000
1FF800
0FFC00
03FE00
007F00
001F00
001F00
001E00
001E00
003C00
007C00
007800
003000
ENDCHAR
STARTCHAR 03B7
ENCODING 951
SWIDTH 540 0
DWIDTH 27 0
BBX 23 37 1 -10
BITMAP
0007E0
0F3FF8
0F7FFC
0FFFFC
0FE07E
0F803E
1F801E
1F001E
1F001E
1E001E
1E001E
1E001E
3E003E
3E003E
3E003C
3C003C
3C003C
3C003C
7C007C
7C007C
780078
780078
780078
7800F8
F800F8
F800F8
F000F0
0000F0
0000F0
0001F0
0001F0
0001F0
0001E0
0001E0
0001E0
0003E0
0003E0
ENDCHAR
STARTCHAR 03B8
ENCODING 952
SWIDTH 540 0
DWIDTH 27 0
BBX 23 37 3 -1
BITMAP
003F80
00FFE0
01FFF0
03FFF8
07C0F8
0F807C
0F003C
1F003C
1E003E
3E001E
3C001E
3C001E
7C001E
7C003E
78003E
78003E
7FFFFE
7FFFFC
FFFFFC
FFFFFC
F8007C
F0007C
F0007C
F00078
F00078
F000F8
F000F0
F000F0
F001F0
F801E0
7803E0
7C07C0
3E1F80
3FFF00
1FFE00
0FFC00
004000
ENDCHAR
STARTCHAR 03B9
ENCODING 953
SWIDTH 300 0
DWIDTH 15 0
BBX 9 26 3 0
BITMAP
0F00
1F00
1F00
1E00
1E00
1E00
1E00
3E00
3E00
3C00
3C00
3C00
3C00
7C00
7C00
7800
7800
7800
7800
F800
F800
F800
7F80
7F80
7F80
3F80
ENDCHAR
STARTCHAR 03BA
ENCODING 954
SWIDTH 540 0
DWIDTH 27 0
BBX 26 26 1 0
BITMAP
07800FC0
0F803F00
0F807E00
0F00FC00
0F01F800
0F03F000
0F07E000
1F0FC000
1F1F8000
1E3F0000
1E7E0000
1FFC0000
3FF80000
3FFC0000
3FFC0000
3C3E0000
3C3F0000
3C1F0000
7C0F8000
7C0FC000
7C07C000
7803E000
7803F000
7801F000
F800F800
F8007C00
ENDCHAR
STARTCHAR 03BB
ENCODING 955
SWIDTH 520 0
DWIDTH 26 0
BBX 25 37 -2 0
BITMAP
003C0000
007F0000
007F0000
007F8000
000F8000
00078000
0007C000
0007C000
0007C000
0003C000
0003C000
0003E000
0003E000
0007E000
000FE000
000FE000
001FF000
001FF000
003EF000
003EF000
007CF000
007CF800
00F8F800
00F07800
01F07800
03E07800
03E07C00
07C07C00
07C03C00
0F803C00
0F803E00
1F003E00
1F003E00
3E001F80
3E001F80
7C000F80
FC000780
ENDCHAR
STARTCHAR 03BC
ENCODING 956
SWIDTH 540 0
DWIDTH 27 0
BBX 27 36 -1 -10
BITMAP
01E003E0
03E003E0
03E003C0
03C003C0
03C003C0
03C007C0
07C007C0
07C007C0
07C00780
07800780
07800780
07800F80
0F800F80
0F800F80
0F800F00
0F000F00
0F000F00
0F001F00
1F001F00
1F801E00
1F803E00
1F807E00
1FE1FE00
1FFFFE00
3FFFFE00
3EFFBC00
3C1C0000
3C000000
3C000000
7C000000
7C000000
7C000000
78000000
78000000
78000000
F8000000
ENDCHAR
STARTCHAR 03BD
ENCODING 957
SWIDTH 460 0
DWIDTH 23 0
BBX 21 26 3 0
BITMAP
F000F8
F000F8
F800F0
F801F0
7801E0
7803E0
7803C0
7807C0
7C0780
3C0F80
3C0F00
3C1F00
3C1E00
3C3E00
1E3C00
1E7C00
1E7800
1EF800
1EF000
0EF000
0FE000
0FC000
0FC000
0F8000
078000
070000
ENDCHAR
STARTCHAR 03BE
ENCODING 958
SWIDTH 460 0
DWIDTH 23 0
BBX 23 45 2 -10
BITMAP
000FF8
007FFE
01FFFE
03FFFC
03F000
07C000
078000
0F8000
0F8000
0F8000
0F8000
078000
07C000
03FE00
00FFE0
00FFC0
03FFC0
0FF000
1F8000
3E0000
7C0000
780000
F80000
F80000
F00000
F00000
F00000
F00000
F80000
F80000
7C0000
7E0000
3F8000
1FF800
0FFE00
01FF00
003F80
000F80
000780
000780
000F80
000F00
001E00
003C00
001800
ENDCHAR
STARTCHAR 03BF
ENCODING 959
SWIDTH 540 0
DWIDTH 27 0
BBX 23 28 2 -1
BITMAP
003F00
01FFC0
03FFF0
07FFF8
0FC0F8
1F007C
3E003C
3E003E
7C001E
7C001E
78001E
F8001E
F8001E
F0001E
F0001E
F0001E
F0003E
F0003E
F0003C
F8007C
7800F8
7C00F8
7E03F0
3F0FE0
1FFFC0
0FFF80
07FE00
002000
ENDCHAR
STARTCHAR 03C0
ENCODING 960
SWIDTH 560 0
DWIDTH 28 0
BBX 27 26 2 0
BITMAP
7FFFFFE0
7FFFFFE0
FFFFFFE0
0F803E00
0F803E00
0F003C00
0F003C00
0F003C00
1F007C00
1F007C00
1F007800
1E007800
1E007800
1E007800
3E00F800
3E00F800
3E00F000
3C00F000
3C00F000
3C00F000
7C00F000
7C00F000
7800FF00
7800FF00
78007F00
78003F00
ENDCHAR
STARTCHAR 03C1
ENCODING 961
SWIDTH 540 0
DWIDTH 27 0
BBX 26 37 -1 -10
BITMAP
0007F000
001FFC00
003FFE00
007FFF00
00F81F00
01F00F80
03E00780
03E00780
07C007C0
07C007C0
078007C0
078007C0
0F8007C0
0F8007C0
0F0007C0
0F0007C0
0F000780
1F000780
1F000F80
1F000F00
1F001F00
1F003F00
1F807E00
3FE1FC00
3FFFF800
3EFFF000
3C3FE000
3C060000
3C000000
7C000000
7C000000
7C000000
78000000
78000000
78000000
F8000000
F8000000
ENDCHAR
STARTCHAR 03C2
ENCODING 962
SWIDTH 520 0
DWIDTH 26 0
BBX 22 36 2 -9
BITMAP
003F00
01FFC0
03FFF0
07FFF0
0FC0F8
1F0078
3E007C
3E003C
7C003C
7C003C
780000
780000
F80000
F80000
F00000
F00000
F00000
F80000
F80000
7C0000
7C0000
3E0000
3F8000
1FF000
0FFC00
03FF00
00FF00
001F80
000F80
000F80
000F00
000F00
001E00
003E00
003C00
001800
ENDCHAR
STARTCHAR 03C3
ENCODING 963
SWIDTH 540 0
DWIDTH 27 0
BBX 27 27 2 0
BITMAP
00FFFFE0
03FFFFE0
07FFFFE0
0FE3F000
1F80F800
1F007800
3E003C00
3C003C00
7C003C00
78001E00
F8001E00
F8001E00
F8001E00
F0003E00
F0003E00
F0003C00
F0003C00
F0007C00
F8007C00
7800F800
7801F000
7C03F000
3F0FE000
1FFFC000
0FFF8000
07FE0000
00600000
ENDCHAR
STARTCHAR 03C4
ENCODING 964
SWIDTH 500 0
DWIDTH 25 0
BBX 22 26 3 -1
BITMAP
7FFFFC
7FFFFC
FFFFFC
007800
00F800
00F800
00F000
00F000
00F000
00F000
01F000
01F000
01E000
01E000
01E000
01E000
03E000
03E000
03C000
03C000
03C000
03C000
03FC00
03FE00
01FE00
00FE00
ENDCHAR
STARTCHAR 03C5
ENCODING 965
SWIDTH 520 0
DWIDTH 26 0
BBX 21 27 3 -1
BITMAP
3E00F0
3E00F8
3C00F8
3C00F8
3C0078
7C0078
7C0078
7C0078
780078
780078
780078
F80078
F800F8
F800F8
F000F0
F000F0
F001F0
F001F0
F003E0
F003E0
F007C0
F80F80
7C3F80
7FFF00
3FFC00
1FF800
018000
ENDCHAR
STARTCHAR 03C6
ENCODING 966
SWIDTH 680 0
DWIDTH 34 0
BBX 30 38 2 -12
BITMAP
0300FF00
0781FFC0
0FC3FFE0
1F83E7F0
1F03C1F0
3E03C0F8
3E07C078
7C07C07C
7C07C07C
F807807C
F807803C
F807803C
F00F807C
F00F807C
F00F807C
F00F0078
F00F00F8
F80F00F8
F81F01F0
7C1F03E0
7E1F07E0
3F1E1FC0
1FDEFF80
0FFFFE00
07FFFC00
01FFE000
003E0000
003C0000
003C0000
007C0000
007C0000
007C0000
00780000
00780000
00780000
00F80000
00F80000
00F80000
ENDCHAR
STARTCHAR 03C7
ENCODING 967
SWIDTH 520 0
DWIDTH 26 0
BBX 27 38 -1 -11
BITMAP
07800000
07E001E0
07F003E0
07F007C0
00F80780
00780F80
00781F00
007C1F00
003C3E00
003C7C00
003C7C00
003EF800
001FF000
001FF000
001FE000
000FC000
000FC000
000F8000
000F0000
001F8000
003F8000
003F8000
007F8000
00FBC000
00FBC000
01F3C000
03E3E000
03E1E000
07C1E000
0F81E000
0F81F000
1F00F000
3E00F000
3E00FF00
7C007F00
F8007F00
F8003E00
00000C00
ENDCHAR
STARTCHAR 03C8
ENCODING 968
SWIDTH 660 0
DWIDTH 33 0
BBX 30 38 2 -12
BITMAP
3E03E078
3C03E078
3C03C07C
3C03C07C
7C03C07C
7C07C03C
7C07C03C
7807C03C
7807803C
7807803C
F807803C
F80F807C
F80F807C
F80F807C
F80F0078
F80F00F8
F80F00F8
F81F01F0
781F01F0
7C1F03E0
7E1E0FC0
3F1E1FC0
1FDEFF80
0FFFFE00
07FFFC00
01FFE000
003C0000
003C0000
003C0000
007C0000
007C0000
00780000
00780000
00780000
00F80000
00F80000
00F80000
00F00000
ENDCHAR
STARTCHAR 03C9
ENCODING 969
SWIDTH 780 0
DWIDTH 39 0
BBX 34 27 3 -1
BITMAP
0F80000F80
0F80000780
1F00000780
1F000007C0
3E000007C0
3E000007C0
7C000003C0
7C01F003C0
7801F003C0
F801F003C0
F801E003C0
F001E007C0
F001E007C0
F003E007C0
F003E00780
F003E00780
F003E00780
F003E00F80
F007E00F00
F007E01F00
F00FE01E00
F81EF03E00
7C3EF8FC00
7FFC7FF800
3FF83FF000
1FF01FE000
0100070000
ENDCHAR
STARTCHAR 03CA
ENCODING 970
SWIDTH 300 0
DWIDTH 15 0
BBX 16 36 2 0
BITMAP
1004
781E
7C1F
FC1F
781E
300C
0000
0000
0000
0000
0780
0F80
0F80
0F00
0F00
0F00
0F00
1F00
1F00
1E00
1E00
1E00
1E00
3E00
3E00
3C00
3C00
3C00
3C00
7C00
7C00
7C00
3FC0
3FC0
3FC0
1FC0
ENDCHAR
STARTCHAR 03CB
ENCODING 971
SWIDTH 520 0
DWIDTH 26 0
BBX 21 37 3 -1
BITMAP
008000
03C0F0
07E0F8
07E0F8
03C0F0
010060
000000
000000
000000
000000
3E00F0
3E00F8
3C00F8
3C00F8
3C0078
7C0078
7C0078
7C0078
780078
780078
780078
F80078
F800F8
F800F8
F000F0
F000F0
F001F0
F001F0
F003E0
F003E0
F007C0
F80F80
7C3F80
7FFF00
3FFC00
1FF800
018000
ENDCHAR
STARTCHAR 03CC
ENCODING 972
SWIDTH 540 0
DWIDTH 27 0
BBX 23 40 2 -1
BITMAP
0001E0
0001E0
0003C0
0003C0
000380
000780
000700
000700
000000
000000
000000
000000
003F00
01FFC0
03FFF0
07FFF8
0FC0F8
1F007C
3E003C
3E003E
7C001E
7C001E
78001E
F8001E
F8001E
F0001E
F0001E
F0001E
F0003E
F0003E
F0003C
F8007C
7800F8
7C00F8
7E03F0
3F0FE0
1FFFC0
0FFF80
07FE00
002000
ENDCHAR
STARTCHAR 03CD
ENCODING 973
SWIDTH 520 0
DWIDTH 26 0
BBX 21 39 3 -1
BITMAP
000780
000780
000700
000F00
000E00
000E00
001C00
001C00
000000
000000
000000
000000
3E00F0
3E00F8
3C00F8
3C00F8
3C0078
7C0078
7C0078
7C0078
780078
780078
780078
F80078
F800F8
F800F8
F000F0
F000F0
F001F0
F001F0
F003E0
F003E0
F007C0
F80F80
7C3F80
7FFF00
3FFC00
1FF800
018000
ENDCHAR
STARTCHAR 03CE
ENCODING 974
SWIDTH 780 0
DWIDTH 39 0
BBX 34 39 3 -1
BITMAP
0000078000
00000F0000
00000F0000
00000E0000
00001E0000
00001C0000
00001C0000
0000380000
0000000000
0000000000
0000000000
0000000000
0F80000F80
0F80000780
1F00000780
1F000007C0
3E000007C0
3E000007C0
7C000003C0
7C01F003C0
7801F003C0
F801F003C0
F801E003C0
F001E007C0
F001E007C0
F003E007C0
F003E00780
F003E00780
F003E00780
F003E00F80
F007E00F00
F007E01F00
F00FE01E00
F81EF03E00
7C3EF8FC00
7FFC7FF800
3FF83FF000
1FF01FE000
0100070000
ENDCHAR
STARTCHAR 03D1
ENCODING 977
SWIDTH 560 0
DWIDTH 28 0
BBX 26 37 2 -1
BITMAP
0007F000
000FFC00
001FFC00
003FFE00
007C1E00
00781F00
00F81F00
00F81F00
00F01F00
00F01F00
00F01F00
00F01E00
00F81E00
00F81E00
007C3E00
007E3E00
003F3E00
3C1FFDC0
7C0FFFC0
7C07FFC0
7801FFC0
78007C00
78007C00
78007800
F8007800
F8007800
F8007800
F800F800
F800F000
F801F000
7C01E000
7C03E000
3F8FC000
3FFF8000
1FFF0000
07FC0000
00E00000
ENDCHAR
STARTCHAR 03D2
ENCODING 978
SWIDTH 500 0
DWIDTH 25 0
BBX 27 36 3 0
BITMAP
F00003E0
FC000FE0
FC001FE0
FE001FC0
3E003F00
1F007E00
1F007C00
0F00F800
0F00F800
0F81F000
0783E000
0783E000
0787C000
07C7C000
03CF8000
03CF0000
03DF0000
03FE0000
01FC0000
01FC0000
01F80000
00F80000
01F00000
01F00000
01F00000
01F00000
01E00000
01E00000
03E00000
03E00000
03E00000
03E00000
03C00000
03C00000
07C00000
07C00000
ENDCHAR
STARTCHAR 03D6
ENCODING 982
SWIDTH 760 0
DWIDTH 38 0
BBX 36 27 3 -1
BITMAP
7FFFFFFFF0
FFFFFFFFF0
FFFFFFFFF0
1F00001F00
3E00000F00
3E00000F00
7C00000F00
7C00000F00
7803E00F00
F803E00F00
F803E00F00
F003C00F00
F003C00F00
F003C00F00
F007C01F00
F007C01F00
F007C01E00
F007C01E00
F00FC03E00
F00FC03C00
F01FC07C00
F81DE07800
7C7CF1F800
7FF8FFF000
3FF07FE000
1FE03FC000
0300060000
ENDCHAR
STARTCHAR 0400
ENCODING 1024
SWIDTH 540 0
DWIDTH 27 0
BBX 27 45 2 0
BITMAP
001F0000
000F8000
00078000
0007C000
0003C000
0001C000
0001E000
00000000
00000000
03FFFFE0
07FFFFE0
07FFFFE0
07FFFFE0
07C00000
07800000
07800000
0F800000
0F800000
0F800000
0F000000
0F000000
0F000000
1F000000
1F000000
1F000000
1FFFFC00
1FFFFC00
3FFFFC00
3FFFFC00
3E000000
3E000000
3C000000
3C000000
7C000000
7C000000
7C000000
7C000000
78000000
78000000
F8000000
F8000000
FFFFFC00
FFFFFC00
FFFFFC00
FFFFF800
ENDCHAR
STARTCHAR 0401
ENCODING 1025
SWIDTH 540 0
DWIDTH 27 0
BBX 27 44 2 0
BITMAP
001C0700
003E0F80
003E0F80
003E0F80
003C0F00
00000000
00000000
00000000
03FFFFE0
07FFFFE0
07FFFFE0
07FFFFE0
07C00000
07800000
07800000
0F800000
0F800000
0F800000
0F000000
0F000000
0F000000
1F000000
1F000000
1F000000
1FFFFC00
1FFFFC00
3FFFFC00
3FFFFC00
3E000000
3E000000
3C000000
3C000000
7C000000
7C000000
7C000000
7C000000
78000000
78000000
F8000000
F8000000
FFFFFC00
FFFFFC00
FFFFFC00
FFFFF800
ENDCHAR
STARTCHAR 0402
ENCODING 1026
SWIDTH 720 0
DWIDTH 36 0
BBX 30 36 4 0
BITMAP
7FFFFFE0
FFFFFFE0
FFFFFFE0
FFFFFFE0
003C0000
003C0000
007C0000
007C0000
007C0000
00780000
00780000
00780000
00F80000
00F80000
00F8F800
00FFFF80
00FFFFC0
01FFFFF0
01FF0FF0
01F001F8
01F000F8
01E0007C
01E0007C
03E0007C
03E0007C
03E0007C
03E0007C
03C00078
03C000F8
07C000F8
07C001F0
07C007F0
07807FE0
07807FC0
0780FF00
0F80FC00
ENDCHAR
STARTCHAR 0403
ENCODING 1027
SWIDTH 520 0
DWIDTH 26 0
BBX 27 45 2 0
BITMAP
00001F80
00001F00
00003E00
00007C00
0000F800
0001F000
0001E000
00000000
00000000
03FFFFE0
03FFFFE0
07FFFFE0
07FFFFC0
07C00000
07C00000
07800000
07800000
0F800000
0F800000
0F800000
0F800000
0F000000
0F000000
1F000000
1F000000
1F000000
1E000000
1E000000
1E000000
3E000000
3E000000
3E000000
3C000000
3C000000
7C000000
7C000000
7C000000
7C000000
78000000
78000000
F8000000
F8000000
F8000000
F8000000
F0000000
ENDCHAR
STARTCHAR 0404
ENCODING 1028
SWIDTH 640 0
DWIDTH 32 0
BBX 28 37 3 -1
BITMAP
0007F800
003FFE00
00FFFF00
01FFFF80
03F80FC0
07E007E0
07C003E0
0F8001E0
1F0001F0
1F0001F0
3E0001F0
3E0000F0
3C000000
7C000000
7C000000
7C000000
7FFFE000
7FFFE000
FFFFE000
FFFFC000
F8000000
F8000000
F8000000
F8000000
F8000000
F80007C0
F8000780
78000F80
78000F80
7C001F00
3E003E00
3F007E00
1FC3FC00
0FFFF800
07FFE000
03FF8000
00100000
ENDCHAR
STARTCHAR 0405
ENCODING 1029
SWIDTH 560 0
DWIDTH 28 0
BBX 28 37 1 -1
BITMAP
0007F800
003FFE00
00FFFF00
01FFFF80
03F80FC0
07E003E0
07C003E0
0F8001F0
0F8001F0
0F8001F0
0F8001F0
0F800000
0F800000
07C00000
07F00000
03FC0000
01FF8000
00FFE000
003FF800
000FFC00
0001FE00
00007F00
00001F00
00000F80
00000F80
00000F80
F8000F80
F8000F80
F8000F80
78001F00
7C001F00
3E007E00
3FE3FE00
1FFFF800
07FFF000
01FFC000
00080000
ENDCHAR
STARTCHAR 0406
ENCODING 1030
SWIDTH 260 0
DWIDTH 13 0
BBX 11 36 2 0
BITMAP
03E0
03C0
03C0
07C0
07C0
07C0
07C0
0780
0780
0F80
0F80
0F80
0F00
0F00
0F00
1F00
1F00
1F00
1E00
1E00
3E00
3E00
3E00
3E00
3C00
3C00
7C00
7C00
7C00
7C00
7800
7800
F800
F800
F800
F000
ENDCHAR
STARTCHAR 0407
ENCODING 1031
SWIDTH 260 0
DWIDTH 13 0
BBX 17 44 2 0
BITMAP
1C0700
3E0F80
3E0F80
3E0F80
3C0F00
000000
000000
000000
03E000
03C000
03C000
07C000
07C000
07C000
07C000
078000
078000
0F8000
0F8000
0F8000
0F0000
0F0000
0F0000
1F0000
1F0000
1F0000
1E0000
1E0000
3E0000
3E0000
3E0000
3E0000
3C0000
3C0000
7C0000
7C0000
7C0000
7C0000
780000
780000
F80000
F80000
F80000
F00000
ENDCHAR
STARTCHAR 0408
ENCODING 1032
SWIDTH 520 0
DWIDTH 26 0
BBX 27 37 0 -1
BITMAP
000003E0
000003C0
000003C0
000003C0
000007C0
000007C0
000007C0
00000780
00000780
00000780
00000F80
00000F80
00000F80
00000F00
00000F00
00000F00
00001F00
00001F00
00001F00
00001E00
00001E00
00003E00
00003E00
00003E00
00003E00
00003C00
F8003C00
F8007C00
F8007C00
7800F800
7C00F800
7E03F000
3F8FE000
3FFFC000
0FFF8000
07FE0000
00200000
ENDCHAR
STARTCHAR 0409
ENCODING 1033
SWIDTH 1020 0
DWIDTH 51 0
BBX 50 36 -1 0
BITMAP
0003FFFFE00000
0007FFFFC00000
0007FFFFC00000
0007FFFFC00000
00078007C00000
000F8007C00000
000F8007C00000
000F8007800000
000F0007800000
000F000F800000
001F000F800000
001F000F800000
001E000F000000
001E000F000000
003E000FFFC000
003E001FFFF800
003E001FFFFE00
003C001FFFFF00
003C001E003F80
007C001E000F80
007C003E0007C0
007C003E0007C0
0078003E0003C0
0078003E0003C0
00F8003C0003C0
00F8003C0003C0
00F0007C0007C0
01F0007C0007C0
01E0007C000F80
03E0007C000F80
07C00078003F00
0FC00078007F00
FF8000FFFFFE00
FF0000FFFFFC00
FE0000FFFFF000
F80000FFFF8000
ENDCHAR
STARTCHAR 040A
ENCODING 1034
SWIDTH 1040 0
DWIDTH 52 0
BBX 48 36 2 0
BITMAP
03C0001F0000
03C0001F0000
07C0001F0000
07C0001E0000
07C0001E0000
07C0001E0000
0780003E0000
0780003E0000
0F80003E0000
0F80003C0000
0F80003C0000
0F80007C0000
0F00007C0000
0F00007C0000
1F00007C0000
1F00007FFE00
1FFFFFFFFFE0
1FFFFFFFFFF0
1FFFFFFFFFF8
1FFFFFF801FC
3E0000F8007E
3E0000F0003E
3E0000F0001E
3C0001F0001F
3C0001F0001F
7C0001F0001F
7C0001E0001E
7C0001E0003E
7C0001E0003E
780003E0007C
780003E000FC
F80003E003F8
F80003FFFFF0
F80003FFFFE0
F80007FFFF80
F00007FFFE00
ENDCHAR
STARTCHAR 040B
ENCODING 1035
SWIDTH 780 0
DWIDTH 39 0
BBX 30 36 5 0
BITMAP
FFFFFFE0
FFFFFFE0
FFFFFFE0
FFFFFFC0
007C0000
00780000
00780000
00780000
00F80000
00F80000
00F80000
00F00000
00F00000
01F00000
01F7FF00
01FFFFC0
01FFFFE0
01FFFFF0
01F801F8
03E000F8
03E00078
03E0007C
03E0007C
03C0007C
03C0007C
07C0007C
07C00078
07C00078
078000F8
078000F8
078000F8
0F8000F8
0F8000F0
0F8000F0
0F0001F0
0F0001F0
ENDCHAR
STARTCHAR 040C
ENCODING 1036
SWIDTH 600 0
DWIDTH 30 0
BBX 31 45 2 0
BITMAP
00001F80
00003F00
00003E00
00007C00
0000F800
0001E000
0003C000
00000000
00000000
03C0007E
07C000FC
07C001F8
07C003F0
07C007E0
07800FC0
07801F80
0F803F00
0F807E00
0F80FC00
0F01F800
0F03F000
0F07E000
1F0FC000
1F1F8000
1F3F0000
1E7E0000
1FFE0000
3FFF0000
3FFF0000
3FCF8000
3F8FC000
3F07C000
3E03E000
7C03E000
7C01F000
7C01F000
7C00F800
7800FC00
78007C00
F8003E00
F8003E00
F8001F00
F8001F00
F0000F80
F0000F80
ENDCHAR
STARTCHAR 040D
ENCODING 1037
SWIDTH 680 0
DWIDTH 34 0
BBX 32 45 2 0
BITMAP
0003E000
0001E000
0001F000
0000F000
00007800
00007800
00003C00
00000000
00000000
03C0001F
03C0003F
07C0003F
07C0007E
07C000FE
07C001FE
078003FE
078003FE
0F8007FE
0F800FBC
0F801FBC
0F003F7C
0F003E7C
0F007C7C
1F00F87C
1F01F878
1F03F078
1E03E0F8
1E07C0F8
1E0F80F8
3E1F80F0
3E3F00F0
3E3E00F0
3C7C01F0
3CFC01F0
7DF801F0
7FF001E0
7FE001E0
7FC003E0
7FC003E0
7F8003E0
FF0003E0
FE0003C0
FC0003C0
FC0007C0
F80007C0
ENDCHAR
STARTCHAR 040E
ENCODING 1038
SWIDTH 600 0
DWIDTH 30 0
BBX 29 45 4 -1
BITMAP
00780E00
00781E00
003C3E00
003FFC00
001FF800
0007E000
00000000
00000000
3C0001F8
3E0001F0
3E0003F0
3E0003E0
1F0007C0
1F000FC0
1F000F80
1F001F80
0F801F00
0F803F00
0F803E00
07807C00
07C07C00
07C0F800
07C1F800
03C1F000
03E3E000
03E3E000
01E7C000
01E7C000
01FF8000
01FF8000
00FF0000
00FE0000
00FE0000
00FC0000
007C0000
00F80000
00F00000
01F00000
03E00000
07E00000
0FC00000
FF800000
FF000000
FE000000
60000000
ENDCHAR
STARTCHAR 040F
ENCODING 1039
SWIDTH 680 0
DWIDTH 34 0
BBX 32 45 2 -9
BITMAP
03C0001F
03C0001F
07C0001F
07C0001E
07C0001E
07C0003E
0780003E
0780003E
0F80003E
0F80003C
0F80003C
0F00007C
0F00007C
0F00007C
1F00007C
1F000078
1F000078
1E0000F8
1E0000F8
3E0000F8
3E0000F0
3E0000F0
3E0000F0
3C0001F0
3C0001F0
7C0001F0
7C0001E0
7C0001E0
7C0003E0
780003E0
780003E0
F80003E0
FFFFFFC0
FFFFFFC0
FFFFFFC0
FFFFFFC0
003E0000
003E0000
003E0000
003E0000
003C0000
003C0000
007C0000
007C0000
007C0000
ENDCHAR
STARTCHAR 0410
ENCODING 1040
SWIDTH 620 0
DWIDTH 31 0
BBX 30 36 -2 0
BITMAP
00001E00
00001F00
00003F00
00003F00
00007F00
00007F00
0000F780
0000F780
0001E780
0003E780
0003C780
0007C7C0
000783C0
000F83C0
000F03C0
001F03C0
001E03E0
003E01E0
003C01E0
007C01E0
00F801E0
00F801F0
01F001F0
01FFFFF0
03FFFFF0
03FFFFF0
07FFFFF8
078000F8
0F800078
0F000078
1F000078
3E00007C
3E00007C
7C00007C
7C00003C
F800003C
ENDCHAR
STARTCHAR 0411
ENCODING 1041
SWIDTH 600 0
DWIDTH 30 0
BBX 28 36 1 0
BITMAP
03FFFFF0
03FFFFF0
03FFFFE0
03FFFFE0
03C00000
03C00000
07C00000
07C00000
07C00000
07C00000
07800000
07800000
0F800000
0F800000
0F800000
0FFFF000
0FFFFE00
0FFFFF00
1FFFFF80
1F001FC0
1F0007C0
1E0003C0
1E0003E0
3E0003E0
3E0003E0
3E0003E0
3E0003E0
3C0003C0
3C0007C0
7C000FC0
7C001F80
7C007F00
7FFFFE00
7FFFFC00
7FFFF800
FFFFC000
ENDCHAR
STARTCHAR 0412
ENCODING 1042
SWIDTH 600 0
DWIDTH 30 0
BBX 27 36 2 0
BITMAP
03FF8000
07FFFC00
07FFFF00
07FFFF80
07C03FC0
078007C0
078007C0
0F8003E0
0F8003E0
0F8003E0
0F0003C0
0F0007C0
0F0007C0
1F000F80
1F001F80
1F01FF00
1FFFFC00
1FFFF000
3FFFFC00
3E00FE00
3E003F00
3E001F00
3C000F00
3C000F80
7C000F80
7C000F80
7C000F80
7C000F00
78001F00
78003F00
F8007E00
F800FC00
FFFFFC00
FFFFF000
FFFFE000
FFFF0000
ENDCHAR
STARTCHAR 0413
ENCODING 1043
SWIDTH 520 0
DWIDTH 26 0
BBX 27 36 2 0
BITMAP
03FFFFE0
03FFFFE0
07FFFFE0
07FFFFC0
07C00000
07C00000
07800000
07800000
0F800000
0F800000
0F800000
0F800000
0F000000
0F000000
1F000000
1F000000
1F000000
1E000000
1E000000
1E000000
3E000000
3E000000
3E000000
3C000000
3C000000
7C000000
7C000000
7C000000
7C000000
78000000
78000000
F8000000
F8000000
F8000000
F8000000
F0000000
ENDCHAR
STARTCHAR 0414
ENCODING 1044
SWIDTH 720 0
DWIDTH 36 0
BBX 37 45 -3 -9
BITMAP
00007FFFF8
0000FFFFF8
0000FFFFF8
0000FFFFF8
0000F000F8
0001F000F0
0001F000F0
0001F001F0
0001E001F0
0001E001F0
0003E001E0
0003E001E0
0003E001E0
0003C003E0
0007C003E0
0007C003E0
0007C003C0
00078003C0
000F8007C0
000F8007C0
000F8007C0
000F0007C0
001F000780
001F000780
003E000F80
003E000F80
007E000F80
007C000F80
00FC000F00
00F8000F00
01F8001F00
03F0001F00
3FFFFFFFF0
3FFFFFFFF0
3FFFFFFFF0
3FFFFFFFF0
3C000001E0
7C000001E0
7C000001E0
7C000003E0
78000003E0
78000003E0
78000003C0
F8000003C0
F8000007C0
ENDCHAR
STARTCHAR 0415
ENCODING 1045
SWIDTH 540 0
DWIDTH 27 0
BBX 27 36 2 0
BITMAP
03FFFFE0
07FFFFE0
07FFFFE0
07FFFFE0
07C00000
07800000
07800000
0F800000
0F800000
0F800000
0F000000
0F000000
0F000000
1F000000
1F000000
1F000000
1FFFFC00
1FFFFC00
3FFFFC00
3FFFFC00
3E000000
3E000000
3C000000
3C000000
7C000000
7C000000
7C000000
7C000000
78000000
78000000
F8000000
F8000000
FFFFFC00
FFFFFC00
FFFFFC00
FFFFF800
ENDCHAR
STARTCHAR 0416
ENCODING 1046
SWIDTH 880 0
DWIDTH 44 0
BBX 49 36 -2 0
BITMAP
01F0003C001F80
00F8007C003F00
00F8007C007E00
007C007C007C00
007C007800F800
003E007801F800
003E007803F000
001E00F807E000
001F00F807C000
000F00F80F8000
000F80F01F0000
000F80F03F0000
000780F03E0000
0007C1F07C0000
0003C1F0F80000
0003E1F1F00000
0001FFFFF00000
0001FFFFE00000
0003FFFFE00000
0007FFFFF00000
000FC3E1F00000
001F83E1F80000
001F03C0F80000
003F03C0F80000
007E07C07C0000
00FC07C07C0000
01F807C03E0000
01F807803E0000
03F007803F0000
07E007801F0000
0FC00F801F8000
1F800F800F8000
1F800F800F8000
3F000F0007C000
7E000F0007C000
FC000F0007E000
ENDCHAR
STARTCHAR 0417
ENCODING 1047
SWIDTH 560 0
DWIDTH 28 0
BBX 27 37 1 -1
BITMAP
000FF000
007FFE00
00FFFF00
01FFFF80
03F00FC0
07E007E0
0FC003E0
0F8003E0
0F0001E0
0F0001E0
000003E0
000003E0
000003E0
000007C0
00000F80
00007F00
003FFE00
003FF800
003FF800
003FFE00
00007E00
00001F00
00000F80
00000F80
00000F80
00000F80
F8000F80
F8000F80
F8000F00
F8001F00
7C003F00
7E00FE00
3FC7FC00
1FFFF800
0FFFE000
03FF8000
00100000
ENDCHAR
STARTCHAR 0418
ENCODING 1048
SWIDTH 680 0
DWIDTH 34 0
BBX 32 36 2 0
BITMAP
03C0001F
03C0003F
07C0003F
07C0007E
07C000FE
07C001FE
078003FE
078003FE
0F8007FE
0F800FBC
0F801FBC
0F003F7C
0F003E7C
0F007C7C
1F00F87C
1F01F878
1F03F078
1E03E0F8
1E07C0F8
1E0F80F8
3E1F80F0
3E3F00F0
3E3E00F0
3C7C01F0
3CFC01F0
7DF801F0
7FF001E0
7FE001E0
7FC003E0
7FC003E0
7F8003E0
FF0003E0
FE0003C0
FC0003C0
FC0007C0
F80007C0
ENDCHAR
STARTCHAR 0419
ENCODING 1049
SWIDTH 680 0
DWIDTH 34 0
BBX 32 44 2 0
BITMAP
000780E0
000781E0
0003C3E0
0003FFC0
0001FF80
00007E00
00000000
00000000
03C0001F
03C0003F
07C0003F
07C0007E
07C000FE
07C001FE
078003FE
078003FE
0F8007FE
0F800FBC
0F801FBC
0F003F7C
0F003E7C
0F007C7C
1F00F87C
1F01F878
1F03F078
1E03E0F8
1E07C0F8
1E0F80F8
3E1F80F0
3E3F00F0
3E3E00F0
3C7C01F0
3CFC01F0
7DF801F0
7FF001E0
7FE001E0
7FC003E0
7FC003E0
7F8003E0
FF0003E0
FE0003C0
FC0003C0
FC0007C0
F80007C0
ENDCHAR
STARTCHAR 041A
ENCODING 1050
SWIDTH 620 0
DWIDTH 31 0
BBX 32 36 2 0
BITMAP
03C0003F
03C0007E
07C000FC
07C001F8
07C003F0
07C007E0
07800FC0
07801F80
0F803F00
0F807E00
0F80FC00
0F81F800
0F03F800
0F03F000
1F07E000
1F0FC000
1FFF8000
1FFF0000
1FFF0000
1FFF0000
3E0F8000
3E0FC000
3E07C000
3C07E000
3C03E000
7C01F000
7C01F800
7C00F800
7C007C00
78007C00
78003E00
F8003F00
F8001F00
F8000F80
F8000F80
F00007C0
ENDCHAR
STARTCHAR 041B
ENCODING 1051
SWIDTH 680 0
DWIDTH 34 0
BBX 35 36 -1 0
BITMAP
0007FFFFE0
0007FFFFE0
0007FFFFC0
0007FFFFC0
00078007C0
000F8007C0
000F8007C0
000F8007C0
000F000780
000F000780
001F000F80
001F000F80
001E000F80
001E000F00
003E000F00
003E000F00
003E001F00
003C001F00
003C001F00
007C001E00
007C001E00
0078003E00
0078003E00
0078003E00
00F8003E00
00F0003C00
00F0003C00
01F0007C00
01E0007C00
03E0007C00
07C0007C00
0FC0007800
FF80007800
FF0000F800
FE0000F800
F80000F800
ENDCHAR
STARTCHAR 041C
ENCODING 1052
SWIDTH 840 0
DWIDTH 42 0
BBX 40 36 2 0
BITMAP
03E000003F
07F000007F
07F000007F
07F00000FE
07F00000FE
07F80001FE
07F80001FE
0FF80003FE
0F780007FE
0F780007FC
0F7C000FBC
0F3C000F3C
0F3C001F3C
1F3C001E7C
1F3C003E7C
1E3E007C78
1E1E007C78
1E1E00F878
3E1E00F0F8
3E1F01F0F8
3E0F01E0F0
3E0F03E0F0
3C0F03C0F0
3C0F07C1F0
7C0F8F81F0
7C078F01F0
7C079F01E0
7C079E01E0
7807BE01E0
7803FC03E0
F803FC03E0
F803F803E0
F803F003C0
F003F003C0
F001E007C0
F001E007C0
ENDCHAR
STARTCHAR 041D
ENCODING 1053
SWIDTH 680 0
DWIDTH 34 0
BBX 32 36 2 0
BITMAP
03C0000F
07C0001F
07C0001F
07C0001F
07C0001E
0780001E
0780001E
0F80003E
0F80003E
0F80003E
0F00003C
0F00003C
0F00007C
1F00007C
1F00007C
1F00007C
1FFFFFF8
1FFFFFF8
3FFFFFF8
3FFFFFF8
3E0000F8
3E0000F8
3C0000F0
3C0000F0
7C0001F0
7C0001F0
7C0001F0
7C0001E0
780001E0
780001E0
F80003E0
F80003E0
F80003E0
F80003C0
F00003C0
F00007C0
ENDCHAR
STARTCHAR 041E
ENCODING 1054
SWIDTH 660 0
DWIDTH 33 0
BBX 28 37 3 -1
BITMAP
0007F800
003FFE00
007FFF00
01FFFF80
03F80FC0
07E007E0
07C003E0
0F8001E0
1F0001F0
1F0001F0
3E0000F0
3E0000F0
3C0000F0
7C0000F0
7C0000F0
780000F0
780000F0
F80000F0
F80001F0
F80001F0
F80001F0
F80001F0
F80001E0
F80003E0
F80003E0
F80003C0
F80007C0
78000780
7C000F80
7C001F00
3E003E00
3F00FE00
1FE7FC00
0FFFF800
07FFE000
01FF8000
00100000
ENDCHAR
STARTCHAR 041F
ENCODING 1055
SWIDTH 680 0
DWIDTH 34 0
BBX 32 36 2 0
BITMAP
03FFFFFF
03FFFFFF
07FFFFFF
07FFFFFE
07C0001E
07C0001E
0780003E
0780003E
0F80003E
0F80003C
0F80003C
0F80007C
0F00007C
0F00007C
1F00007C
1F000078
1F000078
1E0000F8
1E0000F8
1E0000F8
3E0000F8
3E0000F0
3E0000F0
3C0001F0
3C0001F0
7C0001F0
7C0001E0
7C0001E0
7C0001E0
780003E0
780003E0
F80003E0
F80003C0
F80003C0
F80003C0
F00007C0
ENDCHAR
STARTCHAR 0420
ENCODING 1056
SWIDTH 600 0
DWIDTH 30 0
BBX 29 36 2 0
BITMAP
03FFC000
07FFFE00
07FFFF80
07FFFFC0
07C01FE0
078003F0
078001F0
0F8001F0
0F8000F0
0F8000F8
0F0000F8
0F0000F8
0F0000F0
1F0001F0
1F0001F0
1F0003E0
1E0007E0
1E001FC0
3FFFFF80
3FFFFF00
3FFFFC00
3FFFE000
3C000000
3C000000
7C000000
7C000000
7C000000
7C000000
78000000
78000000
F8000000
F8000000
F8000000
F8000000
F0000000
F0000000
ENDCHAR
STARTCHAR 0421
ENCODING 1057
SWIDTH 620 0
DWIDTH 31 0
BBX 28 37 3 -1
BITMAP
0007F800
003FFE00
00FFFF00
01FFFF80
03F80FC0
07E007E0
0FC003E0
0F8001E0
1F0001F0
1F0001F0
3E0001F0
3E0000F0
3C000000
7C000000
7C000000
78000000
78000000
F8000000
F8000000
F8000000
F8000000
F8000000
F0000000
F0000000
F0000000
F8000780
F8000F80
F8000F80
78001F00
7C001F00
3C003E00
3F00FE00
1FC3FC00
0FFFF800
07FFE000
03FF8000
00100000
ENDCHAR
STARTCHAR 0422
ENCODING 1058
SWIDTH 560 0
DWIDTH 28 0
BBX 27 36 4 0
BITMAP
7FFFFFE0
7FFFFFE0
FFFFFFE0
FFFFFFE0
001F0000
001F0000
001E0000
001E0000
003E0000
003E0000
003E0000
003C0000
003C0000
003C0000
007C0000
007C0000
007C0000
00780000
00780000
00780000
00F80000
00F80000
00F80000
00F00000
00F00000
00F00000
01F00000
01F00000
01F00000
01E00000
01E00000
03E00000
03E00000
03E00000
03E00000
03C00000
ENDCHAR
STARTCHAR 0423
ENCODING 1059
SWIDTH 600 0
DWIDTH 30 0
BBX 29 37 4 -1
BITMAP
3C0001F8
3E0001F0
3E0003F0
3E0003E0
1F0007C0
1F000FC0
1F000F80
1F001F80
0F801F00
0F803F00
0F803E00
07807C00
07C07C00
07C0F800
07C1F800
03C1F000
03E3E000
03E3E000
01E7C000
01E7C000
01FF8000
01FF8000
00FF0000
00FE0000
00FE0000
00FC0000
007C0000
00F80000
00F00000
01F00000
03E00000
07E00000
0FC00000
FF800000
FF000000
FE000000
60000000
ENDCHAR
STARTCHAR 0424
ENCODING 1060
SWIDTH 740 0
DWIDTH 37 0
BBX 34 38 2 -1
BITMAP
00003E0000
00003E0000
00003C0000
00003C0000
00003C0000
0007FFC000
003FFFF000
00FFFFFC00
01FFFFFE00
07F0783F00
0FC0781F00
0F80780F80
1F00F80780
3E00F807C0
3E00F003C0
7C00F003C0
7C00F003C0
7801F003C0
7801F003C0
7801F003C0
F801E003C0
F801E007C0
F801E007C0
7803E00780
7803E00F80
7803E01F00
7C03C01F00
3E03C07E00
3F03C0FC00
1FC7C3F800
0FFFFFF000
07FFFFC000
01FFFF0000
001FF80000
0007800000
000F800000
000F800000
000F000000
ENDCHAR
STARTCHAR 0425
ENCODING 1061
SWIDTH 600 0
DWIDTH 30 0
BBX 33 36 -1 0
BITMAP
03E0000F80
01F0001F80
01F0003F00
01F0007E00
00F8007C00
00F800F800
007C01F800
007C03F000
003E07E000
003E07C000
001F0FC000
001F1F8000
000FBF0000
000FBE0000
0007FC0000
0007FC0000
0007F80000
0003F00000
0003F00000
0007F00000
000FF80000
001FF80000
003FF80000
003E7C0000
007C7C0000
00FC3E0000
01F83E0000
01F01F0000
03E01F0000
07E00F8000
0FC00F8000
1F8007C000
1F0007C000
3F0007E000
7E0003E000
FC0003F000
ENDCHAR
STARTCHAR 0426
ENCODING 1062
SWIDTH 700 0
DWIDTH 35 0
BBX 32 45 2 -9
BITMAP
03C0001F
03C0001F
07C0001F
07C0001E
07C0001E
07C0003E
0780003E
0780003E
0F80003E
0F80003C
0F80003C
0F00007C
0F00007C
1F00007C
1F00007C
1F000078
1F000078
1E0000F8
1E0000F8
3E0000F8
3E0000F0
3E0000F0
3E0001F0
3C0001F0
3C0001F0
7C0001F0
7C0001E0
7C0001E0
7C0003E0
780003E0
780003E0
F80003E0
FFFFFFFC
FFFFFFFC
FFFFFFFC
FFFFFFF8
00000078
00000078
000000F8
000000F8
000000F0
000000F0
000000F0
000000F0
000001F0
ENDCHAR
STARTCHAR 0427
ENCODING 1063
SWIDTH 660 0
DWIDTH 33 0
BBX 28 36 5 0
BITMAP
3E0001F0
3E0001E0
3C0001E0
3C0001E0
3C0003E0
7C0003E0
7C0003E0
7C0003C0
780003C0
780007C0
780007C0
F80007C0
F80007C0
F8000780
F8000780
F8000F80
7C000F80
7E001F80
3F83FF80
3FFFFF00
1FFFFF00
07FFFF00
00381F00
00001F00
00001E00
00001E00
00001E00
00003E00
00003E00
00003E00
00003C00
00003C00
00007C00
00007C00
00007C00
00007C00
ENDCHAR
STARTCHAR 0428
ENCODING 1064
SWIDTH 900 0
DWIDTH 45 0
BBX 43 36 2 0
BITMAP
03C003E001E0
03C003E003E0
07C003C003E0
07C003C003E0
07C007C003C0
07C007C003C0
078007C007C0
078007C007C0
0F80078007C0
0F80078007C0
0F800F800780
0F000F800780
0F000F800F80
0F000F800F80
1F000F000F80
1F000F000F80
1F001F000F00
1E001F000F00
1E001F001F00
3E001F001F00
3E001E001F00
3E001E001E00
3E003E001E00
3C003E001E00
3C003E003E00
7C003C003E00
7C003C003E00
7C003C003C00
7C007C003C00
78007C007C00
78007C007C00
F80078007C00
FFFFFFFFFC00
FFFFFFFFF800
FFFFFFFFF800
FFFFFFFFF800
ENDCHAR
STARTCHAR 0429
ENCODING 1065
SWIDTH 920 0
DWIDTH 46 0
BBX 43 45 2 -9
BITMAP
03C003E001E0
03C003E003E0
07C003C003E0
07C003C003E0
07C007C003C0
07C007C003C0
078007C007C0
078007C007C0
0F80078007C0
0F80078007C0
0F800F800780
0F000F800780
0F000F800F80
0F000F800F80
1F000F000F80
1F000F000F80
1F001F000F00
1E001F000F00
1E001F001F00
3E001F001F00
3E001E001F00
3E001E001E00
3E003E001E00
3C003E001E00
3C003E003E00
7C003C003E00
7C003C003E00
7C003C003C00
7C007C003C00
78007C007C00
78007C007C00
F80078007C00
FFFFFFFFFF80
FFFFFFFFFF80
FFFFFFFFFF80
FFFFFFFFFF00
000000000F00
000000000F00
000000000F00
000000001F00
000000001E00
000000001E00
000000001E00
000000001E00
000000001E00
ENDCHAR
STARTCHAR 042A
ENCODING 1066
SWIDTH 720 0
DWIDTH 36 0
BBX 31 36 3 0
BITMAP
7FFE0000
7FFE0000
7FFE0000
FFFE0000
003E0000
003C0000
003C0000
007C0000
007C0000
007C0000
007C0000
00780000
00780000
00F80000
00F80000
00FFFF00
00FFFFE0
00FFFFF0
00FFFFF8
01F000FC
01F0007C
01F0003E
01E0003E
01E0003E
01E0003E
03E0003E
03E0003E
03E0003E
03C0007C
03C000FC
03C001F8
07C007F8
07FFFFF0
07FFFFC0
07FFFF80
07FFFC00
ENDCHAR
STARTCHAR 042B
ENCODING 1067
SWIDTH 840 0
DWIDTH 42 0
BBX 39 36 2 0
BITMAP
03C000001E
03C000003E
07C000003E
07C000003E
07C000003C
07C000003C
078000003C
078000007C
0F8000007C
0F8000007C
0F80000078
0F80000078
0F000000F8
0F000000F8
1F000000F8
1FFFF000F8
1FFFFC00F0
1FFFFE00F0
1FFFFF01F0
1E001F81F0
3E000F81F0
3E0007C1F0
3E0007C1E0
3C0003C1E0
3C0003C3E0
7C0007C3E0
7C0007C3E0
7C0007C3C0
7C000F83C0
78000F83C0
78003F07C0
F8007F07C0
FFFFFE07C0
FFFFFC0780
FFFFF00780
FFFF800780
ENDCHAR
STARTCHAR 042C
ENCODING 1068
SWIDTH 600 0
DWIDTH 30 0
BBX 27 36 1 0
BITMAP
03E00000
03E00000
03E00000
03E00000
03C00000
03C00000
07C00000
07C00000
07C00000
07C00000
07800000
07800000
0F800000
0F800000
0F800000
0FFFF000
0FFFFE00
0FFFFF00
1FFFFF80
1F001FC0
1F0007C0
1E0003C0
1E0003E0
3E0003E0
3E0003E0
3E0003E0
3E0003E0
3C0003C0
3C0007C0
7C000FC0
7C001F80
7C007F00
7FFFFE00
7FFFFC00
7FFFF800
FFFFC000
ENDCHAR
STARTCHAR 042D
ENCODING 1069
SWIDTH 640 0
DWIDTH 32 0
BBX 28 37 3 -1
BITMAP
000FF000
003FFC00
00FFFF00
01FFFF80
03F01FC0
07E007C0
0FC003E0
0F8003E0
1F0001E0
1F0001F0
1E0001F0
3E0001F0
000001F0
000001F0
000001F0
000001F0
003FFFF0
003FFFF0
007FFFF0
007FFFE0
000001E0
000003E0
000003E0
000003E0
000003C0
F00007C0
F8000780
F8000F80
F8001F00
7C001F00
7C003E00
3E00FC00
3FC3F800
1FFFF000
0FFFE000
03FF8000
00100000
ENDCHAR
STARTCHAR 042E
ENCODING 1070
SWIDTH 860 0
DWIDTH 43 0
BBX 40 37 2 -1
BITMAP
03E0007F80
03C003FFE0
03C007FFF0
07C01FFFF8
07C03F80FC
07C07E007E
07C07C003E
0780F8001E
0781F0001F
0F81F0001F
0F83E0000F
0F83E0000F
0F03C0000F
0F07C0000F
0F07C0000F
1F0780000F
1F0780000F
1FFF80000F
1FFF80000F
1FFF80001F
3E0F80001F
3E0F80001F
3E0F80001E
3E0F80003E
3C0F80003E
3C0F80003C
7C0F80007C
7C07800078
7C07C000F8
7C07C001F0
7803E003F0
7803F00FE0
F801FF7FC0
F800FFFF80
F8007FFE00
F0001FF800
0000010000
ENDCHAR
STARTCHAR 042F
ENCODING 1071
SWIDTH 600 0
DWIDTH 30 0
BBX 30 36 0 0
BITMAP
00007FFC
0007FFFC
001FFFFC
007FFFFC
00FF807C
01FC0078
01F00078
03E000F8
03E000F8
07C000F8
07C000F8
07C000F0
07C000F0
07C001F0
07C001F0
03E001F0
03E001F0
01F801E0
01FFFFE0
007FFFE0
003FFFE0
003FFFE0
007C03C0
00F803C0
00F807C0
01F007C0
03E007C0
07C007C0
07C00780
0F800780
1F000F80
1F000F80
3E000F80
7C000F80
FC000F00
F8000F00
ENDCHAR
STARTCHAR 0430
ENCODING 1072
SWIDTH 520 0
DWIDTH 26 0
BBX 22 28 1 -1
BITMAP
001F80
00FFE0
03FFF0
07FFF8
0FC0FC
0F807C
1F003C
1E003C
00003C
00003C
00003C
00FFFC
07FFFC
0FFFFC
1FC078
3E0078
7C0078
780078
F800F8
F800F8
F800F0
F801F0
7C07F0
7F3FF0
3FFFF0
1FFCF0
0FF8F0
008000
ENDCHAR
STARTCHAR 0431
ENCODING 1073
SWIDTH 520 0
DWIDTH 26 0
BBX 25 39 2 -1
BITMAP
00000780
00000780
00000F00
00007F00
0007FE00
003FFC00
007FF800
01FF8000
03F80000
07E00000
07C00000
0F000000
0F000000
1E1F8000
1CFFE000
3DFFF000
3FFFF800
3F80F800
7F007C00
7E003C00
7C003E00
7C003E00
F8003E00
F8001E00
F8001E00
F0003E00
F0003E00
F0003E00
F0003C00
F0007C00
F8007C00
7800F800
7C01F800
7C03F000
3F0FE000
1FFFC000
0FFF8000
07FE0000
00200000
ENDCHAR
STARTCHAR 0432
ENCODING 1074
SWIDTH 540 0
DWIDTH 27 0
BBX 24 26 1 0
BITMAP
07FFF0
0FFFFC
0FFFFE
0F807F
0F001F
0F000F
0F000F
1F000F
1F001F
1E003E
1E00FC
1FFFF8
1FFFE0
3FFFF8
3E01FC
3C003C
3C003E
3C001E
7C001E
7C003E
7C003E
7800FC
7FFFF8
7FFFF8
FFFFE0
FFFF80
ENDCHAR
STARTCHAR 0433
ENCODING 1075
SWIDTH 400 0
DWIDTH 20 0
BBX 21 26 1 0
BITMAP
07FFF8
0FFFF8
0FFFF0
0F0000
0F0000
0F0000
0F0000
1F0000
1F0000
1E0000
1E0000
1E0000
3E0000
3E0000
3E0000
3C0000
3C0000
3C0000
7C0000
7C0000
7C0000
780000
780000
780000
F80000
F80000
ENDCHAR
STARTCHAR 0434
ENCODING 1076
SWIDTH 580 0
DWIDTH 29 0
BBX 29 34 -3 -8
BITMAP
0007FFF8
0007FFF8
000FFFF8
000FFFF8
000F00F8
000F00F8
000F00F0
001F00F0
001F00F0
001E01F0
001E01F0
003E01E0
003E01E0
003C01E0
007C01E0
007C03E0
007803E0
00F803C0
01F003C0
01F003C0
03E007C0
07C007C0
3FFFFFF8
3FFFFFF8
3FFFFFF8
3FFFFFF0
7C0000F0
7C0000F0
7C0001F0
780001F0
780001E0
780001E0
F80001E0
F80003E0
ENDCHAR
STARTCHAR 0435
ENCODING 1077
SWIDTH 500 0
DWIDTH 25 0
BBX 22 27 2 -1
BITMAP
003F00
01FFC0
03FFE0
07FFF0
0F81F8
1F00F8
3E0078
3C007C
7C003C
78003C
78003C
FFFFFC
FFFFFC
FFFFFC
FFFFFC
F00000
F00000
F00000
F80000
F80000
F80040
7C00E0
7E01F0
3F87E0
1FFFC0
0FFF80
07FE00
ENDCHAR
STARTCHAR 0436
ENCODING 1078
SWIDTH 740 0
DWIDTH 37 0
BBX 39 26 -2 0
BITMAP
03E00F807E
01E00F007C
01F00F00F8
01F00F01F8
00F81F03F0
00F81F03E0
007C1F07C0
007C1E0F80
003C1E1F00
003E1E3F00
001E3E3E00
001FFFFC00
001FFFF800
003FFFFC00
003FFFFC00
007C3C3E00
00F87C3E00
01F07C1F00
03F0781F00
07E0780F80
0FC0780F80
0F80780FC0
1F00F807C0
3F00F807E0
7E00F003E0
FC00F003F0
ENDCHAR
STARTCHAR 0437
ENCODING 1079
SWIDTH 480 0
DWIDTH 24 0
BBX 22 28 1 -1
BITMAP
003F00
01FFE0
07FFF0
0FFFF8
1FC0F8
1F0078
1E007C
3E007C
00007C
000078
0000F8
000FF0
01FFE0
01FF80
01FFC0
000FE0
0001F0
0001F0
0000F0
F000F0
F001F0
F801F0
FC03E0
7E0FE0
3FFFC0
1FFF80
0FFE00
004000
ENDCHAR
STARTCHAR 0438
ENCODING 1080
SWIDTH 560 0
DWIDTH 28 0
BBX 25 26 1 0
BITMAP
07800F80
0F801F80
0F803F80
0F003F80
0F007F80
0F00FF00
0F01FF00
1F01EF00
1F03FF00
1E07DF00
1E0F9E00
1E1F1E00
1E1E1E00
3E3E1E00
3E7C3E00
3CF83E00
3DF03C00
3DE03C00
7FE03C00
7FC07C00
7F807C00
7F007C00
7E007800
7E007800
FC007800
F800F800
ENDCHAR
STARTCHAR 0439
ENCODING 1081
SWIDTH 560 0
DWIDTH 28 0
BBX 25 36 1 0
BITMAP
00780F00
00380E00
003C1E00
003E7C00
001FFC00
000FF000
00008000
00000000
00000000
00000000
07800F80
0F801F80
0F803F80
0F003F80
0F007F80
0F00FF00
0F01FF00
1F01EF00
1F03FF00
1E07DF00
1E0F9E00
1E1F1E00
1E1E1E00
3E3E1E00
3E7C3E00
3CF83E00
3DF03C00
3DE03C00
7FE03C00
7FC07C00
7F807C00
7F007C00
7E007800
7E007800
FC007800
F800F800
ENDCHAR
STARTCHAR 043A
ENCODING 1082
SWIDTH 520 0
DWIDTH 26 0
BBX 26 26 1 0
BITMAP
07800FC0
0F801F00
0F803E00
0F007C00
0F00F800
0F01F000
0F03E000
1F07C000
1F0F8000
1E1F0000
1E3F0000
1FFE0000
1FFC0000
3FFC0000
3FFE0000
3C3F0000
3C1F0000
3C0F8000
7C0F8000
7C07C000
7C07E000
7803E000
7801F000
7801F800
F800F800
F8007C00
ENDCHAR
STARTCHAR 043B
ENCODING 1083
SWIDTH 560 0
DWIDTH 28 0
BBX 27 26 -1 0
BITMAP
003FFFE0
003FFFE0
007FFFE0
007C03E0
007803E0
007803C0
007803C0
00F803C0
00F807C0
00F007C0
00F007C0
00F00780
01F00780
01E00780
01E00F80
01E00F80
01E00F00
03C00F00
03C00F00
07C00F00
0F801F00
1F801F00
FF001E00
FE001E00
FC001E00
F0003E00
ENDCHAR
STARTCHAR 043C
ENCODING 1084
SWIDTH 700 0
DWIDTH 35 0
BBX 33 26 1 0
BITMAP
07E0001F80
0FE0001F80
0FE0003F80
0FE0007F80
0FF0007F80
0FF000FF00
0FF000FF00
1FF001EF00
1F7803FF00
1E7803DF00
1E7807DE00
1E78079E00
1E3C0F1E00
3E3C1F3E00
3E3C1E3E00
3C3C3E3E00
3C1E3C3C00
3C1E783C00
7C1EF83C00
7C1EF07C00
7C0FF07C00
780FE07C00
780FC07800
780FC07800
F807807800
F80780F800
ENDCHAR
STARTCHAR 043D
ENCODING 1085
SWIDTH 540 0
DWIDTH 27 0
BBX 25 26 1 0
BITMAP
07800780
0F800780
0F800F80
0F000F80
0F000F80
0F000F00
0F000F00
1F000F00
1F001F00
1E001F00
1E001E00
1FFFFE00
1FFFFE00
3FFFFE00
3FFFFE00
3C003E00
3C003C00
3C003C00
7C003C00
7C007C00
7C007C00
78007C00
78007800
78007800
F8007800
F800F800
ENDCHAR
STARTCHAR 043E
ENCODING 1086
SWIDTH 540 0
DWIDTH 27 0
BBX 23 28 2 -1
BITMAP
003F00
01FFC0
03FFF0
07FFF8
0FC0F8
1F007C
3E003C
3E003E
7C001E
7C001E
78001E
F8001E
F8001E
F0001E
F0001E
F0001E
F0003E
F0003E
F0003C
F8007C
7800F8
7C00F8
7E03F0
3F0FE0
1FFFC0
0FFF80
07FE00
002000
ENDCHAR
STARTCHAR 043F
ENCODING 1087
SWIDTH 560 0
DWIDTH 28 0
BBX 25 26 1 0
BITMAP
07FFFF80
0FFFFF80
0FFFFF80
0F000F80
0F000F80
0F000F00
0F000F00
1F000F00
1F001F00
1E001F00
1E001E00
1E001E00
1E001E00
3E003E00
3E003E00
3C003E00
3C003C00
3C003C00
7C003C00
7C007C00
7C007C00
78007C00
78007800
78007800
F8007800
F800F800
ENDCHAR
STARTCHAR 0440
ENCODING 1088
SWIDTH 540 0
DWIDTH 27 0
BBX 26 37 -1 -10
BITMAP
0003F000
03CFFC00
03DFFE00
03FFFF00
03F81F80
07E00F80
07C00F80
07C007C0
078007C0
078007C0
078007C0
0F8007C0
0F8007C0
0F8007C0
0F0007C0
0F000780
0F000780
1F000F80
1F000F80
1F001F00
1F001F00
1F003E00
1F807E00
3FE1FC00
3FFFF800
3CFFF000
3C3FE000
3C020000
7C000000
7C000000
7C000000
78000000
78000000
78000000
F8000000
F8000000
F8000000
ENDCHAR
STARTCHAR 0441
ENCODING 1089
SWIDTH 500 0
DWIDTH 25 0
BBX 22 27 2 -1
BITMAP
003F00
01FFC0
03FFE0
0FFFF0
0FC1F8
1F0078
3E007C
3C003C
7C003C
78003C
780000
F80000
F80000
F00000
F00000
F00000
F00000
F00000
F00000
F800F8
F800F0
7801F0
7C03E0
3F0FE0
1FFFC0
0FFF00
07FC00
ENDCHAR
STARTCHAR 0442
ENCODING 1090
SWIDTH 460 0
DWIDTH 23 0
BBX 22 26 2 0
BITMAP
7FFFFC
7FFFFC
FFFFFC
007800
007800
00F800
00F800
00F000
00F000
00F000
00F000
01F000
01F000
01E000
01E000
01E000
03E000
03E000
03E000
03C000
03C000
03C000
07C000
07C000
07C000
078000
ENDCHAR
STARTCHAR 0443
ENCODING 1091
SWIDTH 440 0
DWIDTH 22 0
BBX 26 37 -2 -11
BITMAP
078007C0
07C007C0
07C00F80
07C00F80
03C01F00
03C01F00
03C03E00
03C03E00
03E07C00
03E07800
01E0F800
01E0F000
01E1F000
01E1E000
01F1E000
01F3C000
00F3C000
00F78000
00F78000
00FF0000
00FF0000
007E0000
007E0000
007C0000
007C0000
00780000
00780000
00F00000
00F00000
01E00000
03E00000
07C00000
0FC00000
FF800000
FF000000
FE000000
F0000000
ENDCHAR
STARTCHAR 0444
ENCODING 1092
SWIDTH 700 0
DWIDTH 35 0
BBX 31 48 2 -10
BITMAP
00007C00
00007800
00007800
00007800
0000F800
0000F800
0000F800
0000F000
0000F000
0000F000
0001F000
00FDFFC0
03FFFFE0
07FFFFF0
0FFFFFF8
1F81E0FC
1F03E07C
3E03E03C
3E03C03C
7C03C03E
7C03C03E
7803C03E
7807C03E
F807C03E
F807803E
F807803C
F007803C
F00F803C
F00F807C
F00F807C
F00F0078
F80F00F8
F80F01F0
7C1F03F0
7E1F07E0
3FFFFFC0
3FFFFF80
0FFEFF00
019E1800
003E0000
003E0000
003E0000
003C0000
003C0000
003C0000
007C0000
007C0000
00780000
ENDCHAR
STARTCHAR 0445
ENCODING 1093
SWIDTH 480 0
DWIDTH 24 0
BBX 25 26 -1 0
BITMAP
07800F80
07C01F00
03C03E00
03E07E00
01E07C00
01F0F800
00F1F000
00F3E000
007BE000
007FC000
003F8000
003F0000
003E0000
003E0000
007F0000
00FF0000
01F78000
03E78000
03E7C000
07C3C000
0F83E000
1F01E000
3F01F000
3E00F000
7C00F800
F8007800
ENDCHAR
STARTCHAR 0446
ENCODING 1094
SWIDTH 560 0
DWIDTH 28 0
BBX 25 34 1 -8
BITMAP
07800780
0F800780
0F800F80
0F000F80
0F000F80
0F000F00
0F000F00
1F000F00
1F001F00
1E001F00
1E001E00
1E001E00
1E001E00
3E001E00
3E003E00
3C003E00
3C003C00
3C003C00
7C003C00
7C007C00
7C007C00
78007C00
7FFFFF00
7FFFFF00
FFFFFF00
FFFFFF00
00001F00
00001E00
00001E00
00001E00
00001E00
00003E00
00003C00
00003C00
ENDCHAR
STARTCHAR 0447
ENCODING 1095
SWIDTH 520 0
DWIDTH 26 0
BBX 22 26 3 0
BITMAP
7C007C
7C0078
780078
780078
7800F8
7800F8
F800F8
F800F0
F800F0
F800F0
F801F0
7801F0
7C01F0
7FFFE0
3FFFE0
1FFFE0
07FFE0
0003E0
0003C0
0003C0
0003C0
0007C0
0007C0
0007C0
000780
000780
ENDCHAR
STARTCHAR 0448
ENCODING 1096
SWIDTH 780 0
DWIDTH 39 0
BBX 37 26 1 0
BITMAP
07803E00F8
0F803E00F0
0F803C00F0
0F003C00F0
0F003C01F0
0F007C01F0
0F007C01F0
1F007C01E0
1F007801E0
1E007801E0
1E007803E0
1E00F803E0
1E00F803C0
3E00F803C0
3E00F003C0
3C00F007C0
3C00F007C0
3C01F007C0
7C01F00780
7C01F00780
7C01E00780
7801E00F80
7FFFFFFF80
7FFFFFFF80
FFFFFFFF00
FFFFFFFF00
ENDCHAR
STARTCHAR 0449
ENCODING 1097
SWIDTH 800 0
DWIDTH 40 0
BBX 36 34 1 -8
BITMAP
0F803E00F0
0F803C00F0
0F003C01F0
0F003C01F0
0F007C01F0
1F007C01E0
1F007C01E0
1F007801E0
1E007803E0
1E007803E0
1E00F803E0
3E00F803C0
3E00F003C0
3E00F003C0
3C00F007C0
3C01F007C0
3C01F007C0
7C01F00780
7C01E00780
7801E00780
7801E00F80
7803E00F80
7FFFFFFFF0
FFFFFFFFF0
FFFFFFFFF0
FFFFFFFFE0
00000001E0
00000001E0
00000001E0
00000003E0
00000003C0
00000003C0
00000003C0
00000003C0
ENDCHAR
STARTCHAR 044A
ENCODING 1098
SWIDTH 600 0
DWIDTH 30 0
BBX 26 26 2 0
BITMAP
7FF80000
FFF00000
FFF00000
00F00000
01F00000
01F00000
01F00000
01E00000
01E00000
01FFF800
03FFFE00
03FFFF00
03E03F80
03C00F80
03C007C0
03C007C0
07C007C0
07C007C0
07C007C0
07800780
07800F80
07803F00
0FFFFF00
0FFFFE00
0FFFF800
0FFFE000
ENDCHAR
STARTCHAR 044B
ENCODING 1099
SWIDTH 740 0
DWIDTH 37 0
BBX 34 26 1 0
BITMAP
07800003C0
0F800003C0
0F800007C0
0F800007C0
0F000007C0
0F00000780
0F00000780
1F00000780
1F00000F80
1FFFC00F80
1FFFE00F80
1FFFF80F00
1E03F80F00
3E007C0F00
3E007C1F00
3C003C1F00
3C003C1E00
3C003C1E00
7C007C1E00
7C007C1E00
7C00F83E00
7801F83E00
7FFFF03C00
7FFFE03C00
FFFFC03C00
FFFE007C00
ENDCHAR
STARTCHAR 044C
ENCODING 1100
SWIDTH 520 0
DWIDTH 26 0
BBX 22 26 1 0
BITMAP
078000
0F8000
0F8000
0F8000
0F0000
0F0000
0F0000
1F0000
1F0000
1FFFC0
1FFFE0
1FFFF8
1E03F8
3E007C
3E007C
3C003C
3C003C
3C003C
7C007C
7C007C
7C00F8
7801F8
7FFFF0
7FFFE0
FFFFC0
FFFE00
ENDCHAR
STARTCHAR 044D
ENCODING 1101
SWIDTH 520 0
DWIDTH 26 0
BBX 22 28 1 -1
BITMAP
003F00
01FFC0
03FFE0
07FFF0
0FC1F8
1F00F8
1E007C
3E007C
3C003C
00003C
00003C
00003C
00FFFC
00FFFC
00FFFC
00003C
00007C
000078
F80078
F800F8
7801F0
7801F0
7C03E0
3F0FC0
3FFF80
1FFF00
07FC00
006000
ENDCHAR
STARTCHAR 044E
ENCODING 1102
SWIDTH 780 0
DWIDTH 39 0
BBX 36 28 1 -1
BITMAP
000001F800
078007FF00
0F801FFF80
0F803FFFC0
0F807E07E0
0F00F803E0
0F01F001F0
0F01F001F0
1F03E000F0
1F03E000F0
1E03C000F0
1E07C000F0
1FFFC000F0
1FFF8000F0
3FFF8000F0
3E078000F0
3C078001F0
3C078001E0
3C078003E0
7C07C003E0
7C07C007C0
7C03E00FC0
7803E01F80
7801F87F00
7800FFFE00
F8007FFC00
F8003FF000
0000010000
ENDCHAR
STARTCHAR 044F
ENCODING 1103
SWIDTH 520 0
DWIDTH 26 0
BBX 26 26 -1 0
BITMAP
003FFFC0
00FFFFC0
01FFFF80
03F80780
07E00780
07C00780
0F800F80
0F800F80
0F000F00
0F800F00
0F800F00
07C01F00
07FFFF00
03FFFF00
00FFFE00
01FFFE00
01F01E00
03E03E00
07C03E00
0F803E00
0F803C00
1F003C00
3E003C00
7C007C00
7C007C00
F8007800
ENDCHAR
STARTCHAR 0450
ENCODING 1104
SWIDTH 500 0
DWIDTH 25 0
BBX 22 38 2 -1
BITMAP
00F800
00F800
007C00
003C00
003E00
001E00
000F00
000700
000000
000000
000000
003F00
01FFC0
03FFE0
07FFF0
0F81F8
1F00F8
3E0078
3C007C
7C003C
78003C
78003C
FFFFFC
FFFFFC
FFFFFC
FFFFFC
F00000
F00000
F00000
F80000
F80000
F80040
7C00E0
7E01F0
3F87E0
1FFFC0
0FFF80
07FE00
ENDCHAR
STARTCHAR 0451
ENCODING 1105
SWIDTH 500 0
DWIDTH 25 0
BBX 22 36 2 -1
BITMAP
00E038
01F07C
01F07C
01F07C
00E038
000000
000000
000000
000000
003F00
01FFC0
03FFE0
07FFF0
0F81F8
1F00F8
3E0078
3C007C
7C003C
78003C
78003C
FFFFFC
FFFFFC
FFFFFC
FFFFFC
F00000
F00000
F00000
F80000
F80000
F80040
7C00E0
7E01F0
3F87E0
1FFFC0
0FFF80
07FE00
ENDCHAR
STARTCHAR 0452
ENCODING 1106
SWIDTH 520 0
DWIDTH 26 0
BBX 23 49 1 -11
BITMAP
03E000
03E000
03C000
03C000
03C000
7FFF80
7FFF00
7FFF00
078000
078000
078000
0F87E0
0FBFF0
0F7FF8
0FFFFC
0FE07C
0FC03E
1F803E
1F003E
1E003E
1E003E
1E003E
3E003E
3E003C
3E003C
3C003C
3C007C
3C007C
7C007C
7C0078
7C0078
780078
7800F8
7800F8
F800F8
F800F0
F000F0
F000F0
0000F0
0001F0
0001F0
0001E0
0001E0
0003E0
0007C0
00FFC0
00FF80
00FF00
007800
ENDCHAR
STARTCHAR 0453
ENCODING 1107
SWIDTH 400 0
DWIDTH 20 0
BBX 21 37 1 0
BITMAP
0001F0
0003E0
0007C0
000F80
001F00
001E00
003C00
000000
000000
000000
000000
07FFF8
0FFFF8
0FFFF0
0F0000
0F0000
0F0000
0F0000
1F0000
1F0000
1E0000
1E0000
1E0000
3E0000
3E0000
3E0000
3C0000
3C0000
3C0000
7C0000
7C0000
7C0000
780000
780000
780000
F80000
F80000
ENDCHAR
STARTCHAR 0454
ENCODING 1108
SWIDTH 520 0
DWIDTH 26 0
BBX 23 28 2 -1
BITMAP
003F00
00FFC0
03FFF0
07FFF8
0FC0F8
1F007C
3E003C
3E003C
3C003C
7C003E
780000
780000
FFFC00
FFFC00
FFFC00
FFFC00
F00000
F00000
F80000
F800F8
7800F0
7801F0
7C03E0
3F0FE0
1FFFC0
0FFF00
07FE00
002000
ENDCHAR
STARTCHAR 0455
ENCODING 1109
SWIDTH 500 0
DWIDTH 25 0
BBX 22 27 1 -1
BITMAP
003F00
01FFC0
03FFF0
07FFF8
0FC0F8
1F007C
1F007C
1E003C
1E0000
1F0000
1F8000
0FE000
07FE00
03FF80
00FFC0
001FE0
0003F0
0000F0
0000F0
F800F0
F800F0
7801F0
7C03F0
7F0FE0
3FFFC0
1FFF80
07FE00
ENDCHAR
STARTCHAR 0456
ENCODING 1110
SWIDTH 220 0
DWIDTH 11 0
BBX 11 36 1 0
BITMAP
01C0
03E0
03E0
03E0
03C0
0000
0000
0000
0000
0000
0780
0F80
0F80
0F00
0F00
0F00
0F00
1F00
1F00
1E00
1E00
1E00
3E00
3E00
3E00
3C00
3C00
3C00
7C00
7C00
7C00
7800
7800
7800
F800
F800
ENDCHAR
STARTCHAR 0457
ENCODING 1111
SWIDTH 240 0
DWIDTH 12 0
BBX 16 36 1 0
BITMAP
380E
7C1F
7C1F
7C1F
781E
0000
0000
0000
0000
0000
0780
0F80
0F80
0F00
0F00
0F00
0F00
1F00
1F00
1E00
1E00
1E00
3E00
3E00
3E00
3C00
3C00
3C00
7C00
7C00
7C00
7800
7800
7800
F800
F800
ENDCHAR
STARTCHAR 0458
ENCODING 1112
SWIDTH 220 0
DWIDTH 11 0
BBX 17 47 -6 -11
BITMAP
000780
000F80
000F80
000F80
000780
000000
000000
000000
000000
000000
001F00
001F00
001E00
001E00
001E00
003E00
003E00
003E00
003C00
003C00
003C00
007C00
007C00
007C00
007800
007800
007800
00F800
00F800
00F800
00F000
00F000
00F000
01F000
01F000
01F000
01E000
01E000
01E000
03E000
03E000
03C000
0FC000
7F8000
FF8000
FF0000
7C0000
ENDCHAR
STARTCHAR 0459
ENCODING 1113
SWIDTH 820 0
DWIDTH 41 0
BBX 39 26 -1 0
BITMAP
003FFFC000
003FFFC000
007FFFC000
007C07C000
007807C000
007807C000
00F8078000
00F8078000
00F0078000
00F00F8000
00F00FFFE0
01F00FFFF8
01F00FFFFC
01E00F00FE
01E00F003E
01E01F001E
03E01F001E
03C01E001E
03C01E001E
07C01E003E
0F803E003E
1F803E00FC
FF003FFFF8
FE003FFFF0
FC003FFFE0
F0003FFF80
ENDCHAR
STARTCHAR 045A
ENCODING 1114
SWIDTH 820 0
DWIDTH 41 0
BBX 38 26 1 0
BITMAP
0780078000
0F80078000
0F800F8000
0F000F8000
0F000F8000
0F000F0000
0F000F0000
1F000F0000
1F001F0000
1E001F0000
1FFFFFFFC0
1FFFFFFFF0
1FFFFFFFF8
3E003E01F8
3E003E007C
3C003E003C
3C003C003C
3C003C003C
7C003C003C
7C007C007C
7C007C00FC
78007C01F8
78007FFFF0
78007FFFE0
F8007FFFC0
F800FFFE00
ENDCHAR
STARTCHAR 045B
ENCODING 1115
SWIDTH 540 0
DWIDTH 27 0
BBX 23 38 1 0
BITMAP
03E000
03E000
03C000
03C000
03C000
3FFF80
3FFF80
3FFF80
078000
078000
078000
0F87E0
0FBFF0
0F7FF8
0FFFFC
0FE07C
0FC03E
1F803E
1F003E
1E003E
1E003E
1E003E
3E003E
3E003C
3E003C
3C003C
3C007C
3C007C
7C007C
7C0078
7C0078
780078
7800F8
7800F8
F800F8
F800F0
F000F0
F000F0
ENDCHAR
STARTCHAR 045C
ENCODING 1116
SWIDTH 520 0
DWIDTH 26 0
BBX 26 37 1 0
BITMAP
00007E00
0000FC00
0000F800
0001F000
0003E000
0007C000
000F8000
00000000
00000000
00000000
00000000
07800FC0
0F801F00
0F803E00
0F007C00
0F00F800
0F01F000
0F03E000
1F07C000
1F0F8000
1E1F0000
1E3F0000
1FFE0000
1FFC0000
3FFC0000
3FFE0000
3C3F0000
3C1F0000
3C0F8000
7C0F8000
7C07C000
7C07E000
7803E000
7801F000
7801F800
F800F800
F8007C00
ENDCHAR
STARTCHAR 045D
ENCODING 1117
SWIDTH 560 0
DWIDTH 28 0
BBX 25 37 1 0
BITMAP
003E0000
001E0000
001F0000
000F0000
00078000
00078000
0003C000
00000000
00000000
00000000
00000000
07800F80
0F801F80
0F803F80
0F003F80
0F007F80
0F00FF00
0F01FF00
1F01EF00
1F03FF00
1E07DF00
1E0F9E00
1E1F1E00
1E1E1E00
3E3E1E00
3E7C3E00
3CF83E00
3DF03C00
3DE03C00
7FE03C00
7FC07C00
7F807C00
7F007C00
7E007800
7E007800
FC007800
F800F800
ENDCHAR
STARTCHAR 045E
ENCODING 1118
SWIDTH 440 0
DWIDTH 22 0
BBX 26 48 -2 -11
BITMAP
001C0000
001C0780
001C0F00
001E1F00
000FFE00
0007FC00
0003F000
00000000
00000000
00000000
00000000
078007C0
07C007C0
07C00F80
07C00F80
03C01F00
03C01F00
03C03E00
03C03E00
03E07C00
03E07800
01E0F800
01E0F000
01E1F000
01E1E000
01F1E000
01F3C000
00F3C000
00F78000
00F78000
00FF0000
00FF0000
007E0000
007E0000
007C0000
007C0000
00780000
00780000
00F00000
00F00000
01E00000
03E00000
07C00000
0FC00000
FF800000
FF000000
FE000000
F0000000
ENDCHAR
STARTCHAR 045F
ENCODING 1119
SWIDTH 560 0
DWIDTH 28 0
BBX 25 35 1 -9
BITMAP
07800780
0F800780
0F800F80
0F000F80
0F000F80
0F000F00
0F000F00
1F000F00
1F001F00
1E001F00
1E001E00
1E001E00
1E001E00
3E001E00
3E003E00
3C003E00
3C003C00
3C003C00
7C003C00
7C007C00
7C007C00
78007C00
7FFFF800
7FFFF800
FFFFF800
FFFFF800
00F80000
00F80000
00F00000
00F00000
00F00000
01F00000
01F00000
01E00000
01E00000
ENDCHAR
STARTCHAR 0460
ENCODING 1120
SWIDTH 840 0
DWIDTH 42 0
BBX 40 37 3 -1
BITMAP
0F800F001F
0F800F001F
0F801F001E
0F001F001E
0F001F001E
1F001F003E
1F001E003E
1F003E003E
1F003E003C
1E003E003C
1E003E007C
3E003E007C
3E003C007C
3E007C007C
3E007C0078
3C007C0078
3C007C00F8
7C007C00F8
7C007800F8
7C00F800F8
7C00F800F0
7800F800F0
7800F801F0
F800F801F0
F800F001F0
F801F001F0
F801F001E0
F001F001E0
F801F003E0
F803F003E0
F807F807C0
FC0FF80FC0
7E3FFE3F80
3FFF3FFF00
3FFE1FFE00
0FF80FF800
00C000C000
ENDCHAR
STARTCHAR 0461
ENCODING 1121
SWIDTH 740 0
DWIDTH 37 0
BBX 34 27 2 -1
BITMAP
1E00F803C0
1E00F803C0
1E00F803C0
3E00F007C0
3E00F007C0
3E00F007C0
3C01F00780
3C01F00780
3C01F00780
7C01E00F80
7C01E00F80
7C01E00F80
7803E00F00
7803E00F00
7803E00F00
F803C01F00
F803C01F00
F803C01E00
F007C01E00
F807C03E00
F80FC03E00
F81FE07C00
7C3FF0FC00
7FFEFFF800
3FFCFFF000
1FF03FC000
0180060000
ENDCHAR
STARTCHAR 0462
ENCODING 1122
SWIDTH 600 0
DWIDTH 30 0
BBX 27 36 1 0
BITMAP
03E00000
03E00000
03E00000
03E00000
03C00000
7FFF0000
7FFF0000
FFFE0000
FFFE0000
07C00000
07800000
07800000
0F800000
0F800000
0F800000
0FFFF000
0FFFFE00
0FFFFF00
1FFFFF80
1F001FC0
1F0007C0
1E0003C0
1E0003E0
3E0003E0
3E0003E0
3E0003E0
3E0003E0
3C0003C0
3C0007C0
7C000FC0
7C001F80
7C007F00
7FFFFE00
7FFFFC00
7FFFF800
FFFFC000
ENDCHAR
STARTCHAR 0463
ENCODING 1123
SWIDTH 520 0
DWIDTH 26 0
BBX 22 38 1 0
BITMAP
01E000
03E000
03E000
03E000
03C000
03C000
03C000
07C000
7FFF80
7FFF80
FFFF80
FFFF80
078000
0F8000
0F8000
0F0000
0F0000
0F0000
0F0000
1F0000
1FFF80
1FFFE0
1FFFF0
1E3FF8
3E00FC
3E007C
3E003C
3C003C
3C003C
3C003C
7C007C
7C007C
7C00F8
7801F8
7FFFF0
7FFFE0
FFFF80
FFFE00
ENDCHAR
STARTCHAR 0464
ENCODING 1124
SWIDTH 860 0
DWIDTH 43 0
BBX 40 36 2 -1
BITMAP
03E000FF80
03C003FFE0
03C00FFFF0
07C01FFFF8
07C03F80FC
07C07E007C
07C0FC003E
0780F8003E
0781F0001E
0F81E0001F
0F83E0001F
0F83C0001F
0F07C00000
0F07C00000
0F07800000
1F07800000
1FFFFFFC00
1FFFFFFC00
1FFFFFFC00
1E0F800000
3E0F000000
3E0F000000
3E0F000000
3E0F000000
3C0F000000
3C0F000078
7C0F8000F8
7C0F8000F8
7C078001F0
7C07C001F0
7807C003E0
7803E00FC0
F801FC7F80
F801FFFF00
F8007FFE00
F0003FF800
ENDCHAR
ENDFONT
